G04 MADE WITH FRITZING*
G04 WWW.FRITZING.ORG*
G04 DOUBLE SIDED*
G04 HOLES PLATED*
G04 CONTOUR ON CENTER OF CONTOUR VECTOR*
%ASAXBY*%
%FSLAX23Y23*%
%MOIN*%
%OFA0B0*%
%SFA1.0B1.0*%
%ADD10C,0.070000*%
%ADD11C,0.062992*%
%ADD12C,0.075000*%
%ADD13C,0.078000*%
%ADD14C,0.075118*%
%ADD15C,0.071181*%
%ADD16C,0.215056*%
%ADD17C,0.039370*%
%ADD18R,0.069972X0.070000*%
%ADD19R,0.062992X0.062992*%
%ADD20R,0.080000X0.080000*%
%ADD21R,0.078000X0.078000*%
%ADD22R,0.075000X0.075000*%
%ADD23R,0.077806X0.077630*%
%ADD24C,0.024000*%
%ADD25R,0.001000X0.001000*%
%LNCOPPER1*%
G90*
G70*
G54D10*
X492Y1646D03*
X492Y1546D03*
X492Y1446D03*
X492Y1346D03*
X492Y1246D03*
X492Y1146D03*
X492Y1046D03*
X492Y946D03*
X492Y846D03*
X492Y746D03*
X492Y646D03*
X492Y546D03*
X492Y446D03*
X492Y346D03*
X492Y246D03*
X1092Y1646D03*
X1092Y1546D03*
X1092Y1446D03*
X1092Y1346D03*
X1092Y1246D03*
X1092Y1146D03*
X1092Y1046D03*
X1092Y946D03*
X1092Y846D03*
X1092Y746D03*
X1092Y646D03*
X1092Y546D03*
X1092Y446D03*
X1092Y346D03*
X1092Y246D03*
G54D11*
X544Y2046D03*
X446Y2046D03*
X844Y2046D03*
X746Y2046D03*
X244Y2046D03*
X146Y2046D03*
G54D12*
X144Y1346D03*
X144Y1746D03*
X344Y1346D03*
X344Y1746D03*
X244Y1346D03*
X244Y1746D03*
G54D13*
X2357Y246D03*
X3144Y246D03*
X2357Y2018D03*
X3145Y2018D03*
X2344Y1546D03*
X2344Y1446D03*
X2344Y1346D03*
G54D12*
X1844Y1946D03*
X2144Y1946D03*
X1844Y1846D03*
X2144Y1846D03*
X1844Y1746D03*
X2144Y1746D03*
X1844Y1646D03*
X2144Y1646D03*
X1444Y2146D03*
X1044Y2146D03*
G54D14*
X1918Y146D03*
X1544Y146D03*
X1918Y146D03*
X1544Y146D03*
G54D15*
X1844Y1346D03*
X1844Y746D03*
X2144Y746D03*
X2144Y1446D03*
X2144Y1146D03*
X1844Y1346D03*
X1844Y746D03*
X2144Y746D03*
X2144Y1446D03*
X2144Y1146D03*
G54D10*
X1745Y346D03*
X1644Y346D03*
G54D13*
X144Y1046D03*
X144Y946D03*
X144Y846D03*
G54D16*
X144Y246D03*
X144Y528D03*
G54D13*
X1644Y1346D03*
X1284Y1346D03*
X1284Y746D03*
X1644Y746D03*
X1318Y1746D03*
X1618Y1745D03*
G54D17*
X84Y1252D03*
X972Y964D03*
X828Y820D03*
X1140Y2092D03*
X1980Y1900D03*
X948Y1348D03*
X924Y1876D03*
G54D18*
X492Y1646D03*
G54D19*
X544Y2046D03*
X844Y2046D03*
X244Y2046D03*
G54D20*
X3145Y247D03*
G54D21*
X2357Y247D03*
X2357Y2018D03*
X3144Y2018D03*
X2344Y1546D03*
G54D22*
X1844Y1946D03*
G54D21*
X144Y1046D03*
G54D23*
X1285Y746D03*
X1644Y746D03*
X1645Y1346D03*
X1285Y1346D03*
G54D24*
X117Y933D02*
X84Y916D01*
X84Y916D02*
X84Y796D01*
X84Y796D02*
X126Y607D01*
D02*
X2165Y1726D02*
X2184Y1708D01*
X2184Y1708D02*
X2268Y1468D01*
X2268Y1468D02*
X2316Y1455D01*
D02*
X2166Y1827D02*
X2268Y1732D01*
X2268Y1732D02*
X2268Y1612D01*
X2268Y1612D02*
X2412Y1612D01*
X2412Y1612D02*
X2412Y1372D01*
X2412Y1372D02*
X2373Y1357D01*
D02*
X1816Y723D02*
X1140Y172D01*
X1140Y172D02*
X1020Y172D01*
X1020Y172D02*
X1020Y892D01*
X1020Y892D02*
X516Y916D01*
X516Y916D02*
X510Y923D01*
D02*
X470Y665D02*
X348Y772D01*
X348Y772D02*
X345Y1317D01*
D02*
X471Y566D02*
X252Y772D01*
X252Y772D02*
X245Y1317D01*
D02*
X1602Y1719D02*
X1596Y1708D01*
X1596Y1708D02*
X1188Y1672D01*
X1188Y1672D02*
X1164Y1708D01*
X1164Y1708D02*
X420Y1708D01*
X420Y1708D02*
X420Y796D01*
X420Y796D02*
X468Y763D01*
D02*
X1111Y268D02*
X1572Y820D01*
X1572Y820D02*
X1788Y916D01*
X1788Y916D02*
X1788Y1804D01*
X1788Y1804D02*
X1821Y1829D01*
D02*
X84Y1271D02*
X84Y1804D01*
X84Y1804D02*
X1020Y1804D01*
X1020Y1804D02*
X1020Y2116D01*
X1020Y2116D02*
X1026Y2124D01*
D02*
X1277Y775D02*
X1152Y1276D01*
X1152Y1276D02*
X1111Y1324D01*
D02*
X156Y1320D02*
X204Y1204D01*
X204Y1204D02*
X36Y1204D01*
X36Y1204D02*
X36Y1852D01*
X36Y1852D02*
X905Y1876D01*
D02*
X967Y1348D02*
X1063Y1347D01*
D02*
X2116Y1949D02*
X1908Y1972D01*
X1908Y1972D02*
X1908Y2020D01*
X1908Y2020D02*
X1764Y2020D01*
X1764Y2020D02*
X1692Y1684D01*
X1692Y1684D02*
X1117Y1360D01*
D02*
X1967Y1886D02*
X1863Y1768D01*
D02*
X1633Y323D02*
X1562Y181D01*
D02*
X1672Y758D02*
X1764Y796D01*
X1764Y796D02*
X1812Y796D01*
X1812Y796D02*
X1812Y820D01*
X1812Y820D02*
X1908Y820D01*
X1908Y820D02*
X1908Y700D01*
X1908Y700D02*
X1660Y367D01*
D02*
X2108Y739D02*
X1908Y700D01*
D02*
X1852Y1618D02*
X1908Y1396D01*
X1908Y1396D02*
X1908Y1276D01*
X1908Y1276D02*
X1836Y820D01*
X1836Y820D02*
X1812Y796D01*
D02*
X1322Y1776D02*
X1356Y2068D01*
X1356Y2068D02*
X1956Y2068D01*
X1956Y2068D02*
X2196Y2020D01*
X2196Y2020D02*
X2460Y1660D01*
X2460Y1660D02*
X2460Y1300D01*
X2460Y1300D02*
X2412Y1276D01*
X2412Y1276D02*
X1908Y1276D01*
D02*
X1149Y2076D02*
X1304Y1773D01*
D02*
X461Y2069D02*
X492Y2116D01*
X492Y2116D02*
X732Y2068D01*
X732Y2068D02*
X732Y2069D01*
D02*
X224Y231D02*
X540Y172D01*
X540Y172D02*
X820Y803D01*
D02*
X957Y976D02*
X515Y1328D01*
D02*
X3118Y2004D02*
X2460Y1660D01*
G54D25*
D02*
G04 End of Copper1*
M02*