; NON-PLATED HOLES START AT T1
; THROUGH (PLATED) HOLES START AT T100
M48
INCH
T100C0.030000
T101C0.015748
T102C0.055118
T103C0.036000
T104C0.035000
T105C0.139389
T106C0.038000
T107C0.031497
T108C0.051181
%
T100
X017446Y003460
X016444Y003460
T101
X019800Y019004
X000839Y012524
X009720Y009644
X008280Y008204
X009480Y013484
X011400Y020924
X009240Y018764
T102
X019184Y001460
X015444Y001460
T103
X010918Y006460
X004918Y005460
X010918Y011460
X010918Y014460
X004918Y004460
X004918Y011460
X004918Y002460
X010918Y003460
X004918Y013460
X004918Y015460
X010918Y016460
X010918Y009460
X004918Y009460
X004918Y012460
X010918Y007460
X004918Y007460
X010918Y005460
X010918Y008460
X004918Y014460
X004918Y008460
X004918Y016460
X010918Y015460
X004918Y006460
X010918Y004460
X004918Y010460
X010918Y012460
X004918Y003460
X010918Y010460
X010918Y013460
X010918Y002460
T104
X002444Y013460
X001444Y017460
X014444Y021460
X003444Y013460
X018444Y017460
X003444Y017460
X010444Y021460
X021444Y019460
X002444Y017460
X001444Y013460
X018444Y019460
X021444Y018460
X021444Y016460
X018444Y016460
X018444Y018460
X021444Y017460
T105
X001444Y002460
X001437Y005279
T106
X023444Y014460
X031445Y020176
X016444Y007460
X016444Y013460
X023571Y002464
X031444Y002460
X016176Y017454
X001444Y010460
X001444Y008460
X012844Y013460
X001444Y009460
X013181Y017460
X012844Y007460
X023444Y015460
X023444Y013460
X023569Y020177
T107
X007460Y020460
X004460Y020460
X008444Y020460
X002444Y020460
X001460Y020460
X005444Y020460
T108
X018444Y013460
X021444Y014460
X021444Y007460
X018444Y007460
X021444Y011460
T00
M30
