G04 MADE WITH FRITZING*
G04 WWW.FRITZING.ORG*
G04 DOUBLE SIDED*
G04 HOLES PLATED*
G04 CONTOUR ON CENTER OF CONTOUR VECTOR*
%ASAXBY*%
%FSLAX23Y23*%
%MOIN*%
%OFA0B0*%
%SFA1.0B1.0*%
%ADD10C,0.080000*%
%ADD11C,0.072992*%
%ADD12C,0.085000*%
%ADD13C,0.088000*%
%ADD14C,0.085118*%
%ADD15C,0.081181*%
%ADD16C,0.139389*%
%ADD17C,0.049370*%
%ADD18R,0.079972X0.080000*%
%ADD19R,0.072992X0.072992*%
%ADD20R,0.090000X0.090000*%
%ADD21R,0.088000X0.088000*%
%ADD22R,0.085000X0.085000*%
%ADD23R,0.087806X0.087630*%
%ADD24R,0.001000X0.001000*%
%LNMASK1*%
G90*
G70*
G54D10*
X492Y1646D03*
X492Y1546D03*
X492Y1446D03*
X492Y1346D03*
X492Y1246D03*
X492Y1146D03*
X492Y1046D03*
X492Y946D03*
X492Y846D03*
X492Y746D03*
X492Y646D03*
X492Y546D03*
X492Y446D03*
X492Y346D03*
X492Y246D03*
X1092Y1646D03*
X1092Y1546D03*
X1092Y1446D03*
X1092Y1346D03*
X1092Y1246D03*
X1092Y1146D03*
X1092Y1046D03*
X1092Y946D03*
X1092Y846D03*
X1092Y746D03*
X1092Y646D03*
X1092Y546D03*
X1092Y446D03*
X1092Y346D03*
X1092Y246D03*
G54D11*
X544Y2046D03*
X446Y2046D03*
X844Y2046D03*
X746Y2046D03*
X244Y2046D03*
X146Y2046D03*
G54D12*
X144Y1346D03*
X144Y1746D03*
X344Y1346D03*
X344Y1746D03*
X244Y1346D03*
X244Y1746D03*
G54D13*
X2357Y246D03*
X3144Y246D03*
X2357Y2018D03*
X3145Y2018D03*
X2344Y1546D03*
X2344Y1446D03*
X2344Y1346D03*
G54D12*
X1844Y1946D03*
X2144Y1946D03*
X1844Y1846D03*
X2144Y1846D03*
X1844Y1746D03*
X2144Y1746D03*
X1844Y1646D03*
X2144Y1646D03*
X1444Y2146D03*
X1044Y2146D03*
G54D14*
X1918Y146D03*
X1544Y146D03*
X1918Y146D03*
X1544Y146D03*
G54D15*
X1844Y1346D03*
X1844Y746D03*
X2144Y746D03*
X2144Y1446D03*
X2144Y1146D03*
X1844Y1346D03*
X1844Y746D03*
X2144Y746D03*
X2144Y1446D03*
X2144Y1146D03*
G54D10*
X1745Y346D03*
X1644Y346D03*
G54D13*
X144Y1046D03*
X144Y946D03*
X144Y846D03*
G54D16*
X144Y246D03*
X144Y528D03*
G54D13*
X1644Y1346D03*
X1284Y1346D03*
X1284Y746D03*
X1644Y746D03*
X1318Y1746D03*
X1618Y1745D03*
G54D17*
X84Y1252D03*
X972Y964D03*
X828Y820D03*
X1140Y2092D03*
X1980Y1900D03*
X948Y1348D03*
X924Y1876D03*
G54D18*
X492Y1646D03*
G54D19*
X544Y2046D03*
X844Y2046D03*
X244Y2046D03*
G54D20*
X3145Y247D03*
G54D21*
X2357Y247D03*
X2357Y2018D03*
X3144Y2018D03*
X2344Y1546D03*
G54D22*
X1844Y1946D03*
G54D21*
X144Y1046D03*
G54D23*
X1285Y746D03*
X1644Y746D03*
X1645Y1346D03*
X1285Y1346D03*
G54D24*
X130Y683D02*
X157Y683D01*
X123Y682D02*
X164Y682D01*
X117Y681D02*
X169Y681D01*
X113Y680D02*
X174Y680D01*
X109Y679D02*
X178Y679D01*
X105Y678D02*
X181Y678D01*
X102Y677D02*
X185Y677D01*
X99Y676D02*
X188Y676D01*
X96Y675D02*
X191Y675D01*
X93Y674D02*
X194Y674D01*
X90Y673D02*
X196Y673D01*
X88Y672D02*
X199Y672D01*
X85Y671D02*
X201Y671D01*
X83Y670D02*
X204Y670D01*
X80Y669D02*
X206Y669D01*
X78Y668D02*
X208Y668D01*
X76Y667D02*
X210Y667D01*
X74Y666D02*
X212Y666D01*
X72Y665D02*
X214Y665D01*
X70Y664D02*
X216Y664D01*
X68Y663D02*
X218Y663D01*
X66Y662D02*
X220Y662D01*
X65Y661D02*
X222Y661D01*
X63Y660D02*
X224Y660D01*
X61Y659D02*
X225Y659D01*
X59Y658D02*
X227Y658D01*
X58Y657D02*
X229Y657D01*
X56Y656D02*
X230Y656D01*
X55Y655D02*
X232Y655D01*
X53Y654D02*
X233Y654D01*
X52Y653D02*
X235Y653D01*
X50Y652D02*
X236Y652D01*
X49Y651D02*
X238Y651D01*
X48Y650D02*
X239Y650D01*
X46Y649D02*
X240Y649D01*
X45Y648D02*
X242Y648D01*
X44Y647D02*
X243Y647D01*
X42Y646D02*
X244Y646D01*
X41Y645D02*
X245Y645D01*
X40Y644D02*
X247Y644D01*
X39Y643D02*
X248Y643D01*
X38Y642D02*
X249Y642D01*
X37Y641D02*
X250Y641D01*
X35Y640D02*
X251Y640D01*
X34Y639D02*
X252Y639D01*
X33Y638D02*
X253Y638D01*
X32Y637D02*
X254Y637D01*
X32Y636D02*
X255Y636D01*
X31Y635D02*
X256Y635D01*
X30Y634D02*
X257Y634D01*
X29Y633D02*
X258Y633D01*
X28Y632D02*
X258Y632D01*
X27Y631D02*
X259Y631D01*
X26Y630D02*
X260Y630D01*
X25Y629D02*
X261Y629D01*
X25Y628D02*
X262Y628D01*
X24Y627D02*
X263Y627D01*
X23Y626D02*
X263Y626D01*
X22Y625D02*
X264Y625D01*
X22Y624D02*
X265Y624D01*
X21Y623D02*
X266Y623D01*
X20Y622D02*
X266Y622D01*
X19Y621D02*
X267Y621D01*
X19Y620D02*
X268Y620D01*
X18Y619D02*
X268Y619D01*
X17Y618D02*
X269Y618D01*
X17Y617D02*
X270Y617D01*
X16Y616D02*
X270Y616D01*
X15Y615D02*
X271Y615D01*
X15Y614D02*
X272Y614D01*
X14Y613D02*
X272Y613D01*
X14Y612D02*
X273Y612D01*
X13Y611D02*
X273Y611D01*
X12Y610D02*
X274Y610D01*
X12Y609D02*
X275Y609D01*
X11Y608D02*
X275Y608D01*
X11Y607D02*
X276Y607D01*
X10Y606D02*
X276Y606D01*
X10Y605D02*
X277Y605D01*
X9Y604D02*
X277Y604D01*
X9Y603D02*
X278Y603D01*
X8Y602D02*
X278Y602D01*
X8Y601D02*
X279Y601D01*
X7Y600D02*
X279Y600D01*
X7Y599D02*
X280Y599D01*
X6Y598D02*
X280Y598D01*
X6Y597D02*
X281Y597D01*
X5Y596D02*
X281Y596D01*
X5Y595D02*
X282Y595D01*
X4Y594D02*
X282Y594D01*
X4Y593D02*
X283Y593D01*
X3Y592D02*
X283Y592D01*
X3Y591D02*
X284Y591D01*
X2Y590D02*
X284Y590D01*
X2Y589D02*
X285Y589D01*
X1Y588D02*
X285Y588D01*
X1Y587D02*
X285Y587D01*
X1Y586D02*
X286Y586D01*
X0Y585D02*
X286Y585D01*
X0Y584D02*
X287Y584D01*
X0Y583D02*
X287Y583D01*
X0Y582D02*
X287Y582D01*
X0Y581D02*
X288Y581D01*
X0Y580D02*
X288Y580D01*
X0Y579D02*
X289Y579D01*
X0Y578D02*
X289Y578D01*
X0Y577D02*
X289Y577D01*
X0Y576D02*
X290Y576D01*
X0Y575D02*
X290Y575D01*
X0Y574D02*
X290Y574D01*
X0Y573D02*
X291Y573D01*
X0Y572D02*
X291Y572D01*
X0Y571D02*
X291Y571D01*
X0Y570D02*
X292Y570D01*
X0Y569D02*
X292Y569D01*
X0Y568D02*
X292Y568D01*
X0Y567D02*
X292Y567D01*
X0Y566D02*
X293Y566D01*
X0Y565D02*
X293Y565D01*
X0Y564D02*
X293Y564D01*
X0Y563D02*
X294Y563D01*
X0Y562D02*
X294Y562D01*
X0Y561D02*
X294Y561D01*
X0Y560D02*
X294Y560D01*
X0Y559D02*
X295Y559D01*
X0Y558D02*
X295Y558D01*
X0Y557D02*
X295Y557D01*
X0Y556D02*
X295Y556D01*
X0Y555D02*
X295Y555D01*
X0Y554D02*
X296Y554D01*
X0Y553D02*
X296Y553D01*
X0Y552D02*
X296Y552D01*
X0Y551D02*
X296Y551D01*
X0Y550D02*
X296Y550D01*
X0Y549D02*
X297Y549D01*
X0Y548D02*
X297Y548D01*
X0Y547D02*
X297Y547D01*
X0Y546D02*
X297Y546D01*
X0Y545D02*
X297Y545D01*
X0Y544D02*
X297Y544D01*
X0Y543D02*
X297Y543D01*
X0Y542D02*
X298Y542D01*
X0Y541D02*
X298Y541D01*
X0Y540D02*
X298Y540D01*
X0Y539D02*
X298Y539D01*
X0Y538D02*
X298Y538D01*
X0Y537D02*
X298Y537D01*
X0Y536D02*
X298Y536D01*
X0Y535D02*
X298Y535D01*
X0Y534D02*
X298Y534D01*
X0Y533D02*
X298Y533D01*
X0Y532D02*
X298Y532D01*
X0Y531D02*
X298Y531D01*
X0Y530D02*
X298Y530D01*
X0Y529D02*
X298Y529D01*
X0Y528D02*
X298Y528D01*
X0Y527D02*
X298Y527D01*
X0Y526D02*
X298Y526D01*
X0Y525D02*
X298Y525D01*
X0Y524D02*
X298Y524D01*
X0Y523D02*
X298Y523D01*
X0Y522D02*
X298Y522D01*
X0Y521D02*
X298Y521D01*
X0Y520D02*
X298Y520D01*
X0Y519D02*
X298Y519D01*
X0Y518D02*
X298Y518D01*
X0Y517D02*
X298Y517D01*
X0Y516D02*
X298Y516D01*
X0Y515D02*
X298Y515D01*
X0Y514D02*
X297Y514D01*
X0Y513D02*
X297Y513D01*
X0Y512D02*
X297Y512D01*
X0Y511D02*
X297Y511D01*
X0Y510D02*
X297Y510D01*
X0Y509D02*
X297Y509D01*
X0Y508D02*
X297Y508D01*
X0Y507D02*
X296Y507D01*
X0Y506D02*
X296Y506D01*
X0Y505D02*
X296Y505D01*
X0Y504D02*
X296Y504D01*
X0Y503D02*
X296Y503D01*
X0Y502D02*
X295Y502D01*
X0Y501D02*
X295Y501D01*
X0Y500D02*
X295Y500D01*
X0Y499D02*
X295Y499D01*
X0Y498D02*
X295Y498D01*
X0Y497D02*
X294Y497D01*
X0Y496D02*
X294Y496D01*
X0Y495D02*
X294Y495D01*
X0Y494D02*
X294Y494D01*
X0Y493D02*
X293Y493D01*
X0Y492D02*
X293Y492D01*
X0Y491D02*
X293Y491D01*
X0Y490D02*
X293Y490D01*
X0Y489D02*
X292Y489D01*
X0Y488D02*
X292Y488D01*
X0Y487D02*
X292Y487D01*
X0Y486D02*
X291Y486D01*
X0Y485D02*
X291Y485D01*
X0Y484D02*
X291Y484D01*
X0Y483D02*
X290Y483D01*
X0Y482D02*
X290Y482D01*
X0Y481D02*
X290Y481D01*
X0Y480D02*
X289Y480D01*
X0Y479D02*
X289Y479D01*
X0Y478D02*
X289Y478D01*
X0Y477D02*
X288Y477D01*
X0Y476D02*
X288Y476D01*
X0Y475D02*
X288Y475D01*
X0Y474D02*
X287Y474D01*
X0Y473D02*
X287Y473D01*
X0Y472D02*
X286Y472D01*
X0Y471D02*
X286Y471D01*
X1Y470D02*
X286Y470D01*
X1Y469D02*
X285Y469D01*
X2Y468D02*
X285Y468D01*
X2Y467D02*
X284Y467D01*
X3Y466D02*
X284Y466D01*
X3Y465D02*
X283Y465D01*
X3Y464D02*
X283Y464D01*
X4Y463D02*
X283Y463D01*
X4Y462D02*
X282Y462D01*
X5Y461D02*
X282Y461D01*
X5Y460D02*
X281Y460D01*
X6Y459D02*
X281Y459D01*
X6Y458D02*
X280Y458D01*
X7Y457D02*
X280Y457D01*
X7Y456D02*
X279Y456D01*
X8Y455D02*
X279Y455D01*
X8Y454D02*
X278Y454D01*
X9Y453D02*
X278Y453D01*
X9Y452D02*
X277Y452D01*
X10Y451D02*
X277Y451D01*
X11Y450D02*
X276Y450D01*
X11Y449D02*
X275Y449D01*
X12Y448D02*
X275Y448D01*
X12Y447D02*
X274Y447D01*
X13Y446D02*
X274Y446D01*
X13Y445D02*
X273Y445D01*
X14Y444D02*
X272Y444D01*
X15Y443D02*
X272Y443D01*
X15Y442D02*
X271Y442D01*
X16Y441D02*
X271Y441D01*
X17Y440D02*
X270Y440D01*
X17Y439D02*
X269Y439D01*
X18Y438D02*
X269Y438D01*
X19Y437D02*
X268Y437D01*
X19Y436D02*
X267Y436D01*
X20Y435D02*
X267Y435D01*
X21Y434D02*
X266Y434D01*
X21Y433D02*
X265Y433D01*
X22Y432D02*
X264Y432D01*
X23Y431D02*
X264Y431D01*
X24Y430D02*
X263Y430D01*
X24Y429D02*
X262Y429D01*
X25Y428D02*
X261Y428D01*
X26Y427D02*
X261Y427D01*
X27Y426D02*
X260Y426D01*
X28Y425D02*
X259Y425D01*
X28Y424D02*
X258Y424D01*
X29Y423D02*
X257Y423D01*
X30Y422D02*
X256Y422D01*
X31Y421D02*
X255Y421D01*
X32Y420D02*
X254Y420D01*
X33Y419D02*
X253Y419D01*
X34Y418D02*
X252Y418D01*
X35Y417D02*
X251Y417D01*
X36Y416D02*
X250Y416D01*
X37Y415D02*
X249Y415D01*
X38Y414D02*
X248Y414D01*
X39Y413D02*
X247Y413D01*
X41Y412D02*
X246Y412D01*
X42Y411D02*
X245Y411D01*
X43Y410D02*
X243Y410D01*
X44Y409D02*
X242Y409D01*
X46Y408D02*
X241Y408D01*
X47Y407D02*
X239Y407D01*
X48Y406D02*
X238Y406D01*
X50Y405D02*
X237Y405D01*
X51Y404D02*
X235Y404D01*
X53Y403D02*
X234Y403D01*
X54Y402D02*
X232Y402D01*
X56Y401D02*
X231Y401D01*
X57Y400D02*
X229Y400D01*
X59Y399D02*
X228Y399D01*
X60Y398D02*
X226Y398D01*
X62Y397D02*
X224Y397D01*
X64Y396D02*
X223Y396D01*
X66Y395D02*
X221Y395D01*
X67Y394D02*
X219Y394D01*
X69Y393D02*
X217Y393D01*
X71Y392D02*
X215Y392D01*
X73Y391D02*
X213Y391D01*
X75Y390D02*
X211Y390D01*
X77Y389D02*
X209Y389D01*
X80Y388D02*
X207Y388D01*
X81Y387D02*
X207Y387D01*
X78Y386D02*
X209Y386D01*
X76Y385D02*
X212Y385D01*
X74Y384D02*
X214Y384D01*
X72Y383D02*
X216Y383D01*
X70Y382D02*
X218Y382D01*
X68Y381D02*
X219Y381D01*
X67Y380D02*
X221Y380D01*
X65Y379D02*
X223Y379D01*
X63Y378D02*
X225Y378D01*
X61Y377D02*
X226Y377D01*
X60Y376D02*
X228Y376D01*
X58Y375D02*
X230Y375D01*
X57Y374D02*
X231Y374D01*
X55Y373D02*
X233Y373D01*
X54Y372D02*
X234Y372D01*
X52Y371D02*
X236Y371D01*
X51Y370D02*
X237Y370D01*
X49Y369D02*
X239Y369D01*
X48Y368D02*
X240Y368D01*
X47Y367D02*
X241Y367D01*
X45Y366D02*
X243Y366D01*
X44Y365D02*
X244Y365D01*
X43Y364D02*
X245Y364D01*
X42Y363D02*
X246Y363D01*
X40Y362D02*
X247Y362D01*
X39Y361D02*
X249Y361D01*
X38Y360D02*
X250Y360D01*
X37Y359D02*
X251Y359D01*
X36Y358D02*
X252Y358D01*
X35Y357D02*
X253Y357D01*
X34Y356D02*
X254Y356D01*
X33Y355D02*
X255Y355D01*
X32Y354D02*
X256Y354D01*
X31Y353D02*
X257Y353D01*
X30Y352D02*
X258Y352D01*
X29Y351D02*
X259Y351D01*
X28Y350D02*
X259Y350D01*
X28Y349D02*
X260Y349D01*
X27Y348D02*
X261Y348D01*
X26Y347D02*
X262Y347D01*
X25Y346D02*
X263Y346D01*
X24Y345D02*
X263Y345D01*
X24Y344D02*
X264Y344D01*
X23Y343D02*
X265Y343D01*
X22Y342D02*
X266Y342D01*
X21Y341D02*
X266Y341D01*
X21Y340D02*
X267Y340D01*
X20Y339D02*
X268Y339D01*
X19Y338D02*
X268Y338D01*
X19Y337D02*
X269Y337D01*
X18Y336D02*
X270Y336D01*
X17Y335D02*
X271Y335D01*
X17Y334D02*
X271Y334D01*
X16Y333D02*
X272Y333D01*
X15Y332D02*
X272Y332D01*
X15Y331D02*
X273Y331D01*
X14Y330D02*
X274Y330D01*
X14Y329D02*
X274Y329D01*
X13Y328D02*
X275Y328D01*
X12Y327D02*
X275Y327D01*
X12Y326D02*
X276Y326D01*
X11Y325D02*
X277Y325D01*
X11Y324D02*
X277Y324D01*
X10Y323D02*
X278Y323D01*
X10Y322D02*
X278Y322D01*
X9Y321D02*
X279Y321D01*
X9Y320D02*
X279Y320D01*
X8Y319D02*
X280Y319D01*
X8Y318D02*
X280Y318D01*
X7Y317D02*
X281Y317D01*
X7Y316D02*
X281Y316D01*
X6Y315D02*
X282Y315D01*
X6Y314D02*
X282Y314D01*
X5Y313D02*
X283Y313D01*
X5Y312D02*
X283Y312D01*
X4Y311D02*
X284Y311D01*
X4Y310D02*
X284Y310D01*
X3Y309D02*
X284Y309D01*
X3Y308D02*
X285Y308D01*
X2Y307D02*
X285Y307D01*
X2Y306D02*
X286Y306D01*
X2Y305D02*
X286Y305D01*
X1Y304D02*
X287Y304D01*
X1Y303D02*
X287Y303D01*
X0Y302D02*
X287Y302D01*
X0Y301D02*
X288Y301D01*
X0Y300D02*
X288Y300D01*
X0Y299D02*
X289Y299D01*
X0Y298D02*
X289Y298D01*
X0Y297D02*
X289Y297D01*
X0Y296D02*
X290Y296D01*
X0Y295D02*
X290Y295D01*
X0Y294D02*
X290Y294D01*
X0Y293D02*
X291Y293D01*
X0Y292D02*
X291Y292D01*
X0Y291D02*
X291Y291D01*
X0Y290D02*
X292Y290D01*
X0Y289D02*
X292Y289D01*
X0Y288D02*
X292Y288D01*
X0Y287D02*
X293Y287D01*
X0Y286D02*
X293Y286D01*
X0Y285D02*
X293Y285D01*
X0Y284D02*
X293Y284D01*
X0Y283D02*
X294Y283D01*
X0Y282D02*
X294Y282D01*
X0Y281D02*
X294Y281D01*
X0Y280D02*
X295Y280D01*
X0Y279D02*
X295Y279D01*
X0Y278D02*
X295Y278D01*
X0Y277D02*
X295Y277D01*
X0Y276D02*
X295Y276D01*
X0Y275D02*
X296Y275D01*
X0Y274D02*
X296Y274D01*
X0Y273D02*
X296Y273D01*
X0Y272D02*
X296Y272D01*
X0Y271D02*
X297Y271D01*
X0Y270D02*
X297Y270D01*
X0Y269D02*
X297Y269D01*
X0Y268D02*
X297Y268D01*
X0Y267D02*
X297Y267D01*
X0Y266D02*
X297Y266D01*
X0Y265D02*
X298Y265D01*
X0Y264D02*
X298Y264D01*
X0Y263D02*
X298Y263D01*
X0Y262D02*
X298Y262D01*
X0Y261D02*
X298Y261D01*
X0Y260D02*
X298Y260D01*
X0Y259D02*
X298Y259D01*
X0Y258D02*
X298Y258D01*
X0Y257D02*
X298Y257D01*
X0Y256D02*
X299Y256D01*
X0Y255D02*
X299Y255D01*
X0Y254D02*
X299Y254D01*
X0Y253D02*
X299Y253D01*
X0Y252D02*
X299Y252D01*
X0Y251D02*
X299Y251D01*
X0Y250D02*
X299Y250D01*
X0Y249D02*
X299Y249D01*
X0Y248D02*
X299Y248D01*
X0Y247D02*
X299Y247D01*
X0Y246D02*
X299Y246D01*
X0Y245D02*
X299Y245D01*
X0Y244D02*
X299Y244D01*
X0Y243D02*
X299Y243D01*
X0Y242D02*
X299Y242D01*
X0Y241D02*
X299Y241D01*
X0Y240D02*
X299Y240D01*
X0Y239D02*
X299Y239D01*
X0Y238D02*
X299Y238D01*
X0Y237D02*
X299Y237D01*
X0Y236D02*
X298Y236D01*
X0Y235D02*
X298Y235D01*
X0Y234D02*
X298Y234D01*
X0Y233D02*
X298Y233D01*
X0Y232D02*
X298Y232D01*
X0Y231D02*
X298Y231D01*
X0Y230D02*
X298Y230D01*
X0Y229D02*
X298Y229D01*
X0Y228D02*
X298Y228D01*
X0Y227D02*
X297Y227D01*
X0Y226D02*
X297Y226D01*
X0Y225D02*
X297Y225D01*
X0Y224D02*
X297Y224D01*
X0Y223D02*
X297Y223D01*
X0Y222D02*
X297Y222D01*
X0Y221D02*
X296Y221D01*
X0Y220D02*
X296Y220D01*
X0Y219D02*
X296Y219D01*
X0Y218D02*
X296Y218D01*
X0Y217D02*
X295Y217D01*
X0Y216D02*
X295Y216D01*
X0Y215D02*
X295Y215D01*
X0Y214D02*
X295Y214D01*
X0Y213D02*
X295Y213D01*
X0Y212D02*
X294Y212D01*
X0Y211D02*
X294Y211D01*
X0Y210D02*
X294Y210D01*
X0Y209D02*
X293Y209D01*
X0Y208D02*
X293Y208D01*
X0Y207D02*
X293Y207D01*
X0Y206D02*
X293Y206D01*
X0Y205D02*
X292Y205D01*
X0Y204D02*
X292Y204D01*
X0Y203D02*
X292Y203D01*
X0Y202D02*
X291Y202D01*
X0Y201D02*
X291Y201D01*
X0Y200D02*
X291Y200D01*
X0Y199D02*
X290Y199D01*
X0Y198D02*
X290Y198D01*
X0Y197D02*
X290Y197D01*
X0Y196D02*
X289Y196D01*
X0Y195D02*
X289Y195D01*
X0Y194D02*
X289Y194D01*
X0Y193D02*
X288Y193D01*
X0Y192D02*
X288Y192D01*
X0Y191D02*
X287Y191D01*
X1Y190D02*
X287Y190D01*
X1Y189D02*
X287Y189D01*
X2Y188D02*
X286Y188D01*
X2Y187D02*
X286Y187D01*
X2Y186D02*
X285Y186D01*
X3Y185D02*
X285Y185D01*
X3Y184D02*
X284Y184D01*
X4Y183D02*
X284Y183D01*
X4Y182D02*
X284Y182D01*
X5Y181D02*
X283Y181D01*
X5Y180D02*
X283Y180D01*
X6Y179D02*
X282Y179D01*
X6Y178D02*
X282Y178D01*
X7Y177D02*
X281Y177D01*
X7Y176D02*
X281Y176D01*
X8Y175D02*
X280Y175D01*
X8Y174D02*
X280Y174D01*
X9Y173D02*
X279Y173D01*
X9Y172D02*
X279Y172D01*
X10Y171D02*
X278Y171D01*
X10Y170D02*
X278Y170D01*
X11Y169D02*
X277Y169D01*
X11Y168D02*
X277Y168D01*
X12Y167D02*
X276Y167D01*
X12Y166D02*
X275Y166D01*
X13Y165D02*
X275Y165D01*
X14Y164D02*
X274Y164D01*
X14Y163D02*
X274Y163D01*
X15Y162D02*
X273Y162D01*
X15Y161D02*
X272Y161D01*
X16Y160D02*
X272Y160D01*
X17Y159D02*
X271Y159D01*
X17Y158D02*
X271Y158D01*
X18Y157D02*
X270Y157D01*
X19Y156D02*
X269Y156D01*
X19Y155D02*
X268Y155D01*
X20Y154D02*
X268Y154D01*
X21Y153D02*
X267Y153D01*
X21Y152D02*
X266Y152D01*
X22Y151D02*
X266Y151D01*
X23Y150D02*
X265Y150D01*
X24Y149D02*
X264Y149D01*
X24Y148D02*
X263Y148D01*
X25Y147D02*
X263Y147D01*
X26Y146D02*
X262Y146D01*
X27Y145D02*
X261Y145D01*
X28Y144D02*
X260Y144D01*
X28Y143D02*
X259Y143D01*
X29Y142D02*
X258Y142D01*
X30Y141D02*
X258Y141D01*
X31Y140D02*
X257Y140D01*
X32Y139D02*
X256Y139D01*
X33Y138D02*
X255Y138D01*
X34Y137D02*
X254Y137D01*
X35Y136D02*
X253Y136D01*
X36Y135D02*
X252Y135D01*
X37Y134D02*
X251Y134D01*
X38Y133D02*
X250Y133D01*
X39Y132D02*
X249Y132D01*
X40Y131D02*
X247Y131D01*
X42Y130D02*
X246Y130D01*
X43Y129D02*
X245Y129D01*
X44Y128D02*
X244Y128D01*
X45Y127D02*
X243Y127D01*
X47Y126D02*
X241Y126D01*
X48Y125D02*
X240Y125D01*
X49Y124D02*
X239Y124D01*
X51Y123D02*
X237Y123D01*
X52Y122D02*
X236Y122D01*
X54Y121D02*
X234Y121D01*
X55Y120D02*
X233Y120D01*
X57Y119D02*
X231Y119D01*
X58Y118D02*
X230Y118D01*
X60Y117D02*
X228Y117D01*
X61Y116D02*
X226Y116D01*
X63Y115D02*
X225Y115D01*
X65Y114D02*
X223Y114D01*
X67Y113D02*
X221Y113D01*
X68Y112D02*
X219Y112D01*
X70Y111D02*
X217Y111D01*
X72Y110D02*
X215Y110D01*
X74Y109D02*
X213Y109D01*
X76Y108D02*
X211Y108D01*
X79Y107D02*
X209Y107D01*
X81Y106D02*
X207Y106D01*
X83Y105D02*
X205Y105D01*
X85Y104D02*
X203Y104D01*
X88Y103D02*
X200Y103D01*
X90Y102D02*
X198Y102D01*
X93Y101D02*
X195Y101D01*
X96Y100D02*
X192Y100D01*
X99Y99D02*
X189Y99D01*
X102Y98D02*
X186Y98D01*
X105Y97D02*
X183Y97D01*
X109Y96D02*
X179Y96D01*
X113Y95D02*
X175Y95D01*
X117Y94D02*
X171Y94D01*
X122Y93D02*
X166Y93D01*
X129Y92D02*
X159Y92D01*
X142Y91D02*
X146Y91D01*
D02*
G04 End of Mask1*
M02*