G04 MADE WITH FRITZING*
G04 WWW.FRITZING.ORG*
G04 DOUBLE SIDED*
G04 HOLES PLATED*
G04 CONTOUR ON CENTER OF CONTOUR VECTOR*
%ASAXBY*%
%FSLAX23Y23*%
%MOIN*%
%OFA0B0*%
%SFA1.0B1.0*%
%ADD10R,0.001000X0.001000*%
%LNSILK0*%
G90*
G70*
G54D10*
X0Y2224D02*
X3247Y2224D01*
X0Y2223D02*
X3247Y2223D01*
X0Y2222D02*
X3247Y2222D01*
X0Y2221D02*
X3247Y2221D01*
X0Y2220D02*
X3247Y2220D01*
X0Y2219D02*
X3247Y2219D01*
X0Y2218D02*
X3247Y2218D01*
X0Y2217D02*
X3247Y2217D01*
X0Y2216D02*
X7Y2216D01*
X3240Y2216D02*
X3247Y2216D01*
X0Y2215D02*
X7Y2215D01*
X3240Y2215D02*
X3247Y2215D01*
X0Y2214D02*
X7Y2214D01*
X3240Y2214D02*
X3247Y2214D01*
X0Y2213D02*
X7Y2213D01*
X3240Y2213D02*
X3247Y2213D01*
X0Y2212D02*
X7Y2212D01*
X3240Y2212D02*
X3247Y2212D01*
X0Y2211D02*
X7Y2211D01*
X3240Y2211D02*
X3247Y2211D01*
X0Y2210D02*
X7Y2210D01*
X3240Y2210D02*
X3247Y2210D01*
X0Y2209D02*
X7Y2209D01*
X3240Y2209D02*
X3247Y2209D01*
X0Y2208D02*
X7Y2208D01*
X3240Y2208D02*
X3247Y2208D01*
X0Y2207D02*
X7Y2207D01*
X3240Y2207D02*
X3247Y2207D01*
X0Y2206D02*
X7Y2206D01*
X3240Y2206D02*
X3247Y2206D01*
X0Y2205D02*
X7Y2205D01*
X3240Y2205D02*
X3247Y2205D01*
X0Y2204D02*
X7Y2204D01*
X3240Y2204D02*
X3247Y2204D01*
X0Y2203D02*
X7Y2203D01*
X3240Y2203D02*
X3247Y2203D01*
X0Y2202D02*
X7Y2202D01*
X3240Y2202D02*
X3247Y2202D01*
X0Y2201D02*
X7Y2201D01*
X3240Y2201D02*
X3247Y2201D01*
X0Y2200D02*
X7Y2200D01*
X3240Y2200D02*
X3247Y2200D01*
X0Y2199D02*
X7Y2199D01*
X3240Y2199D02*
X3247Y2199D01*
X0Y2198D02*
X7Y2198D01*
X3240Y2198D02*
X3247Y2198D01*
X0Y2197D02*
X7Y2197D01*
X3240Y2197D02*
X3247Y2197D01*
X0Y2196D02*
X7Y2196D01*
X3240Y2196D02*
X3247Y2196D01*
X0Y2195D02*
X7Y2195D01*
X3240Y2195D02*
X3247Y2195D01*
X0Y2194D02*
X7Y2194D01*
X3240Y2194D02*
X3247Y2194D01*
X0Y2193D02*
X7Y2193D01*
X3240Y2193D02*
X3247Y2193D01*
X0Y2192D02*
X7Y2192D01*
X3240Y2192D02*
X3247Y2192D01*
X0Y2191D02*
X7Y2191D01*
X3240Y2191D02*
X3247Y2191D01*
X0Y2190D02*
X7Y2190D01*
X3240Y2190D02*
X3247Y2190D01*
X0Y2189D02*
X7Y2189D01*
X3240Y2189D02*
X3247Y2189D01*
X0Y2188D02*
X7Y2188D01*
X3240Y2188D02*
X3247Y2188D01*
X0Y2187D02*
X7Y2187D01*
X3240Y2187D02*
X3247Y2187D01*
X0Y2186D02*
X7Y2186D01*
X3240Y2186D02*
X3247Y2186D01*
X0Y2185D02*
X7Y2185D01*
X3240Y2185D02*
X3247Y2185D01*
X0Y2184D02*
X7Y2184D01*
X3240Y2184D02*
X3247Y2184D01*
X0Y2183D02*
X7Y2183D01*
X3240Y2183D02*
X3247Y2183D01*
X0Y2182D02*
X7Y2182D01*
X3240Y2182D02*
X3247Y2182D01*
X0Y2181D02*
X7Y2181D01*
X3240Y2181D02*
X3247Y2181D01*
X0Y2180D02*
X7Y2180D01*
X3240Y2180D02*
X3247Y2180D01*
X0Y2179D02*
X7Y2179D01*
X3240Y2179D02*
X3247Y2179D01*
X0Y2178D02*
X7Y2178D01*
X3240Y2178D02*
X3247Y2178D01*
X0Y2177D02*
X7Y2177D01*
X3240Y2177D02*
X3247Y2177D01*
X0Y2176D02*
X7Y2176D01*
X3240Y2176D02*
X3247Y2176D01*
X0Y2175D02*
X7Y2175D01*
X3240Y2175D02*
X3247Y2175D01*
X0Y2174D02*
X7Y2174D01*
X3240Y2174D02*
X3247Y2174D01*
X0Y2173D02*
X7Y2173D01*
X3240Y2173D02*
X3247Y2173D01*
X0Y2172D02*
X7Y2172D01*
X3240Y2172D02*
X3247Y2172D01*
X0Y2171D02*
X7Y2171D01*
X3240Y2171D02*
X3247Y2171D01*
X0Y2170D02*
X7Y2170D01*
X3240Y2170D02*
X3247Y2170D01*
X0Y2169D02*
X7Y2169D01*
X3240Y2169D02*
X3247Y2169D01*
X0Y2168D02*
X7Y2168D01*
X3240Y2168D02*
X3247Y2168D01*
X0Y2167D02*
X7Y2167D01*
X3240Y2167D02*
X3247Y2167D01*
X0Y2166D02*
X7Y2166D01*
X3240Y2166D02*
X3247Y2166D01*
X0Y2165D02*
X7Y2165D01*
X3240Y2165D02*
X3247Y2165D01*
X0Y2164D02*
X7Y2164D01*
X3240Y2164D02*
X3247Y2164D01*
X0Y2163D02*
X7Y2163D01*
X3240Y2163D02*
X3247Y2163D01*
X0Y2162D02*
X7Y2162D01*
X3240Y2162D02*
X3247Y2162D01*
X0Y2161D02*
X7Y2161D01*
X3240Y2161D02*
X3247Y2161D01*
X0Y2160D02*
X7Y2160D01*
X3240Y2160D02*
X3247Y2160D01*
X0Y2159D02*
X7Y2159D01*
X3240Y2159D02*
X3247Y2159D01*
X0Y2158D02*
X7Y2158D01*
X3240Y2158D02*
X3247Y2158D01*
X0Y2157D02*
X7Y2157D01*
X3240Y2157D02*
X3247Y2157D01*
X0Y2156D02*
X7Y2156D01*
X3240Y2156D02*
X3247Y2156D01*
X0Y2155D02*
X7Y2155D01*
X3240Y2155D02*
X3247Y2155D01*
X0Y2154D02*
X7Y2154D01*
X3240Y2154D02*
X3247Y2154D01*
X0Y2153D02*
X7Y2153D01*
X3240Y2153D02*
X3247Y2153D01*
X0Y2152D02*
X7Y2152D01*
X3240Y2152D02*
X3247Y2152D01*
X0Y2151D02*
X7Y2151D01*
X3240Y2151D02*
X3247Y2151D01*
X0Y2150D02*
X7Y2150D01*
X3240Y2150D02*
X3247Y2150D01*
X0Y2149D02*
X7Y2149D01*
X3240Y2149D02*
X3247Y2149D01*
X0Y2148D02*
X7Y2148D01*
X3240Y2148D02*
X3247Y2148D01*
X0Y2147D02*
X7Y2147D01*
X3240Y2147D02*
X3247Y2147D01*
X0Y2146D02*
X7Y2146D01*
X3240Y2146D02*
X3247Y2146D01*
X0Y2145D02*
X7Y2145D01*
X3240Y2145D02*
X3247Y2145D01*
X0Y2144D02*
X7Y2144D01*
X3240Y2144D02*
X3247Y2144D01*
X0Y2143D02*
X7Y2143D01*
X3240Y2143D02*
X3247Y2143D01*
X0Y2142D02*
X7Y2142D01*
X3240Y2142D02*
X3247Y2142D01*
X0Y2141D02*
X7Y2141D01*
X3240Y2141D02*
X3247Y2141D01*
X0Y2140D02*
X7Y2140D01*
X3240Y2140D02*
X3247Y2140D01*
X0Y2139D02*
X7Y2139D01*
X3240Y2139D02*
X3247Y2139D01*
X0Y2138D02*
X7Y2138D01*
X3240Y2138D02*
X3247Y2138D01*
X0Y2137D02*
X7Y2137D01*
X3240Y2137D02*
X3247Y2137D01*
X0Y2136D02*
X7Y2136D01*
X3240Y2136D02*
X3247Y2136D01*
X0Y2135D02*
X7Y2135D01*
X3240Y2135D02*
X3247Y2135D01*
X0Y2134D02*
X7Y2134D01*
X3240Y2134D02*
X3247Y2134D01*
X0Y2133D02*
X7Y2133D01*
X3240Y2133D02*
X3247Y2133D01*
X0Y2132D02*
X7Y2132D01*
X3240Y2132D02*
X3247Y2132D01*
X0Y2131D02*
X7Y2131D01*
X3240Y2131D02*
X3247Y2131D01*
X0Y2130D02*
X7Y2130D01*
X3240Y2130D02*
X3247Y2130D01*
X0Y2129D02*
X7Y2129D01*
X3240Y2129D02*
X3247Y2129D01*
X0Y2128D02*
X7Y2128D01*
X3240Y2128D02*
X3247Y2128D01*
X0Y2127D02*
X7Y2127D01*
X3240Y2127D02*
X3247Y2127D01*
X0Y2126D02*
X7Y2126D01*
X3240Y2126D02*
X3247Y2126D01*
X0Y2125D02*
X7Y2125D01*
X3240Y2125D02*
X3247Y2125D01*
X0Y2124D02*
X7Y2124D01*
X3240Y2124D02*
X3247Y2124D01*
X0Y2123D02*
X7Y2123D01*
X3240Y2123D02*
X3247Y2123D01*
X0Y2122D02*
X7Y2122D01*
X3240Y2122D02*
X3247Y2122D01*
X0Y2121D02*
X7Y2121D01*
X3240Y2121D02*
X3247Y2121D01*
X0Y2120D02*
X7Y2120D01*
X3240Y2120D02*
X3247Y2120D01*
X0Y2119D02*
X7Y2119D01*
X3240Y2119D02*
X3247Y2119D01*
X0Y2118D02*
X7Y2118D01*
X3240Y2118D02*
X3247Y2118D01*
X0Y2117D02*
X7Y2117D01*
X3240Y2117D02*
X3247Y2117D01*
X0Y2116D02*
X7Y2116D01*
X3240Y2116D02*
X3247Y2116D01*
X0Y2115D02*
X7Y2115D01*
X3240Y2115D02*
X3247Y2115D01*
X0Y2114D02*
X7Y2114D01*
X3240Y2114D02*
X3247Y2114D01*
X0Y2113D02*
X7Y2113D01*
X3240Y2113D02*
X3247Y2113D01*
X0Y2112D02*
X7Y2112D01*
X3240Y2112D02*
X3247Y2112D01*
X0Y2111D02*
X7Y2111D01*
X3240Y2111D02*
X3247Y2111D01*
X0Y2110D02*
X7Y2110D01*
X3240Y2110D02*
X3247Y2110D01*
X0Y2109D02*
X7Y2109D01*
X3240Y2109D02*
X3247Y2109D01*
X0Y2108D02*
X7Y2108D01*
X3240Y2108D02*
X3247Y2108D01*
X0Y2107D02*
X7Y2107D01*
X3240Y2107D02*
X3247Y2107D01*
X0Y2106D02*
X7Y2106D01*
X3240Y2106D02*
X3247Y2106D01*
X0Y2105D02*
X7Y2105D01*
X3240Y2105D02*
X3247Y2105D01*
X0Y2104D02*
X7Y2104D01*
X3240Y2104D02*
X3247Y2104D01*
X0Y2103D02*
X7Y2103D01*
X3240Y2103D02*
X3247Y2103D01*
X0Y2102D02*
X7Y2102D01*
X3240Y2102D02*
X3247Y2102D01*
X0Y2101D02*
X7Y2101D01*
X3240Y2101D02*
X3247Y2101D01*
X0Y2100D02*
X7Y2100D01*
X3240Y2100D02*
X3247Y2100D01*
X0Y2099D02*
X7Y2099D01*
X3240Y2099D02*
X3247Y2099D01*
X0Y2098D02*
X7Y2098D01*
X3240Y2098D02*
X3247Y2098D01*
X0Y2097D02*
X7Y2097D01*
X3240Y2097D02*
X3247Y2097D01*
X0Y2096D02*
X7Y2096D01*
X3240Y2096D02*
X3247Y2096D01*
X0Y2095D02*
X7Y2095D01*
X3240Y2095D02*
X3247Y2095D01*
X0Y2094D02*
X7Y2094D01*
X3240Y2094D02*
X3247Y2094D01*
X0Y2093D02*
X7Y2093D01*
X3240Y2093D02*
X3247Y2093D01*
X0Y2092D02*
X7Y2092D01*
X3240Y2092D02*
X3247Y2092D01*
X0Y2091D02*
X7Y2091D01*
X3240Y2091D02*
X3247Y2091D01*
X0Y2090D02*
X7Y2090D01*
X3240Y2090D02*
X3247Y2090D01*
X0Y2089D02*
X7Y2089D01*
X3240Y2089D02*
X3247Y2089D01*
X0Y2088D02*
X7Y2088D01*
X3240Y2088D02*
X3247Y2088D01*
X0Y2087D02*
X7Y2087D01*
X3240Y2087D02*
X3247Y2087D01*
X0Y2086D02*
X7Y2086D01*
X3240Y2086D02*
X3247Y2086D01*
X0Y2085D02*
X7Y2085D01*
X3240Y2085D02*
X3247Y2085D01*
X0Y2084D02*
X7Y2084D01*
X3240Y2084D02*
X3247Y2084D01*
X0Y2083D02*
X7Y2083D01*
X3240Y2083D02*
X3247Y2083D01*
X0Y2082D02*
X7Y2082D01*
X3240Y2082D02*
X3247Y2082D01*
X0Y2081D02*
X7Y2081D01*
X3240Y2081D02*
X3247Y2081D01*
X0Y2080D02*
X7Y2080D01*
X3240Y2080D02*
X3247Y2080D01*
X0Y2079D02*
X7Y2079D01*
X3240Y2079D02*
X3247Y2079D01*
X0Y2078D02*
X7Y2078D01*
X3240Y2078D02*
X3247Y2078D01*
X0Y2077D02*
X7Y2077D01*
X3240Y2077D02*
X3247Y2077D01*
X0Y2076D02*
X7Y2076D01*
X3240Y2076D02*
X3247Y2076D01*
X0Y2075D02*
X7Y2075D01*
X3240Y2075D02*
X3247Y2075D01*
X0Y2074D02*
X7Y2074D01*
X3240Y2074D02*
X3247Y2074D01*
X0Y2073D02*
X7Y2073D01*
X3240Y2073D02*
X3247Y2073D01*
X0Y2072D02*
X7Y2072D01*
X3240Y2072D02*
X3247Y2072D01*
X0Y2071D02*
X7Y2071D01*
X3240Y2071D02*
X3247Y2071D01*
X0Y2070D02*
X7Y2070D01*
X3240Y2070D02*
X3247Y2070D01*
X0Y2069D02*
X7Y2069D01*
X3240Y2069D02*
X3247Y2069D01*
X0Y2068D02*
X7Y2068D01*
X3240Y2068D02*
X3247Y2068D01*
X0Y2067D02*
X7Y2067D01*
X3240Y2067D02*
X3247Y2067D01*
X0Y2066D02*
X7Y2066D01*
X3240Y2066D02*
X3247Y2066D01*
X0Y2065D02*
X7Y2065D01*
X3240Y2065D02*
X3247Y2065D01*
X0Y2064D02*
X7Y2064D01*
X3240Y2064D02*
X3247Y2064D01*
X0Y2063D02*
X7Y2063D01*
X3240Y2063D02*
X3247Y2063D01*
X0Y2062D02*
X7Y2062D01*
X3240Y2062D02*
X3247Y2062D01*
X0Y2061D02*
X7Y2061D01*
X3240Y2061D02*
X3247Y2061D01*
X0Y2060D02*
X7Y2060D01*
X3240Y2060D02*
X3247Y2060D01*
X0Y2059D02*
X7Y2059D01*
X3240Y2059D02*
X3247Y2059D01*
X0Y2058D02*
X7Y2058D01*
X3240Y2058D02*
X3247Y2058D01*
X0Y2057D02*
X7Y2057D01*
X3240Y2057D02*
X3247Y2057D01*
X0Y2056D02*
X7Y2056D01*
X3240Y2056D02*
X3247Y2056D01*
X0Y2055D02*
X7Y2055D01*
X3240Y2055D02*
X3247Y2055D01*
X0Y2054D02*
X7Y2054D01*
X3240Y2054D02*
X3247Y2054D01*
X0Y2053D02*
X7Y2053D01*
X3240Y2053D02*
X3247Y2053D01*
X0Y2052D02*
X7Y2052D01*
X3240Y2052D02*
X3247Y2052D01*
X0Y2051D02*
X7Y2051D01*
X3240Y2051D02*
X3247Y2051D01*
X0Y2050D02*
X7Y2050D01*
X3240Y2050D02*
X3247Y2050D01*
X0Y2049D02*
X7Y2049D01*
X3240Y2049D02*
X3247Y2049D01*
X0Y2048D02*
X7Y2048D01*
X3240Y2048D02*
X3247Y2048D01*
X0Y2047D02*
X7Y2047D01*
X3240Y2047D02*
X3247Y2047D01*
X0Y2046D02*
X7Y2046D01*
X3240Y2046D02*
X3247Y2046D01*
X0Y2045D02*
X7Y2045D01*
X3240Y2045D02*
X3247Y2045D01*
X0Y2044D02*
X7Y2044D01*
X3240Y2044D02*
X3247Y2044D01*
X0Y2043D02*
X7Y2043D01*
X3240Y2043D02*
X3247Y2043D01*
X0Y2042D02*
X7Y2042D01*
X3240Y2042D02*
X3247Y2042D01*
X0Y2041D02*
X7Y2041D01*
X3240Y2041D02*
X3247Y2041D01*
X0Y2040D02*
X7Y2040D01*
X3240Y2040D02*
X3247Y2040D01*
X0Y2039D02*
X7Y2039D01*
X3240Y2039D02*
X3247Y2039D01*
X0Y2038D02*
X7Y2038D01*
X3240Y2038D02*
X3247Y2038D01*
X0Y2037D02*
X7Y2037D01*
X3240Y2037D02*
X3247Y2037D01*
X0Y2036D02*
X7Y2036D01*
X3240Y2036D02*
X3247Y2036D01*
X0Y2035D02*
X7Y2035D01*
X3240Y2035D02*
X3247Y2035D01*
X0Y2034D02*
X7Y2034D01*
X3240Y2034D02*
X3247Y2034D01*
X0Y2033D02*
X7Y2033D01*
X3240Y2033D02*
X3247Y2033D01*
X0Y2032D02*
X7Y2032D01*
X3240Y2032D02*
X3247Y2032D01*
X0Y2031D02*
X7Y2031D01*
X3240Y2031D02*
X3247Y2031D01*
X0Y2030D02*
X7Y2030D01*
X3240Y2030D02*
X3247Y2030D01*
X0Y2029D02*
X7Y2029D01*
X3240Y2029D02*
X3247Y2029D01*
X0Y2028D02*
X7Y2028D01*
X3240Y2028D02*
X3247Y2028D01*
X0Y2027D02*
X7Y2027D01*
X3240Y2027D02*
X3247Y2027D01*
X0Y2026D02*
X7Y2026D01*
X3240Y2026D02*
X3247Y2026D01*
X0Y2025D02*
X7Y2025D01*
X3240Y2025D02*
X3247Y2025D01*
X0Y2024D02*
X7Y2024D01*
X3240Y2024D02*
X3247Y2024D01*
X0Y2023D02*
X7Y2023D01*
X3240Y2023D02*
X3247Y2023D01*
X0Y2022D02*
X7Y2022D01*
X3240Y2022D02*
X3247Y2022D01*
X0Y2021D02*
X7Y2021D01*
X3240Y2021D02*
X3247Y2021D01*
X0Y2020D02*
X7Y2020D01*
X3240Y2020D02*
X3247Y2020D01*
X0Y2019D02*
X7Y2019D01*
X3240Y2019D02*
X3247Y2019D01*
X0Y2018D02*
X7Y2018D01*
X3240Y2018D02*
X3247Y2018D01*
X0Y2017D02*
X7Y2017D01*
X3240Y2017D02*
X3247Y2017D01*
X0Y2016D02*
X7Y2016D01*
X3240Y2016D02*
X3247Y2016D01*
X0Y2015D02*
X7Y2015D01*
X3240Y2015D02*
X3247Y2015D01*
X0Y2014D02*
X7Y2014D01*
X3240Y2014D02*
X3247Y2014D01*
X0Y2013D02*
X7Y2013D01*
X3240Y2013D02*
X3247Y2013D01*
X0Y2012D02*
X7Y2012D01*
X3240Y2012D02*
X3247Y2012D01*
X0Y2011D02*
X7Y2011D01*
X3240Y2011D02*
X3247Y2011D01*
X0Y2010D02*
X7Y2010D01*
X3240Y2010D02*
X3247Y2010D01*
X0Y2009D02*
X7Y2009D01*
X3240Y2009D02*
X3247Y2009D01*
X0Y2008D02*
X7Y2008D01*
X3240Y2008D02*
X3247Y2008D01*
X0Y2007D02*
X7Y2007D01*
X3240Y2007D02*
X3247Y2007D01*
X0Y2006D02*
X7Y2006D01*
X3240Y2006D02*
X3247Y2006D01*
X0Y2005D02*
X7Y2005D01*
X3240Y2005D02*
X3247Y2005D01*
X0Y2004D02*
X7Y2004D01*
X3240Y2004D02*
X3247Y2004D01*
X0Y2003D02*
X7Y2003D01*
X3240Y2003D02*
X3247Y2003D01*
X0Y2002D02*
X7Y2002D01*
X3240Y2002D02*
X3247Y2002D01*
X0Y2001D02*
X7Y2001D01*
X3240Y2001D02*
X3247Y2001D01*
X0Y2000D02*
X7Y2000D01*
X3240Y2000D02*
X3247Y2000D01*
X0Y1999D02*
X7Y1999D01*
X3240Y1999D02*
X3247Y1999D01*
X0Y1998D02*
X7Y1998D01*
X3240Y1998D02*
X3247Y1998D01*
X0Y1997D02*
X7Y1997D01*
X3240Y1997D02*
X3247Y1997D01*
X0Y1996D02*
X7Y1996D01*
X3240Y1996D02*
X3247Y1996D01*
X0Y1995D02*
X7Y1995D01*
X3240Y1995D02*
X3247Y1995D01*
X0Y1994D02*
X7Y1994D01*
X3240Y1994D02*
X3247Y1994D01*
X0Y1993D02*
X7Y1993D01*
X3240Y1993D02*
X3247Y1993D01*
X0Y1992D02*
X7Y1992D01*
X3240Y1992D02*
X3247Y1992D01*
X0Y1991D02*
X7Y1991D01*
X3240Y1991D02*
X3247Y1991D01*
X0Y1990D02*
X7Y1990D01*
X3240Y1990D02*
X3247Y1990D01*
X0Y1989D02*
X7Y1989D01*
X3240Y1989D02*
X3247Y1989D01*
X0Y1988D02*
X7Y1988D01*
X3240Y1988D02*
X3247Y1988D01*
X0Y1987D02*
X7Y1987D01*
X3240Y1987D02*
X3247Y1987D01*
X0Y1986D02*
X7Y1986D01*
X3240Y1986D02*
X3247Y1986D01*
X0Y1985D02*
X7Y1985D01*
X3240Y1985D02*
X3247Y1985D01*
X0Y1984D02*
X7Y1984D01*
X3240Y1984D02*
X3247Y1984D01*
X0Y1983D02*
X7Y1983D01*
X3240Y1983D02*
X3247Y1983D01*
X0Y1982D02*
X7Y1982D01*
X3240Y1982D02*
X3247Y1982D01*
X0Y1981D02*
X7Y1981D01*
X3240Y1981D02*
X3247Y1981D01*
X0Y1980D02*
X7Y1980D01*
X3240Y1980D02*
X3247Y1980D01*
X0Y1979D02*
X7Y1979D01*
X3240Y1979D02*
X3247Y1979D01*
X0Y1978D02*
X7Y1978D01*
X3240Y1978D02*
X3247Y1978D01*
X0Y1977D02*
X7Y1977D01*
X3240Y1977D02*
X3247Y1977D01*
X0Y1976D02*
X7Y1976D01*
X3240Y1976D02*
X3247Y1976D01*
X0Y1975D02*
X7Y1975D01*
X3240Y1975D02*
X3247Y1975D01*
X0Y1974D02*
X7Y1974D01*
X3240Y1974D02*
X3247Y1974D01*
X0Y1973D02*
X7Y1973D01*
X3240Y1973D02*
X3247Y1973D01*
X0Y1972D02*
X7Y1972D01*
X3240Y1972D02*
X3247Y1972D01*
X0Y1971D02*
X7Y1971D01*
X3240Y1971D02*
X3247Y1971D01*
X0Y1970D02*
X7Y1970D01*
X3240Y1970D02*
X3247Y1970D01*
X0Y1969D02*
X7Y1969D01*
X3240Y1969D02*
X3247Y1969D01*
X0Y1968D02*
X7Y1968D01*
X3240Y1968D02*
X3247Y1968D01*
X0Y1967D02*
X7Y1967D01*
X3240Y1967D02*
X3247Y1967D01*
X0Y1966D02*
X7Y1966D01*
X3240Y1966D02*
X3247Y1966D01*
X0Y1965D02*
X7Y1965D01*
X3240Y1965D02*
X3247Y1965D01*
X0Y1964D02*
X7Y1964D01*
X3240Y1964D02*
X3247Y1964D01*
X0Y1963D02*
X7Y1963D01*
X3240Y1963D02*
X3247Y1963D01*
X0Y1962D02*
X7Y1962D01*
X3240Y1962D02*
X3247Y1962D01*
X0Y1961D02*
X7Y1961D01*
X3240Y1961D02*
X3247Y1961D01*
X0Y1960D02*
X7Y1960D01*
X3240Y1960D02*
X3247Y1960D01*
X0Y1959D02*
X7Y1959D01*
X3240Y1959D02*
X3247Y1959D01*
X0Y1958D02*
X7Y1958D01*
X3240Y1958D02*
X3247Y1958D01*
X0Y1957D02*
X7Y1957D01*
X3240Y1957D02*
X3247Y1957D01*
X0Y1956D02*
X7Y1956D01*
X3240Y1956D02*
X3247Y1956D01*
X0Y1955D02*
X7Y1955D01*
X3240Y1955D02*
X3247Y1955D01*
X0Y1954D02*
X7Y1954D01*
X3240Y1954D02*
X3247Y1954D01*
X0Y1953D02*
X7Y1953D01*
X3240Y1953D02*
X3247Y1953D01*
X0Y1952D02*
X7Y1952D01*
X3240Y1952D02*
X3247Y1952D01*
X0Y1951D02*
X7Y1951D01*
X3240Y1951D02*
X3247Y1951D01*
X0Y1950D02*
X7Y1950D01*
X3240Y1950D02*
X3247Y1950D01*
X0Y1949D02*
X7Y1949D01*
X3240Y1949D02*
X3247Y1949D01*
X0Y1948D02*
X7Y1948D01*
X3240Y1948D02*
X3247Y1948D01*
X0Y1947D02*
X7Y1947D01*
X3240Y1947D02*
X3247Y1947D01*
X0Y1946D02*
X7Y1946D01*
X3240Y1946D02*
X3247Y1946D01*
X0Y1945D02*
X7Y1945D01*
X3240Y1945D02*
X3247Y1945D01*
X0Y1944D02*
X7Y1944D01*
X3240Y1944D02*
X3247Y1944D01*
X0Y1943D02*
X7Y1943D01*
X3240Y1943D02*
X3247Y1943D01*
X0Y1942D02*
X7Y1942D01*
X3240Y1942D02*
X3247Y1942D01*
X0Y1941D02*
X7Y1941D01*
X3240Y1941D02*
X3247Y1941D01*
X0Y1940D02*
X7Y1940D01*
X3240Y1940D02*
X3247Y1940D01*
X0Y1939D02*
X7Y1939D01*
X3240Y1939D02*
X3247Y1939D01*
X0Y1938D02*
X7Y1938D01*
X3240Y1938D02*
X3247Y1938D01*
X0Y1937D02*
X7Y1937D01*
X3240Y1937D02*
X3247Y1937D01*
X0Y1936D02*
X7Y1936D01*
X3240Y1936D02*
X3247Y1936D01*
X0Y1935D02*
X7Y1935D01*
X3240Y1935D02*
X3247Y1935D01*
X0Y1934D02*
X7Y1934D01*
X3240Y1934D02*
X3247Y1934D01*
X0Y1933D02*
X7Y1933D01*
X3240Y1933D02*
X3247Y1933D01*
X0Y1932D02*
X7Y1932D01*
X3240Y1932D02*
X3247Y1932D01*
X0Y1931D02*
X7Y1931D01*
X3240Y1931D02*
X3247Y1931D01*
X0Y1930D02*
X7Y1930D01*
X3240Y1930D02*
X3247Y1930D01*
X0Y1929D02*
X7Y1929D01*
X3240Y1929D02*
X3247Y1929D01*
X0Y1928D02*
X7Y1928D01*
X3240Y1928D02*
X3247Y1928D01*
X0Y1927D02*
X7Y1927D01*
X3240Y1927D02*
X3247Y1927D01*
X0Y1926D02*
X7Y1926D01*
X3240Y1926D02*
X3247Y1926D01*
X0Y1925D02*
X7Y1925D01*
X3240Y1925D02*
X3247Y1925D01*
X0Y1924D02*
X7Y1924D01*
X3240Y1924D02*
X3247Y1924D01*
X0Y1923D02*
X7Y1923D01*
X3240Y1923D02*
X3247Y1923D01*
X0Y1922D02*
X7Y1922D01*
X3240Y1922D02*
X3247Y1922D01*
X0Y1921D02*
X7Y1921D01*
X3240Y1921D02*
X3247Y1921D01*
X0Y1920D02*
X7Y1920D01*
X3240Y1920D02*
X3247Y1920D01*
X0Y1919D02*
X7Y1919D01*
X3240Y1919D02*
X3247Y1919D01*
X0Y1918D02*
X7Y1918D01*
X3240Y1918D02*
X3247Y1918D01*
X0Y1917D02*
X7Y1917D01*
X3240Y1917D02*
X3247Y1917D01*
X0Y1916D02*
X7Y1916D01*
X3240Y1916D02*
X3247Y1916D01*
X0Y1915D02*
X7Y1915D01*
X3240Y1915D02*
X3247Y1915D01*
X0Y1914D02*
X7Y1914D01*
X3240Y1914D02*
X3247Y1914D01*
X0Y1913D02*
X7Y1913D01*
X3240Y1913D02*
X3247Y1913D01*
X0Y1912D02*
X7Y1912D01*
X3240Y1912D02*
X3247Y1912D01*
X0Y1911D02*
X7Y1911D01*
X3240Y1911D02*
X3247Y1911D01*
X0Y1910D02*
X7Y1910D01*
X3240Y1910D02*
X3247Y1910D01*
X0Y1909D02*
X7Y1909D01*
X3240Y1909D02*
X3247Y1909D01*
X0Y1908D02*
X7Y1908D01*
X3240Y1908D02*
X3247Y1908D01*
X0Y1907D02*
X7Y1907D01*
X3240Y1907D02*
X3247Y1907D01*
X0Y1906D02*
X7Y1906D01*
X3240Y1906D02*
X3247Y1906D01*
X0Y1905D02*
X7Y1905D01*
X3240Y1905D02*
X3247Y1905D01*
X0Y1904D02*
X7Y1904D01*
X3240Y1904D02*
X3247Y1904D01*
X0Y1903D02*
X7Y1903D01*
X3240Y1903D02*
X3247Y1903D01*
X0Y1902D02*
X7Y1902D01*
X3240Y1902D02*
X3247Y1902D01*
X0Y1901D02*
X7Y1901D01*
X3240Y1901D02*
X3247Y1901D01*
X0Y1900D02*
X7Y1900D01*
X3240Y1900D02*
X3247Y1900D01*
X0Y1899D02*
X7Y1899D01*
X3240Y1899D02*
X3247Y1899D01*
X0Y1898D02*
X7Y1898D01*
X3240Y1898D02*
X3247Y1898D01*
X0Y1897D02*
X7Y1897D01*
X3240Y1897D02*
X3247Y1897D01*
X0Y1896D02*
X7Y1896D01*
X3240Y1896D02*
X3247Y1896D01*
X0Y1895D02*
X7Y1895D01*
X3240Y1895D02*
X3247Y1895D01*
X0Y1894D02*
X7Y1894D01*
X3240Y1894D02*
X3247Y1894D01*
X0Y1893D02*
X7Y1893D01*
X3240Y1893D02*
X3247Y1893D01*
X0Y1892D02*
X7Y1892D01*
X3240Y1892D02*
X3247Y1892D01*
X0Y1891D02*
X7Y1891D01*
X3240Y1891D02*
X3247Y1891D01*
X0Y1890D02*
X7Y1890D01*
X3240Y1890D02*
X3247Y1890D01*
X0Y1889D02*
X7Y1889D01*
X3240Y1889D02*
X3247Y1889D01*
X0Y1888D02*
X7Y1888D01*
X3240Y1888D02*
X3247Y1888D01*
X0Y1887D02*
X7Y1887D01*
X3240Y1887D02*
X3247Y1887D01*
X0Y1886D02*
X7Y1886D01*
X3240Y1886D02*
X3247Y1886D01*
X0Y1885D02*
X7Y1885D01*
X3240Y1885D02*
X3247Y1885D01*
X0Y1884D02*
X7Y1884D01*
X3240Y1884D02*
X3247Y1884D01*
X0Y1883D02*
X7Y1883D01*
X3240Y1883D02*
X3247Y1883D01*
X0Y1882D02*
X7Y1882D01*
X3240Y1882D02*
X3247Y1882D01*
X0Y1881D02*
X7Y1881D01*
X3240Y1881D02*
X3247Y1881D01*
X0Y1880D02*
X7Y1880D01*
X3240Y1880D02*
X3247Y1880D01*
X0Y1879D02*
X7Y1879D01*
X3240Y1879D02*
X3247Y1879D01*
X0Y1878D02*
X7Y1878D01*
X3240Y1878D02*
X3247Y1878D01*
X0Y1877D02*
X7Y1877D01*
X3240Y1877D02*
X3247Y1877D01*
X0Y1876D02*
X7Y1876D01*
X3240Y1876D02*
X3247Y1876D01*
X0Y1875D02*
X7Y1875D01*
X3240Y1875D02*
X3247Y1875D01*
X0Y1874D02*
X7Y1874D01*
X3240Y1874D02*
X3247Y1874D01*
X0Y1873D02*
X7Y1873D01*
X3240Y1873D02*
X3247Y1873D01*
X0Y1872D02*
X7Y1872D01*
X3240Y1872D02*
X3247Y1872D01*
X0Y1871D02*
X7Y1871D01*
X3240Y1871D02*
X3247Y1871D01*
X0Y1870D02*
X7Y1870D01*
X3240Y1870D02*
X3247Y1870D01*
X0Y1869D02*
X7Y1869D01*
X3240Y1869D02*
X3247Y1869D01*
X0Y1868D02*
X7Y1868D01*
X3240Y1868D02*
X3247Y1868D01*
X0Y1867D02*
X7Y1867D01*
X3240Y1867D02*
X3247Y1867D01*
X0Y1866D02*
X7Y1866D01*
X3240Y1866D02*
X3247Y1866D01*
X0Y1865D02*
X7Y1865D01*
X3240Y1865D02*
X3247Y1865D01*
X0Y1864D02*
X7Y1864D01*
X3240Y1864D02*
X3247Y1864D01*
X0Y1863D02*
X7Y1863D01*
X3240Y1863D02*
X3247Y1863D01*
X0Y1862D02*
X7Y1862D01*
X3240Y1862D02*
X3247Y1862D01*
X0Y1861D02*
X7Y1861D01*
X3240Y1861D02*
X3247Y1861D01*
X0Y1860D02*
X7Y1860D01*
X3240Y1860D02*
X3247Y1860D01*
X0Y1859D02*
X7Y1859D01*
X3240Y1859D02*
X3247Y1859D01*
X0Y1858D02*
X7Y1858D01*
X3240Y1858D02*
X3247Y1858D01*
X0Y1857D02*
X7Y1857D01*
X3240Y1857D02*
X3247Y1857D01*
X0Y1856D02*
X7Y1856D01*
X3240Y1856D02*
X3247Y1856D01*
X0Y1855D02*
X7Y1855D01*
X3240Y1855D02*
X3247Y1855D01*
X0Y1854D02*
X7Y1854D01*
X3240Y1854D02*
X3247Y1854D01*
X0Y1853D02*
X7Y1853D01*
X3240Y1853D02*
X3247Y1853D01*
X0Y1852D02*
X7Y1852D01*
X3240Y1852D02*
X3247Y1852D01*
X0Y1851D02*
X7Y1851D01*
X3240Y1851D02*
X3247Y1851D01*
X0Y1850D02*
X7Y1850D01*
X3240Y1850D02*
X3247Y1850D01*
X0Y1849D02*
X7Y1849D01*
X3240Y1849D02*
X3247Y1849D01*
X0Y1848D02*
X7Y1848D01*
X3240Y1848D02*
X3247Y1848D01*
X0Y1847D02*
X7Y1847D01*
X3240Y1847D02*
X3247Y1847D01*
X0Y1846D02*
X7Y1846D01*
X3240Y1846D02*
X3247Y1846D01*
X0Y1845D02*
X7Y1845D01*
X3240Y1845D02*
X3247Y1845D01*
X0Y1844D02*
X7Y1844D01*
X3240Y1844D02*
X3247Y1844D01*
X0Y1843D02*
X7Y1843D01*
X3240Y1843D02*
X3247Y1843D01*
X0Y1842D02*
X7Y1842D01*
X3240Y1842D02*
X3247Y1842D01*
X0Y1841D02*
X7Y1841D01*
X3240Y1841D02*
X3247Y1841D01*
X0Y1840D02*
X7Y1840D01*
X3240Y1840D02*
X3247Y1840D01*
X0Y1839D02*
X7Y1839D01*
X3240Y1839D02*
X3247Y1839D01*
X0Y1838D02*
X7Y1838D01*
X3240Y1838D02*
X3247Y1838D01*
X0Y1837D02*
X7Y1837D01*
X3240Y1837D02*
X3247Y1837D01*
X0Y1836D02*
X7Y1836D01*
X3240Y1836D02*
X3247Y1836D01*
X0Y1835D02*
X7Y1835D01*
X3240Y1835D02*
X3247Y1835D01*
X0Y1834D02*
X7Y1834D01*
X3240Y1834D02*
X3247Y1834D01*
X0Y1833D02*
X7Y1833D01*
X3240Y1833D02*
X3247Y1833D01*
X0Y1832D02*
X7Y1832D01*
X3240Y1832D02*
X3247Y1832D01*
X0Y1831D02*
X7Y1831D01*
X3240Y1831D02*
X3247Y1831D01*
X0Y1830D02*
X7Y1830D01*
X3240Y1830D02*
X3247Y1830D01*
X0Y1829D02*
X7Y1829D01*
X3240Y1829D02*
X3247Y1829D01*
X0Y1828D02*
X7Y1828D01*
X3240Y1828D02*
X3247Y1828D01*
X0Y1827D02*
X7Y1827D01*
X3240Y1827D02*
X3247Y1827D01*
X0Y1826D02*
X7Y1826D01*
X3240Y1826D02*
X3247Y1826D01*
X0Y1825D02*
X7Y1825D01*
X3240Y1825D02*
X3247Y1825D01*
X0Y1824D02*
X7Y1824D01*
X3240Y1824D02*
X3247Y1824D01*
X0Y1823D02*
X7Y1823D01*
X3240Y1823D02*
X3247Y1823D01*
X0Y1822D02*
X7Y1822D01*
X3240Y1822D02*
X3247Y1822D01*
X0Y1821D02*
X7Y1821D01*
X3240Y1821D02*
X3247Y1821D01*
X0Y1820D02*
X7Y1820D01*
X3240Y1820D02*
X3247Y1820D01*
X0Y1819D02*
X7Y1819D01*
X3240Y1819D02*
X3247Y1819D01*
X0Y1818D02*
X7Y1818D01*
X3240Y1818D02*
X3247Y1818D01*
X0Y1817D02*
X7Y1817D01*
X3240Y1817D02*
X3247Y1817D01*
X0Y1816D02*
X7Y1816D01*
X3240Y1816D02*
X3247Y1816D01*
X0Y1815D02*
X7Y1815D01*
X3240Y1815D02*
X3247Y1815D01*
X0Y1814D02*
X7Y1814D01*
X3240Y1814D02*
X3247Y1814D01*
X0Y1813D02*
X7Y1813D01*
X3240Y1813D02*
X3247Y1813D01*
X0Y1812D02*
X7Y1812D01*
X3240Y1812D02*
X3247Y1812D01*
X0Y1811D02*
X7Y1811D01*
X3240Y1811D02*
X3247Y1811D01*
X0Y1810D02*
X7Y1810D01*
X3240Y1810D02*
X3247Y1810D01*
X0Y1809D02*
X7Y1809D01*
X3240Y1809D02*
X3247Y1809D01*
X0Y1808D02*
X7Y1808D01*
X3240Y1808D02*
X3247Y1808D01*
X0Y1807D02*
X7Y1807D01*
X3240Y1807D02*
X3247Y1807D01*
X0Y1806D02*
X7Y1806D01*
X3240Y1806D02*
X3247Y1806D01*
X0Y1805D02*
X7Y1805D01*
X3240Y1805D02*
X3247Y1805D01*
X0Y1804D02*
X7Y1804D01*
X3240Y1804D02*
X3247Y1804D01*
X0Y1803D02*
X7Y1803D01*
X3240Y1803D02*
X3247Y1803D01*
X0Y1802D02*
X7Y1802D01*
X3240Y1802D02*
X3247Y1802D01*
X0Y1801D02*
X7Y1801D01*
X3240Y1801D02*
X3247Y1801D01*
X0Y1800D02*
X7Y1800D01*
X3240Y1800D02*
X3247Y1800D01*
X0Y1799D02*
X7Y1799D01*
X3240Y1799D02*
X3247Y1799D01*
X0Y1798D02*
X7Y1798D01*
X3240Y1798D02*
X3247Y1798D01*
X0Y1797D02*
X7Y1797D01*
X3240Y1797D02*
X3247Y1797D01*
X0Y1796D02*
X7Y1796D01*
X3240Y1796D02*
X3247Y1796D01*
X0Y1795D02*
X7Y1795D01*
X3240Y1795D02*
X3247Y1795D01*
X0Y1794D02*
X7Y1794D01*
X3240Y1794D02*
X3247Y1794D01*
X0Y1793D02*
X7Y1793D01*
X3240Y1793D02*
X3247Y1793D01*
X0Y1792D02*
X7Y1792D01*
X3240Y1792D02*
X3247Y1792D01*
X0Y1791D02*
X7Y1791D01*
X3240Y1791D02*
X3247Y1791D01*
X0Y1790D02*
X7Y1790D01*
X3240Y1790D02*
X3247Y1790D01*
X0Y1789D02*
X7Y1789D01*
X3240Y1789D02*
X3247Y1789D01*
X0Y1788D02*
X7Y1788D01*
X3240Y1788D02*
X3247Y1788D01*
X0Y1787D02*
X7Y1787D01*
X3240Y1787D02*
X3247Y1787D01*
X0Y1786D02*
X7Y1786D01*
X3240Y1786D02*
X3247Y1786D01*
X0Y1785D02*
X7Y1785D01*
X3240Y1785D02*
X3247Y1785D01*
X0Y1784D02*
X7Y1784D01*
X3240Y1784D02*
X3247Y1784D01*
X0Y1783D02*
X7Y1783D01*
X3240Y1783D02*
X3247Y1783D01*
X0Y1782D02*
X7Y1782D01*
X3240Y1782D02*
X3247Y1782D01*
X0Y1781D02*
X7Y1781D01*
X3240Y1781D02*
X3247Y1781D01*
X0Y1780D02*
X7Y1780D01*
X3240Y1780D02*
X3247Y1780D01*
X0Y1779D02*
X7Y1779D01*
X3240Y1779D02*
X3247Y1779D01*
X0Y1778D02*
X7Y1778D01*
X3240Y1778D02*
X3247Y1778D01*
X0Y1777D02*
X7Y1777D01*
X3240Y1777D02*
X3247Y1777D01*
X0Y1776D02*
X7Y1776D01*
X3240Y1776D02*
X3247Y1776D01*
X0Y1775D02*
X7Y1775D01*
X3240Y1775D02*
X3247Y1775D01*
X0Y1774D02*
X7Y1774D01*
X3240Y1774D02*
X3247Y1774D01*
X0Y1773D02*
X7Y1773D01*
X3240Y1773D02*
X3247Y1773D01*
X0Y1772D02*
X7Y1772D01*
X3240Y1772D02*
X3247Y1772D01*
X0Y1771D02*
X7Y1771D01*
X3240Y1771D02*
X3247Y1771D01*
X0Y1770D02*
X7Y1770D01*
X3240Y1770D02*
X3247Y1770D01*
X0Y1769D02*
X7Y1769D01*
X3240Y1769D02*
X3247Y1769D01*
X0Y1768D02*
X7Y1768D01*
X3240Y1768D02*
X3247Y1768D01*
X0Y1767D02*
X7Y1767D01*
X3240Y1767D02*
X3247Y1767D01*
X0Y1766D02*
X7Y1766D01*
X3240Y1766D02*
X3247Y1766D01*
X0Y1765D02*
X7Y1765D01*
X3240Y1765D02*
X3247Y1765D01*
X0Y1764D02*
X7Y1764D01*
X3240Y1764D02*
X3247Y1764D01*
X0Y1763D02*
X7Y1763D01*
X3240Y1763D02*
X3247Y1763D01*
X0Y1762D02*
X7Y1762D01*
X3240Y1762D02*
X3247Y1762D01*
X0Y1761D02*
X7Y1761D01*
X3240Y1761D02*
X3247Y1761D01*
X0Y1760D02*
X7Y1760D01*
X3240Y1760D02*
X3247Y1760D01*
X0Y1759D02*
X7Y1759D01*
X3240Y1759D02*
X3247Y1759D01*
X0Y1758D02*
X7Y1758D01*
X3240Y1758D02*
X3247Y1758D01*
X0Y1757D02*
X7Y1757D01*
X3240Y1757D02*
X3247Y1757D01*
X0Y1756D02*
X7Y1756D01*
X3240Y1756D02*
X3247Y1756D01*
X0Y1755D02*
X7Y1755D01*
X3240Y1755D02*
X3247Y1755D01*
X0Y1754D02*
X7Y1754D01*
X3240Y1754D02*
X3247Y1754D01*
X0Y1753D02*
X7Y1753D01*
X3240Y1753D02*
X3247Y1753D01*
X0Y1752D02*
X7Y1752D01*
X3240Y1752D02*
X3247Y1752D01*
X0Y1751D02*
X7Y1751D01*
X3240Y1751D02*
X3247Y1751D01*
X0Y1750D02*
X7Y1750D01*
X3240Y1750D02*
X3247Y1750D01*
X0Y1749D02*
X7Y1749D01*
X3240Y1749D02*
X3247Y1749D01*
X0Y1748D02*
X7Y1748D01*
X3240Y1748D02*
X3247Y1748D01*
X0Y1747D02*
X7Y1747D01*
X3240Y1747D02*
X3247Y1747D01*
X0Y1746D02*
X7Y1746D01*
X3240Y1746D02*
X3247Y1746D01*
X0Y1745D02*
X7Y1745D01*
X3240Y1745D02*
X3247Y1745D01*
X0Y1744D02*
X7Y1744D01*
X3240Y1744D02*
X3247Y1744D01*
X0Y1743D02*
X7Y1743D01*
X3240Y1743D02*
X3247Y1743D01*
X0Y1742D02*
X7Y1742D01*
X3240Y1742D02*
X3247Y1742D01*
X0Y1741D02*
X7Y1741D01*
X3240Y1741D02*
X3247Y1741D01*
X0Y1740D02*
X7Y1740D01*
X3240Y1740D02*
X3247Y1740D01*
X0Y1739D02*
X7Y1739D01*
X3240Y1739D02*
X3247Y1739D01*
X0Y1738D02*
X7Y1738D01*
X3240Y1738D02*
X3247Y1738D01*
X0Y1737D02*
X7Y1737D01*
X3240Y1737D02*
X3247Y1737D01*
X0Y1736D02*
X7Y1736D01*
X3240Y1736D02*
X3247Y1736D01*
X0Y1735D02*
X7Y1735D01*
X3240Y1735D02*
X3247Y1735D01*
X0Y1734D02*
X7Y1734D01*
X3240Y1734D02*
X3247Y1734D01*
X0Y1733D02*
X7Y1733D01*
X3240Y1733D02*
X3247Y1733D01*
X0Y1732D02*
X7Y1732D01*
X3240Y1732D02*
X3247Y1732D01*
X0Y1731D02*
X7Y1731D01*
X3240Y1731D02*
X3247Y1731D01*
X0Y1730D02*
X7Y1730D01*
X3240Y1730D02*
X3247Y1730D01*
X0Y1729D02*
X7Y1729D01*
X3240Y1729D02*
X3247Y1729D01*
X0Y1728D02*
X7Y1728D01*
X3240Y1728D02*
X3247Y1728D01*
X0Y1727D02*
X7Y1727D01*
X3240Y1727D02*
X3247Y1727D01*
X0Y1726D02*
X7Y1726D01*
X3240Y1726D02*
X3247Y1726D01*
X0Y1725D02*
X7Y1725D01*
X3240Y1725D02*
X3247Y1725D01*
X0Y1724D02*
X7Y1724D01*
X3240Y1724D02*
X3247Y1724D01*
X0Y1723D02*
X7Y1723D01*
X3240Y1723D02*
X3247Y1723D01*
X0Y1722D02*
X7Y1722D01*
X3240Y1722D02*
X3247Y1722D01*
X0Y1721D02*
X7Y1721D01*
X3240Y1721D02*
X3247Y1721D01*
X0Y1720D02*
X7Y1720D01*
X3240Y1720D02*
X3247Y1720D01*
X0Y1719D02*
X7Y1719D01*
X3240Y1719D02*
X3247Y1719D01*
X0Y1718D02*
X7Y1718D01*
X3240Y1718D02*
X3247Y1718D01*
X0Y1717D02*
X7Y1717D01*
X3240Y1717D02*
X3247Y1717D01*
X0Y1716D02*
X7Y1716D01*
X3240Y1716D02*
X3247Y1716D01*
X0Y1715D02*
X7Y1715D01*
X3240Y1715D02*
X3247Y1715D01*
X0Y1714D02*
X7Y1714D01*
X3240Y1714D02*
X3247Y1714D01*
X0Y1713D02*
X7Y1713D01*
X3240Y1713D02*
X3247Y1713D01*
X0Y1712D02*
X7Y1712D01*
X3240Y1712D02*
X3247Y1712D01*
X0Y1711D02*
X7Y1711D01*
X3240Y1711D02*
X3247Y1711D01*
X0Y1710D02*
X7Y1710D01*
X3240Y1710D02*
X3247Y1710D01*
X0Y1709D02*
X7Y1709D01*
X3240Y1709D02*
X3247Y1709D01*
X0Y1708D02*
X7Y1708D01*
X3240Y1708D02*
X3247Y1708D01*
X0Y1707D02*
X7Y1707D01*
X3240Y1707D02*
X3247Y1707D01*
X0Y1706D02*
X7Y1706D01*
X3240Y1706D02*
X3247Y1706D01*
X0Y1705D02*
X7Y1705D01*
X3240Y1705D02*
X3247Y1705D01*
X0Y1704D02*
X7Y1704D01*
X3240Y1704D02*
X3247Y1704D01*
X0Y1703D02*
X7Y1703D01*
X3240Y1703D02*
X3247Y1703D01*
X0Y1702D02*
X7Y1702D01*
X3240Y1702D02*
X3247Y1702D01*
X0Y1701D02*
X7Y1701D01*
X3240Y1701D02*
X3247Y1701D01*
X0Y1700D02*
X7Y1700D01*
X3240Y1700D02*
X3247Y1700D01*
X0Y1699D02*
X7Y1699D01*
X3240Y1699D02*
X3247Y1699D01*
X0Y1698D02*
X7Y1698D01*
X3240Y1698D02*
X3247Y1698D01*
X0Y1697D02*
X7Y1697D01*
X3240Y1697D02*
X3247Y1697D01*
X0Y1696D02*
X7Y1696D01*
X3240Y1696D02*
X3247Y1696D01*
X0Y1695D02*
X7Y1695D01*
X3240Y1695D02*
X3247Y1695D01*
X0Y1694D02*
X7Y1694D01*
X3240Y1694D02*
X3247Y1694D01*
X0Y1693D02*
X7Y1693D01*
X3240Y1693D02*
X3247Y1693D01*
X0Y1692D02*
X7Y1692D01*
X3240Y1692D02*
X3247Y1692D01*
X0Y1691D02*
X7Y1691D01*
X3240Y1691D02*
X3247Y1691D01*
X0Y1690D02*
X7Y1690D01*
X3240Y1690D02*
X3247Y1690D01*
X0Y1689D02*
X7Y1689D01*
X3240Y1689D02*
X3247Y1689D01*
X0Y1688D02*
X7Y1688D01*
X3240Y1688D02*
X3247Y1688D01*
X0Y1687D02*
X7Y1687D01*
X3240Y1687D02*
X3247Y1687D01*
X0Y1686D02*
X7Y1686D01*
X3240Y1686D02*
X3247Y1686D01*
X0Y1685D02*
X7Y1685D01*
X3240Y1685D02*
X3247Y1685D01*
X0Y1684D02*
X7Y1684D01*
X3240Y1684D02*
X3247Y1684D01*
X0Y1683D02*
X7Y1683D01*
X3240Y1683D02*
X3247Y1683D01*
X0Y1682D02*
X7Y1682D01*
X3240Y1682D02*
X3247Y1682D01*
X0Y1681D02*
X7Y1681D01*
X3240Y1681D02*
X3247Y1681D01*
X0Y1680D02*
X7Y1680D01*
X3240Y1680D02*
X3247Y1680D01*
X0Y1679D02*
X7Y1679D01*
X3240Y1679D02*
X3247Y1679D01*
X0Y1678D02*
X7Y1678D01*
X3240Y1678D02*
X3247Y1678D01*
X0Y1677D02*
X7Y1677D01*
X3240Y1677D02*
X3247Y1677D01*
X0Y1676D02*
X7Y1676D01*
X3240Y1676D02*
X3247Y1676D01*
X0Y1675D02*
X7Y1675D01*
X3240Y1675D02*
X3247Y1675D01*
X0Y1674D02*
X7Y1674D01*
X3240Y1674D02*
X3247Y1674D01*
X0Y1673D02*
X7Y1673D01*
X3240Y1673D02*
X3247Y1673D01*
X0Y1672D02*
X7Y1672D01*
X3240Y1672D02*
X3247Y1672D01*
X0Y1671D02*
X7Y1671D01*
X3240Y1671D02*
X3247Y1671D01*
X0Y1670D02*
X7Y1670D01*
X3240Y1670D02*
X3247Y1670D01*
X0Y1669D02*
X7Y1669D01*
X3240Y1669D02*
X3247Y1669D01*
X0Y1668D02*
X7Y1668D01*
X3240Y1668D02*
X3247Y1668D01*
X0Y1667D02*
X7Y1667D01*
X3240Y1667D02*
X3247Y1667D01*
X0Y1666D02*
X7Y1666D01*
X3240Y1666D02*
X3247Y1666D01*
X0Y1665D02*
X7Y1665D01*
X3240Y1665D02*
X3247Y1665D01*
X0Y1664D02*
X7Y1664D01*
X3240Y1664D02*
X3247Y1664D01*
X0Y1663D02*
X7Y1663D01*
X3240Y1663D02*
X3247Y1663D01*
X0Y1662D02*
X7Y1662D01*
X3240Y1662D02*
X3247Y1662D01*
X0Y1661D02*
X7Y1661D01*
X3240Y1661D02*
X3247Y1661D01*
X0Y1660D02*
X7Y1660D01*
X3240Y1660D02*
X3247Y1660D01*
X0Y1659D02*
X7Y1659D01*
X3240Y1659D02*
X3247Y1659D01*
X0Y1658D02*
X7Y1658D01*
X3240Y1658D02*
X3247Y1658D01*
X0Y1657D02*
X7Y1657D01*
X3240Y1657D02*
X3247Y1657D01*
X0Y1656D02*
X7Y1656D01*
X3240Y1656D02*
X3247Y1656D01*
X0Y1655D02*
X7Y1655D01*
X3240Y1655D02*
X3247Y1655D01*
X0Y1654D02*
X7Y1654D01*
X3240Y1654D02*
X3247Y1654D01*
X0Y1653D02*
X7Y1653D01*
X3240Y1653D02*
X3247Y1653D01*
X0Y1652D02*
X7Y1652D01*
X3240Y1652D02*
X3247Y1652D01*
X0Y1651D02*
X7Y1651D01*
X3240Y1651D02*
X3247Y1651D01*
X0Y1650D02*
X7Y1650D01*
X3240Y1650D02*
X3247Y1650D01*
X0Y1649D02*
X7Y1649D01*
X3240Y1649D02*
X3247Y1649D01*
X0Y1648D02*
X7Y1648D01*
X3240Y1648D02*
X3247Y1648D01*
X0Y1647D02*
X7Y1647D01*
X3240Y1647D02*
X3247Y1647D01*
X0Y1646D02*
X7Y1646D01*
X3240Y1646D02*
X3247Y1646D01*
X0Y1645D02*
X7Y1645D01*
X3240Y1645D02*
X3247Y1645D01*
X0Y1644D02*
X7Y1644D01*
X3240Y1644D02*
X3247Y1644D01*
X0Y1643D02*
X7Y1643D01*
X3240Y1643D02*
X3247Y1643D01*
X0Y1642D02*
X7Y1642D01*
X3240Y1642D02*
X3247Y1642D01*
X0Y1641D02*
X7Y1641D01*
X3240Y1641D02*
X3247Y1641D01*
X0Y1640D02*
X7Y1640D01*
X3240Y1640D02*
X3247Y1640D01*
X0Y1639D02*
X7Y1639D01*
X3240Y1639D02*
X3247Y1639D01*
X0Y1638D02*
X7Y1638D01*
X3240Y1638D02*
X3247Y1638D01*
X0Y1637D02*
X7Y1637D01*
X3240Y1637D02*
X3247Y1637D01*
X0Y1636D02*
X7Y1636D01*
X3240Y1636D02*
X3247Y1636D01*
X0Y1635D02*
X7Y1635D01*
X3240Y1635D02*
X3247Y1635D01*
X0Y1634D02*
X7Y1634D01*
X3240Y1634D02*
X3247Y1634D01*
X0Y1633D02*
X7Y1633D01*
X3240Y1633D02*
X3247Y1633D01*
X0Y1632D02*
X7Y1632D01*
X3240Y1632D02*
X3247Y1632D01*
X0Y1631D02*
X7Y1631D01*
X3240Y1631D02*
X3247Y1631D01*
X0Y1630D02*
X7Y1630D01*
X3240Y1630D02*
X3247Y1630D01*
X0Y1629D02*
X7Y1629D01*
X3240Y1629D02*
X3247Y1629D01*
X0Y1628D02*
X7Y1628D01*
X3240Y1628D02*
X3247Y1628D01*
X0Y1627D02*
X7Y1627D01*
X3240Y1627D02*
X3247Y1627D01*
X0Y1626D02*
X7Y1626D01*
X3240Y1626D02*
X3247Y1626D01*
X0Y1625D02*
X7Y1625D01*
X3240Y1625D02*
X3247Y1625D01*
X0Y1624D02*
X7Y1624D01*
X3240Y1624D02*
X3247Y1624D01*
X0Y1623D02*
X7Y1623D01*
X3240Y1623D02*
X3247Y1623D01*
X0Y1622D02*
X7Y1622D01*
X3240Y1622D02*
X3247Y1622D01*
X0Y1621D02*
X7Y1621D01*
X3240Y1621D02*
X3247Y1621D01*
X0Y1620D02*
X7Y1620D01*
X3240Y1620D02*
X3247Y1620D01*
X0Y1619D02*
X7Y1619D01*
X3240Y1619D02*
X3247Y1619D01*
X0Y1618D02*
X7Y1618D01*
X3240Y1618D02*
X3247Y1618D01*
X0Y1617D02*
X7Y1617D01*
X3240Y1617D02*
X3247Y1617D01*
X0Y1616D02*
X7Y1616D01*
X3240Y1616D02*
X3247Y1616D01*
X0Y1615D02*
X7Y1615D01*
X3240Y1615D02*
X3247Y1615D01*
X0Y1614D02*
X7Y1614D01*
X3240Y1614D02*
X3247Y1614D01*
X0Y1613D02*
X7Y1613D01*
X3240Y1613D02*
X3247Y1613D01*
X0Y1612D02*
X7Y1612D01*
X3240Y1612D02*
X3247Y1612D01*
X0Y1611D02*
X7Y1611D01*
X3240Y1611D02*
X3247Y1611D01*
X0Y1610D02*
X7Y1610D01*
X3240Y1610D02*
X3247Y1610D01*
X0Y1609D02*
X7Y1609D01*
X3240Y1609D02*
X3247Y1609D01*
X0Y1608D02*
X7Y1608D01*
X3240Y1608D02*
X3247Y1608D01*
X0Y1607D02*
X7Y1607D01*
X3240Y1607D02*
X3247Y1607D01*
X0Y1606D02*
X7Y1606D01*
X3240Y1606D02*
X3247Y1606D01*
X0Y1605D02*
X7Y1605D01*
X3240Y1605D02*
X3247Y1605D01*
X0Y1604D02*
X7Y1604D01*
X3240Y1604D02*
X3247Y1604D01*
X0Y1603D02*
X7Y1603D01*
X3240Y1603D02*
X3247Y1603D01*
X0Y1602D02*
X7Y1602D01*
X3240Y1602D02*
X3247Y1602D01*
X0Y1601D02*
X7Y1601D01*
X3240Y1601D02*
X3247Y1601D01*
X0Y1600D02*
X7Y1600D01*
X3240Y1600D02*
X3247Y1600D01*
X0Y1599D02*
X7Y1599D01*
X3240Y1599D02*
X3247Y1599D01*
X0Y1598D02*
X7Y1598D01*
X3240Y1598D02*
X3247Y1598D01*
X0Y1597D02*
X7Y1597D01*
X3240Y1597D02*
X3247Y1597D01*
X0Y1596D02*
X7Y1596D01*
X3240Y1596D02*
X3247Y1596D01*
X0Y1595D02*
X7Y1595D01*
X3240Y1595D02*
X3247Y1595D01*
X0Y1594D02*
X7Y1594D01*
X3240Y1594D02*
X3247Y1594D01*
X0Y1593D02*
X7Y1593D01*
X3240Y1593D02*
X3247Y1593D01*
X0Y1592D02*
X7Y1592D01*
X3240Y1592D02*
X3247Y1592D01*
X0Y1591D02*
X7Y1591D01*
X3240Y1591D02*
X3247Y1591D01*
X0Y1590D02*
X7Y1590D01*
X3240Y1590D02*
X3247Y1590D01*
X0Y1589D02*
X7Y1589D01*
X3240Y1589D02*
X3247Y1589D01*
X0Y1588D02*
X7Y1588D01*
X3240Y1588D02*
X3247Y1588D01*
X0Y1587D02*
X7Y1587D01*
X3240Y1587D02*
X3247Y1587D01*
X0Y1586D02*
X7Y1586D01*
X3240Y1586D02*
X3247Y1586D01*
X0Y1585D02*
X7Y1585D01*
X3240Y1585D02*
X3247Y1585D01*
X0Y1584D02*
X7Y1584D01*
X3240Y1584D02*
X3247Y1584D01*
X0Y1583D02*
X7Y1583D01*
X3240Y1583D02*
X3247Y1583D01*
X0Y1582D02*
X7Y1582D01*
X3240Y1582D02*
X3247Y1582D01*
X0Y1581D02*
X7Y1581D01*
X3240Y1581D02*
X3247Y1581D01*
X0Y1580D02*
X7Y1580D01*
X3240Y1580D02*
X3247Y1580D01*
X0Y1579D02*
X7Y1579D01*
X3240Y1579D02*
X3247Y1579D01*
X0Y1578D02*
X7Y1578D01*
X3240Y1578D02*
X3247Y1578D01*
X0Y1577D02*
X7Y1577D01*
X3240Y1577D02*
X3247Y1577D01*
X0Y1576D02*
X7Y1576D01*
X3240Y1576D02*
X3247Y1576D01*
X0Y1575D02*
X7Y1575D01*
X3240Y1575D02*
X3247Y1575D01*
X0Y1574D02*
X7Y1574D01*
X3240Y1574D02*
X3247Y1574D01*
X0Y1573D02*
X7Y1573D01*
X3240Y1573D02*
X3247Y1573D01*
X0Y1572D02*
X7Y1572D01*
X3240Y1572D02*
X3247Y1572D01*
X0Y1571D02*
X7Y1571D01*
X3240Y1571D02*
X3247Y1571D01*
X0Y1570D02*
X7Y1570D01*
X3240Y1570D02*
X3247Y1570D01*
X0Y1569D02*
X7Y1569D01*
X3240Y1569D02*
X3247Y1569D01*
X0Y1568D02*
X7Y1568D01*
X3240Y1568D02*
X3247Y1568D01*
X0Y1567D02*
X7Y1567D01*
X3240Y1567D02*
X3247Y1567D01*
X0Y1566D02*
X7Y1566D01*
X3240Y1566D02*
X3247Y1566D01*
X0Y1565D02*
X7Y1565D01*
X3240Y1565D02*
X3247Y1565D01*
X0Y1564D02*
X7Y1564D01*
X3240Y1564D02*
X3247Y1564D01*
X0Y1563D02*
X7Y1563D01*
X3240Y1563D02*
X3247Y1563D01*
X0Y1562D02*
X7Y1562D01*
X3240Y1562D02*
X3247Y1562D01*
X0Y1561D02*
X7Y1561D01*
X3240Y1561D02*
X3247Y1561D01*
X0Y1560D02*
X7Y1560D01*
X3240Y1560D02*
X3247Y1560D01*
X0Y1559D02*
X7Y1559D01*
X3240Y1559D02*
X3247Y1559D01*
X0Y1558D02*
X7Y1558D01*
X3240Y1558D02*
X3247Y1558D01*
X0Y1557D02*
X7Y1557D01*
X3240Y1557D02*
X3247Y1557D01*
X0Y1556D02*
X7Y1556D01*
X3240Y1556D02*
X3247Y1556D01*
X0Y1555D02*
X7Y1555D01*
X3240Y1555D02*
X3247Y1555D01*
X0Y1554D02*
X7Y1554D01*
X3240Y1554D02*
X3247Y1554D01*
X0Y1553D02*
X7Y1553D01*
X3240Y1553D02*
X3247Y1553D01*
X0Y1552D02*
X7Y1552D01*
X3240Y1552D02*
X3247Y1552D01*
X0Y1551D02*
X7Y1551D01*
X3240Y1551D02*
X3247Y1551D01*
X0Y1550D02*
X7Y1550D01*
X3240Y1550D02*
X3247Y1550D01*
X0Y1549D02*
X7Y1549D01*
X3240Y1549D02*
X3247Y1549D01*
X0Y1548D02*
X7Y1548D01*
X3240Y1548D02*
X3247Y1548D01*
X0Y1547D02*
X7Y1547D01*
X3240Y1547D02*
X3247Y1547D01*
X0Y1546D02*
X7Y1546D01*
X3240Y1546D02*
X3247Y1546D01*
X0Y1545D02*
X7Y1545D01*
X3240Y1545D02*
X3247Y1545D01*
X0Y1544D02*
X7Y1544D01*
X3240Y1544D02*
X3247Y1544D01*
X0Y1543D02*
X7Y1543D01*
X3240Y1543D02*
X3247Y1543D01*
X0Y1542D02*
X7Y1542D01*
X3240Y1542D02*
X3247Y1542D01*
X0Y1541D02*
X7Y1541D01*
X3240Y1541D02*
X3247Y1541D01*
X0Y1540D02*
X7Y1540D01*
X3240Y1540D02*
X3247Y1540D01*
X0Y1539D02*
X7Y1539D01*
X3240Y1539D02*
X3247Y1539D01*
X0Y1538D02*
X7Y1538D01*
X3240Y1538D02*
X3247Y1538D01*
X0Y1537D02*
X7Y1537D01*
X3240Y1537D02*
X3247Y1537D01*
X0Y1536D02*
X7Y1536D01*
X3240Y1536D02*
X3247Y1536D01*
X0Y1535D02*
X7Y1535D01*
X3240Y1535D02*
X3247Y1535D01*
X0Y1534D02*
X7Y1534D01*
X3240Y1534D02*
X3247Y1534D01*
X0Y1533D02*
X7Y1533D01*
X3240Y1533D02*
X3247Y1533D01*
X0Y1532D02*
X7Y1532D01*
X3240Y1532D02*
X3247Y1532D01*
X0Y1531D02*
X7Y1531D01*
X3240Y1531D02*
X3247Y1531D01*
X0Y1530D02*
X7Y1530D01*
X3240Y1530D02*
X3247Y1530D01*
X0Y1529D02*
X7Y1529D01*
X3240Y1529D02*
X3247Y1529D01*
X0Y1528D02*
X7Y1528D01*
X3240Y1528D02*
X3247Y1528D01*
X0Y1527D02*
X7Y1527D01*
X3240Y1527D02*
X3247Y1527D01*
X0Y1526D02*
X7Y1526D01*
X3240Y1526D02*
X3247Y1526D01*
X0Y1525D02*
X7Y1525D01*
X3240Y1525D02*
X3247Y1525D01*
X0Y1524D02*
X7Y1524D01*
X3240Y1524D02*
X3247Y1524D01*
X0Y1523D02*
X7Y1523D01*
X3240Y1523D02*
X3247Y1523D01*
X0Y1522D02*
X7Y1522D01*
X3240Y1522D02*
X3247Y1522D01*
X0Y1521D02*
X7Y1521D01*
X3240Y1521D02*
X3247Y1521D01*
X0Y1520D02*
X7Y1520D01*
X3240Y1520D02*
X3247Y1520D01*
X0Y1519D02*
X7Y1519D01*
X3240Y1519D02*
X3247Y1519D01*
X0Y1518D02*
X7Y1518D01*
X3240Y1518D02*
X3247Y1518D01*
X0Y1517D02*
X7Y1517D01*
X3240Y1517D02*
X3247Y1517D01*
X0Y1516D02*
X7Y1516D01*
X3240Y1516D02*
X3247Y1516D01*
X0Y1515D02*
X7Y1515D01*
X3240Y1515D02*
X3247Y1515D01*
X0Y1514D02*
X7Y1514D01*
X3240Y1514D02*
X3247Y1514D01*
X0Y1513D02*
X7Y1513D01*
X3240Y1513D02*
X3247Y1513D01*
X0Y1512D02*
X7Y1512D01*
X3240Y1512D02*
X3247Y1512D01*
X0Y1511D02*
X7Y1511D01*
X3240Y1511D02*
X3247Y1511D01*
X0Y1510D02*
X7Y1510D01*
X3240Y1510D02*
X3247Y1510D01*
X0Y1509D02*
X7Y1509D01*
X3240Y1509D02*
X3247Y1509D01*
X0Y1508D02*
X7Y1508D01*
X3240Y1508D02*
X3247Y1508D01*
X0Y1507D02*
X7Y1507D01*
X3240Y1507D02*
X3247Y1507D01*
X0Y1506D02*
X7Y1506D01*
X3240Y1506D02*
X3247Y1506D01*
X0Y1505D02*
X7Y1505D01*
X3240Y1505D02*
X3247Y1505D01*
X0Y1504D02*
X7Y1504D01*
X3240Y1504D02*
X3247Y1504D01*
X0Y1503D02*
X7Y1503D01*
X3240Y1503D02*
X3247Y1503D01*
X0Y1502D02*
X7Y1502D01*
X3240Y1502D02*
X3247Y1502D01*
X0Y1501D02*
X7Y1501D01*
X3240Y1501D02*
X3247Y1501D01*
X0Y1500D02*
X7Y1500D01*
X3240Y1500D02*
X3247Y1500D01*
X0Y1499D02*
X7Y1499D01*
X3240Y1499D02*
X3247Y1499D01*
X0Y1498D02*
X7Y1498D01*
X3240Y1498D02*
X3247Y1498D01*
X0Y1497D02*
X7Y1497D01*
X3240Y1497D02*
X3247Y1497D01*
X0Y1496D02*
X7Y1496D01*
X3240Y1496D02*
X3247Y1496D01*
X0Y1495D02*
X7Y1495D01*
X3240Y1495D02*
X3247Y1495D01*
X0Y1494D02*
X7Y1494D01*
X3240Y1494D02*
X3247Y1494D01*
X0Y1493D02*
X7Y1493D01*
X3240Y1493D02*
X3247Y1493D01*
X0Y1492D02*
X7Y1492D01*
X3240Y1492D02*
X3247Y1492D01*
X0Y1491D02*
X7Y1491D01*
X3240Y1491D02*
X3247Y1491D01*
X0Y1490D02*
X7Y1490D01*
X3240Y1490D02*
X3247Y1490D01*
X0Y1489D02*
X7Y1489D01*
X3240Y1489D02*
X3247Y1489D01*
X0Y1488D02*
X7Y1488D01*
X3240Y1488D02*
X3247Y1488D01*
X0Y1487D02*
X7Y1487D01*
X3240Y1487D02*
X3247Y1487D01*
X0Y1486D02*
X7Y1486D01*
X3240Y1486D02*
X3247Y1486D01*
X0Y1485D02*
X7Y1485D01*
X3240Y1485D02*
X3247Y1485D01*
X0Y1484D02*
X7Y1484D01*
X3240Y1484D02*
X3247Y1484D01*
X0Y1483D02*
X7Y1483D01*
X3240Y1483D02*
X3247Y1483D01*
X0Y1482D02*
X7Y1482D01*
X3240Y1482D02*
X3247Y1482D01*
X0Y1481D02*
X7Y1481D01*
X3240Y1481D02*
X3247Y1481D01*
X0Y1480D02*
X7Y1480D01*
X3240Y1480D02*
X3247Y1480D01*
X0Y1479D02*
X7Y1479D01*
X3240Y1479D02*
X3247Y1479D01*
X0Y1478D02*
X7Y1478D01*
X3240Y1478D02*
X3247Y1478D01*
X0Y1477D02*
X7Y1477D01*
X3240Y1477D02*
X3247Y1477D01*
X0Y1476D02*
X7Y1476D01*
X3240Y1476D02*
X3247Y1476D01*
X0Y1475D02*
X7Y1475D01*
X3240Y1475D02*
X3247Y1475D01*
X0Y1474D02*
X7Y1474D01*
X3240Y1474D02*
X3247Y1474D01*
X0Y1473D02*
X7Y1473D01*
X3240Y1473D02*
X3247Y1473D01*
X0Y1472D02*
X7Y1472D01*
X3240Y1472D02*
X3247Y1472D01*
X0Y1471D02*
X7Y1471D01*
X3240Y1471D02*
X3247Y1471D01*
X0Y1470D02*
X7Y1470D01*
X3240Y1470D02*
X3247Y1470D01*
X0Y1469D02*
X7Y1469D01*
X3240Y1469D02*
X3247Y1469D01*
X0Y1468D02*
X7Y1468D01*
X3240Y1468D02*
X3247Y1468D01*
X0Y1467D02*
X7Y1467D01*
X3240Y1467D02*
X3247Y1467D01*
X0Y1466D02*
X7Y1466D01*
X3240Y1466D02*
X3247Y1466D01*
X0Y1465D02*
X7Y1465D01*
X3240Y1465D02*
X3247Y1465D01*
X0Y1464D02*
X7Y1464D01*
X3240Y1464D02*
X3247Y1464D01*
X0Y1463D02*
X7Y1463D01*
X3240Y1463D02*
X3247Y1463D01*
X0Y1462D02*
X7Y1462D01*
X3240Y1462D02*
X3247Y1462D01*
X0Y1461D02*
X7Y1461D01*
X3240Y1461D02*
X3247Y1461D01*
X0Y1460D02*
X7Y1460D01*
X3240Y1460D02*
X3247Y1460D01*
X0Y1459D02*
X7Y1459D01*
X3240Y1459D02*
X3247Y1459D01*
X0Y1458D02*
X7Y1458D01*
X3240Y1458D02*
X3247Y1458D01*
X0Y1457D02*
X7Y1457D01*
X3240Y1457D02*
X3247Y1457D01*
X0Y1456D02*
X7Y1456D01*
X3240Y1456D02*
X3247Y1456D01*
X0Y1455D02*
X7Y1455D01*
X3240Y1455D02*
X3247Y1455D01*
X0Y1454D02*
X7Y1454D01*
X3240Y1454D02*
X3247Y1454D01*
X0Y1453D02*
X7Y1453D01*
X3240Y1453D02*
X3247Y1453D01*
X0Y1452D02*
X7Y1452D01*
X3240Y1452D02*
X3247Y1452D01*
X0Y1451D02*
X7Y1451D01*
X3240Y1451D02*
X3247Y1451D01*
X0Y1450D02*
X7Y1450D01*
X3240Y1450D02*
X3247Y1450D01*
X0Y1449D02*
X7Y1449D01*
X3240Y1449D02*
X3247Y1449D01*
X0Y1448D02*
X7Y1448D01*
X3240Y1448D02*
X3247Y1448D01*
X0Y1447D02*
X7Y1447D01*
X3240Y1447D02*
X3247Y1447D01*
X0Y1446D02*
X7Y1446D01*
X3240Y1446D02*
X3247Y1446D01*
X0Y1445D02*
X7Y1445D01*
X3240Y1445D02*
X3247Y1445D01*
X0Y1444D02*
X7Y1444D01*
X3240Y1444D02*
X3247Y1444D01*
X0Y1443D02*
X7Y1443D01*
X3240Y1443D02*
X3247Y1443D01*
X0Y1442D02*
X7Y1442D01*
X3240Y1442D02*
X3247Y1442D01*
X0Y1441D02*
X7Y1441D01*
X3240Y1441D02*
X3247Y1441D01*
X0Y1440D02*
X7Y1440D01*
X3240Y1440D02*
X3247Y1440D01*
X0Y1439D02*
X7Y1439D01*
X3240Y1439D02*
X3247Y1439D01*
X0Y1438D02*
X7Y1438D01*
X3240Y1438D02*
X3247Y1438D01*
X0Y1437D02*
X7Y1437D01*
X3240Y1437D02*
X3247Y1437D01*
X0Y1436D02*
X7Y1436D01*
X3240Y1436D02*
X3247Y1436D01*
X0Y1435D02*
X7Y1435D01*
X3240Y1435D02*
X3247Y1435D01*
X0Y1434D02*
X7Y1434D01*
X3240Y1434D02*
X3247Y1434D01*
X0Y1433D02*
X7Y1433D01*
X3240Y1433D02*
X3247Y1433D01*
X0Y1432D02*
X7Y1432D01*
X3240Y1432D02*
X3247Y1432D01*
X0Y1431D02*
X7Y1431D01*
X3240Y1431D02*
X3247Y1431D01*
X0Y1430D02*
X7Y1430D01*
X3240Y1430D02*
X3247Y1430D01*
X0Y1429D02*
X7Y1429D01*
X3240Y1429D02*
X3247Y1429D01*
X0Y1428D02*
X7Y1428D01*
X3240Y1428D02*
X3247Y1428D01*
X0Y1427D02*
X7Y1427D01*
X3240Y1427D02*
X3247Y1427D01*
X0Y1426D02*
X7Y1426D01*
X3240Y1426D02*
X3247Y1426D01*
X0Y1425D02*
X7Y1425D01*
X3240Y1425D02*
X3247Y1425D01*
X0Y1424D02*
X7Y1424D01*
X3240Y1424D02*
X3247Y1424D01*
X0Y1423D02*
X7Y1423D01*
X3240Y1423D02*
X3247Y1423D01*
X0Y1422D02*
X7Y1422D01*
X3240Y1422D02*
X3247Y1422D01*
X0Y1421D02*
X7Y1421D01*
X3240Y1421D02*
X3247Y1421D01*
X0Y1420D02*
X7Y1420D01*
X3240Y1420D02*
X3247Y1420D01*
X0Y1419D02*
X7Y1419D01*
X3240Y1419D02*
X3247Y1419D01*
X0Y1418D02*
X7Y1418D01*
X3240Y1418D02*
X3247Y1418D01*
X0Y1417D02*
X7Y1417D01*
X3240Y1417D02*
X3247Y1417D01*
X0Y1416D02*
X7Y1416D01*
X3240Y1416D02*
X3247Y1416D01*
X0Y1415D02*
X7Y1415D01*
X3240Y1415D02*
X3247Y1415D01*
X0Y1414D02*
X7Y1414D01*
X3240Y1414D02*
X3247Y1414D01*
X0Y1413D02*
X7Y1413D01*
X3240Y1413D02*
X3247Y1413D01*
X0Y1412D02*
X7Y1412D01*
X3240Y1412D02*
X3247Y1412D01*
X0Y1411D02*
X7Y1411D01*
X3240Y1411D02*
X3247Y1411D01*
X0Y1410D02*
X7Y1410D01*
X3240Y1410D02*
X3247Y1410D01*
X0Y1409D02*
X7Y1409D01*
X3240Y1409D02*
X3247Y1409D01*
X0Y1408D02*
X7Y1408D01*
X3240Y1408D02*
X3247Y1408D01*
X0Y1407D02*
X7Y1407D01*
X3240Y1407D02*
X3247Y1407D01*
X0Y1406D02*
X7Y1406D01*
X3240Y1406D02*
X3247Y1406D01*
X0Y1405D02*
X7Y1405D01*
X3240Y1405D02*
X3247Y1405D01*
X0Y1404D02*
X7Y1404D01*
X3240Y1404D02*
X3247Y1404D01*
X0Y1403D02*
X7Y1403D01*
X3240Y1403D02*
X3247Y1403D01*
X0Y1402D02*
X7Y1402D01*
X3240Y1402D02*
X3247Y1402D01*
X0Y1401D02*
X7Y1401D01*
X3240Y1401D02*
X3247Y1401D01*
X0Y1400D02*
X7Y1400D01*
X3240Y1400D02*
X3247Y1400D01*
X0Y1399D02*
X7Y1399D01*
X3240Y1399D02*
X3247Y1399D01*
X0Y1398D02*
X7Y1398D01*
X3240Y1398D02*
X3247Y1398D01*
X0Y1397D02*
X7Y1397D01*
X3240Y1397D02*
X3247Y1397D01*
X0Y1396D02*
X7Y1396D01*
X3240Y1396D02*
X3247Y1396D01*
X0Y1395D02*
X7Y1395D01*
X3240Y1395D02*
X3247Y1395D01*
X0Y1394D02*
X7Y1394D01*
X3240Y1394D02*
X3247Y1394D01*
X0Y1393D02*
X7Y1393D01*
X3240Y1393D02*
X3247Y1393D01*
X0Y1392D02*
X7Y1392D01*
X3240Y1392D02*
X3247Y1392D01*
X0Y1391D02*
X7Y1391D01*
X3240Y1391D02*
X3247Y1391D01*
X0Y1390D02*
X7Y1390D01*
X3240Y1390D02*
X3247Y1390D01*
X0Y1389D02*
X7Y1389D01*
X3240Y1389D02*
X3247Y1389D01*
X0Y1388D02*
X7Y1388D01*
X3240Y1388D02*
X3247Y1388D01*
X0Y1387D02*
X7Y1387D01*
X3240Y1387D02*
X3247Y1387D01*
X0Y1386D02*
X7Y1386D01*
X3240Y1386D02*
X3247Y1386D01*
X0Y1385D02*
X7Y1385D01*
X3240Y1385D02*
X3247Y1385D01*
X0Y1384D02*
X7Y1384D01*
X3240Y1384D02*
X3247Y1384D01*
X0Y1383D02*
X7Y1383D01*
X3240Y1383D02*
X3247Y1383D01*
X0Y1382D02*
X7Y1382D01*
X3240Y1382D02*
X3247Y1382D01*
X0Y1381D02*
X7Y1381D01*
X3240Y1381D02*
X3247Y1381D01*
X0Y1380D02*
X7Y1380D01*
X3240Y1380D02*
X3247Y1380D01*
X0Y1379D02*
X7Y1379D01*
X3240Y1379D02*
X3247Y1379D01*
X0Y1378D02*
X7Y1378D01*
X3240Y1378D02*
X3247Y1378D01*
X0Y1377D02*
X7Y1377D01*
X3240Y1377D02*
X3247Y1377D01*
X0Y1376D02*
X7Y1376D01*
X3240Y1376D02*
X3247Y1376D01*
X0Y1375D02*
X7Y1375D01*
X3240Y1375D02*
X3247Y1375D01*
X0Y1374D02*
X7Y1374D01*
X3240Y1374D02*
X3247Y1374D01*
X0Y1373D02*
X7Y1373D01*
X3240Y1373D02*
X3247Y1373D01*
X0Y1372D02*
X7Y1372D01*
X3240Y1372D02*
X3247Y1372D01*
X0Y1371D02*
X7Y1371D01*
X3240Y1371D02*
X3247Y1371D01*
X0Y1370D02*
X7Y1370D01*
X3240Y1370D02*
X3247Y1370D01*
X0Y1369D02*
X7Y1369D01*
X3240Y1369D02*
X3247Y1369D01*
X0Y1368D02*
X7Y1368D01*
X3240Y1368D02*
X3247Y1368D01*
X0Y1367D02*
X7Y1367D01*
X3240Y1367D02*
X3247Y1367D01*
X0Y1366D02*
X7Y1366D01*
X3240Y1366D02*
X3247Y1366D01*
X0Y1365D02*
X7Y1365D01*
X3240Y1365D02*
X3247Y1365D01*
X0Y1364D02*
X7Y1364D01*
X3240Y1364D02*
X3247Y1364D01*
X0Y1363D02*
X7Y1363D01*
X3240Y1363D02*
X3247Y1363D01*
X0Y1362D02*
X7Y1362D01*
X3240Y1362D02*
X3247Y1362D01*
X0Y1361D02*
X7Y1361D01*
X3240Y1361D02*
X3247Y1361D01*
X0Y1360D02*
X7Y1360D01*
X3240Y1360D02*
X3247Y1360D01*
X0Y1359D02*
X7Y1359D01*
X3240Y1359D02*
X3247Y1359D01*
X0Y1358D02*
X7Y1358D01*
X3240Y1358D02*
X3247Y1358D01*
X0Y1357D02*
X7Y1357D01*
X3240Y1357D02*
X3247Y1357D01*
X0Y1356D02*
X7Y1356D01*
X3240Y1356D02*
X3247Y1356D01*
X0Y1355D02*
X7Y1355D01*
X3240Y1355D02*
X3247Y1355D01*
X0Y1354D02*
X7Y1354D01*
X3240Y1354D02*
X3247Y1354D01*
X0Y1353D02*
X7Y1353D01*
X3240Y1353D02*
X3247Y1353D01*
X0Y1352D02*
X7Y1352D01*
X3240Y1352D02*
X3247Y1352D01*
X0Y1351D02*
X7Y1351D01*
X3240Y1351D02*
X3247Y1351D01*
X0Y1350D02*
X7Y1350D01*
X3240Y1350D02*
X3247Y1350D01*
X0Y1349D02*
X7Y1349D01*
X3240Y1349D02*
X3247Y1349D01*
X0Y1348D02*
X7Y1348D01*
X3240Y1348D02*
X3247Y1348D01*
X0Y1347D02*
X7Y1347D01*
X3240Y1347D02*
X3247Y1347D01*
X0Y1346D02*
X7Y1346D01*
X3240Y1346D02*
X3247Y1346D01*
X0Y1345D02*
X7Y1345D01*
X3240Y1345D02*
X3247Y1345D01*
X0Y1344D02*
X7Y1344D01*
X3240Y1344D02*
X3247Y1344D01*
X0Y1343D02*
X7Y1343D01*
X3240Y1343D02*
X3247Y1343D01*
X0Y1342D02*
X7Y1342D01*
X3240Y1342D02*
X3247Y1342D01*
X0Y1341D02*
X7Y1341D01*
X3240Y1341D02*
X3247Y1341D01*
X0Y1340D02*
X7Y1340D01*
X3240Y1340D02*
X3247Y1340D01*
X0Y1339D02*
X7Y1339D01*
X3240Y1339D02*
X3247Y1339D01*
X0Y1338D02*
X7Y1338D01*
X3240Y1338D02*
X3247Y1338D01*
X0Y1337D02*
X7Y1337D01*
X3240Y1337D02*
X3247Y1337D01*
X0Y1336D02*
X7Y1336D01*
X3240Y1336D02*
X3247Y1336D01*
X0Y1335D02*
X7Y1335D01*
X3240Y1335D02*
X3247Y1335D01*
X0Y1334D02*
X7Y1334D01*
X3240Y1334D02*
X3247Y1334D01*
X0Y1333D02*
X7Y1333D01*
X3240Y1333D02*
X3247Y1333D01*
X0Y1332D02*
X7Y1332D01*
X3240Y1332D02*
X3247Y1332D01*
X0Y1331D02*
X7Y1331D01*
X3240Y1331D02*
X3247Y1331D01*
X0Y1330D02*
X7Y1330D01*
X3240Y1330D02*
X3247Y1330D01*
X0Y1329D02*
X7Y1329D01*
X3240Y1329D02*
X3247Y1329D01*
X0Y1328D02*
X7Y1328D01*
X3240Y1328D02*
X3247Y1328D01*
X0Y1327D02*
X7Y1327D01*
X3240Y1327D02*
X3247Y1327D01*
X0Y1326D02*
X7Y1326D01*
X3240Y1326D02*
X3247Y1326D01*
X0Y1325D02*
X7Y1325D01*
X3240Y1325D02*
X3247Y1325D01*
X0Y1324D02*
X7Y1324D01*
X3240Y1324D02*
X3247Y1324D01*
X0Y1323D02*
X7Y1323D01*
X3240Y1323D02*
X3247Y1323D01*
X0Y1322D02*
X7Y1322D01*
X3240Y1322D02*
X3247Y1322D01*
X0Y1321D02*
X7Y1321D01*
X3240Y1321D02*
X3247Y1321D01*
X0Y1320D02*
X7Y1320D01*
X3240Y1320D02*
X3247Y1320D01*
X0Y1319D02*
X7Y1319D01*
X3240Y1319D02*
X3247Y1319D01*
X0Y1318D02*
X7Y1318D01*
X3240Y1318D02*
X3247Y1318D01*
X0Y1317D02*
X7Y1317D01*
X3240Y1317D02*
X3247Y1317D01*
X0Y1316D02*
X7Y1316D01*
X3240Y1316D02*
X3247Y1316D01*
X0Y1315D02*
X7Y1315D01*
X3240Y1315D02*
X3247Y1315D01*
X0Y1314D02*
X7Y1314D01*
X3240Y1314D02*
X3247Y1314D01*
X0Y1313D02*
X7Y1313D01*
X3240Y1313D02*
X3247Y1313D01*
X0Y1312D02*
X7Y1312D01*
X3240Y1312D02*
X3247Y1312D01*
X0Y1311D02*
X7Y1311D01*
X3240Y1311D02*
X3247Y1311D01*
X0Y1310D02*
X7Y1310D01*
X3240Y1310D02*
X3247Y1310D01*
X0Y1309D02*
X7Y1309D01*
X3240Y1309D02*
X3247Y1309D01*
X0Y1308D02*
X7Y1308D01*
X3240Y1308D02*
X3247Y1308D01*
X0Y1307D02*
X7Y1307D01*
X3240Y1307D02*
X3247Y1307D01*
X0Y1306D02*
X7Y1306D01*
X3240Y1306D02*
X3247Y1306D01*
X0Y1305D02*
X7Y1305D01*
X3240Y1305D02*
X3247Y1305D01*
X0Y1304D02*
X7Y1304D01*
X3240Y1304D02*
X3247Y1304D01*
X0Y1303D02*
X7Y1303D01*
X3240Y1303D02*
X3247Y1303D01*
X0Y1302D02*
X7Y1302D01*
X3240Y1302D02*
X3247Y1302D01*
X0Y1301D02*
X7Y1301D01*
X3240Y1301D02*
X3247Y1301D01*
X0Y1300D02*
X7Y1300D01*
X3240Y1300D02*
X3247Y1300D01*
X0Y1299D02*
X7Y1299D01*
X3240Y1299D02*
X3247Y1299D01*
X0Y1298D02*
X7Y1298D01*
X3240Y1298D02*
X3247Y1298D01*
X0Y1297D02*
X7Y1297D01*
X3240Y1297D02*
X3247Y1297D01*
X0Y1296D02*
X7Y1296D01*
X3240Y1296D02*
X3247Y1296D01*
X0Y1295D02*
X7Y1295D01*
X3240Y1295D02*
X3247Y1295D01*
X0Y1294D02*
X7Y1294D01*
X3240Y1294D02*
X3247Y1294D01*
X0Y1293D02*
X7Y1293D01*
X3240Y1293D02*
X3247Y1293D01*
X0Y1292D02*
X7Y1292D01*
X3240Y1292D02*
X3247Y1292D01*
X0Y1291D02*
X7Y1291D01*
X3240Y1291D02*
X3247Y1291D01*
X0Y1290D02*
X7Y1290D01*
X3240Y1290D02*
X3247Y1290D01*
X0Y1289D02*
X7Y1289D01*
X3240Y1289D02*
X3247Y1289D01*
X0Y1288D02*
X7Y1288D01*
X3240Y1288D02*
X3247Y1288D01*
X0Y1287D02*
X7Y1287D01*
X3240Y1287D02*
X3247Y1287D01*
X0Y1286D02*
X7Y1286D01*
X3240Y1286D02*
X3247Y1286D01*
X0Y1285D02*
X7Y1285D01*
X3240Y1285D02*
X3247Y1285D01*
X0Y1284D02*
X7Y1284D01*
X3240Y1284D02*
X3247Y1284D01*
X0Y1283D02*
X7Y1283D01*
X3240Y1283D02*
X3247Y1283D01*
X0Y1282D02*
X7Y1282D01*
X3240Y1282D02*
X3247Y1282D01*
X0Y1281D02*
X7Y1281D01*
X3240Y1281D02*
X3247Y1281D01*
X0Y1280D02*
X7Y1280D01*
X3240Y1280D02*
X3247Y1280D01*
X0Y1279D02*
X7Y1279D01*
X3240Y1279D02*
X3247Y1279D01*
X0Y1278D02*
X7Y1278D01*
X3240Y1278D02*
X3247Y1278D01*
X0Y1277D02*
X7Y1277D01*
X3240Y1277D02*
X3247Y1277D01*
X0Y1276D02*
X7Y1276D01*
X3240Y1276D02*
X3247Y1276D01*
X0Y1275D02*
X7Y1275D01*
X3240Y1275D02*
X3247Y1275D01*
X0Y1274D02*
X7Y1274D01*
X3240Y1274D02*
X3247Y1274D01*
X0Y1273D02*
X7Y1273D01*
X3240Y1273D02*
X3247Y1273D01*
X0Y1272D02*
X7Y1272D01*
X3240Y1272D02*
X3247Y1272D01*
X0Y1271D02*
X7Y1271D01*
X3240Y1271D02*
X3247Y1271D01*
X0Y1270D02*
X7Y1270D01*
X3240Y1270D02*
X3247Y1270D01*
X0Y1269D02*
X7Y1269D01*
X3240Y1269D02*
X3247Y1269D01*
X0Y1268D02*
X7Y1268D01*
X3240Y1268D02*
X3247Y1268D01*
X0Y1267D02*
X7Y1267D01*
X3240Y1267D02*
X3247Y1267D01*
X0Y1266D02*
X7Y1266D01*
X3240Y1266D02*
X3247Y1266D01*
X0Y1265D02*
X7Y1265D01*
X3240Y1265D02*
X3247Y1265D01*
X0Y1264D02*
X7Y1264D01*
X3240Y1264D02*
X3247Y1264D01*
X0Y1263D02*
X7Y1263D01*
X3240Y1263D02*
X3247Y1263D01*
X0Y1262D02*
X7Y1262D01*
X3240Y1262D02*
X3247Y1262D01*
X0Y1261D02*
X7Y1261D01*
X3240Y1261D02*
X3247Y1261D01*
X0Y1260D02*
X7Y1260D01*
X3240Y1260D02*
X3247Y1260D01*
X0Y1259D02*
X7Y1259D01*
X3240Y1259D02*
X3247Y1259D01*
X0Y1258D02*
X7Y1258D01*
X3240Y1258D02*
X3247Y1258D01*
X0Y1257D02*
X7Y1257D01*
X3240Y1257D02*
X3247Y1257D01*
X0Y1256D02*
X7Y1256D01*
X3240Y1256D02*
X3247Y1256D01*
X0Y1255D02*
X7Y1255D01*
X3240Y1255D02*
X3247Y1255D01*
X0Y1254D02*
X7Y1254D01*
X3240Y1254D02*
X3247Y1254D01*
X0Y1253D02*
X7Y1253D01*
X3240Y1253D02*
X3247Y1253D01*
X0Y1252D02*
X7Y1252D01*
X3240Y1252D02*
X3247Y1252D01*
X0Y1251D02*
X7Y1251D01*
X3240Y1251D02*
X3247Y1251D01*
X0Y1250D02*
X7Y1250D01*
X3240Y1250D02*
X3247Y1250D01*
X0Y1249D02*
X7Y1249D01*
X3240Y1249D02*
X3247Y1249D01*
X0Y1248D02*
X7Y1248D01*
X3240Y1248D02*
X3247Y1248D01*
X0Y1247D02*
X7Y1247D01*
X3240Y1247D02*
X3247Y1247D01*
X0Y1246D02*
X7Y1246D01*
X3240Y1246D02*
X3247Y1246D01*
X0Y1245D02*
X7Y1245D01*
X3240Y1245D02*
X3247Y1245D01*
X0Y1244D02*
X7Y1244D01*
X3240Y1244D02*
X3247Y1244D01*
X0Y1243D02*
X7Y1243D01*
X3240Y1243D02*
X3247Y1243D01*
X0Y1242D02*
X7Y1242D01*
X3240Y1242D02*
X3247Y1242D01*
X0Y1241D02*
X7Y1241D01*
X3240Y1241D02*
X3247Y1241D01*
X0Y1240D02*
X7Y1240D01*
X3240Y1240D02*
X3247Y1240D01*
X0Y1239D02*
X7Y1239D01*
X3240Y1239D02*
X3247Y1239D01*
X0Y1238D02*
X7Y1238D01*
X3240Y1238D02*
X3247Y1238D01*
X0Y1237D02*
X7Y1237D01*
X3240Y1237D02*
X3247Y1237D01*
X0Y1236D02*
X7Y1236D01*
X3240Y1236D02*
X3247Y1236D01*
X0Y1235D02*
X7Y1235D01*
X3240Y1235D02*
X3247Y1235D01*
X0Y1234D02*
X7Y1234D01*
X3240Y1234D02*
X3247Y1234D01*
X0Y1233D02*
X7Y1233D01*
X3240Y1233D02*
X3247Y1233D01*
X0Y1232D02*
X7Y1232D01*
X3240Y1232D02*
X3247Y1232D01*
X0Y1231D02*
X7Y1231D01*
X3240Y1231D02*
X3247Y1231D01*
X0Y1230D02*
X7Y1230D01*
X3240Y1230D02*
X3247Y1230D01*
X0Y1229D02*
X7Y1229D01*
X3240Y1229D02*
X3247Y1229D01*
X0Y1228D02*
X7Y1228D01*
X3240Y1228D02*
X3247Y1228D01*
X0Y1227D02*
X7Y1227D01*
X3240Y1227D02*
X3247Y1227D01*
X0Y1226D02*
X7Y1226D01*
X3240Y1226D02*
X3247Y1226D01*
X0Y1225D02*
X7Y1225D01*
X3240Y1225D02*
X3247Y1225D01*
X0Y1224D02*
X7Y1224D01*
X3240Y1224D02*
X3247Y1224D01*
X0Y1223D02*
X7Y1223D01*
X3240Y1223D02*
X3247Y1223D01*
X0Y1222D02*
X7Y1222D01*
X3240Y1222D02*
X3247Y1222D01*
X0Y1221D02*
X7Y1221D01*
X3240Y1221D02*
X3247Y1221D01*
X0Y1220D02*
X7Y1220D01*
X3240Y1220D02*
X3247Y1220D01*
X0Y1219D02*
X7Y1219D01*
X3240Y1219D02*
X3247Y1219D01*
X0Y1218D02*
X7Y1218D01*
X3240Y1218D02*
X3247Y1218D01*
X0Y1217D02*
X7Y1217D01*
X3240Y1217D02*
X3247Y1217D01*
X0Y1216D02*
X7Y1216D01*
X3240Y1216D02*
X3247Y1216D01*
X0Y1215D02*
X7Y1215D01*
X3240Y1215D02*
X3247Y1215D01*
X0Y1214D02*
X7Y1214D01*
X3240Y1214D02*
X3247Y1214D01*
X0Y1213D02*
X7Y1213D01*
X3240Y1213D02*
X3247Y1213D01*
X0Y1212D02*
X7Y1212D01*
X3240Y1212D02*
X3247Y1212D01*
X0Y1211D02*
X7Y1211D01*
X3240Y1211D02*
X3247Y1211D01*
X0Y1210D02*
X7Y1210D01*
X3240Y1210D02*
X3247Y1210D01*
X0Y1209D02*
X7Y1209D01*
X3240Y1209D02*
X3247Y1209D01*
X0Y1208D02*
X7Y1208D01*
X3240Y1208D02*
X3247Y1208D01*
X0Y1207D02*
X7Y1207D01*
X3240Y1207D02*
X3247Y1207D01*
X0Y1206D02*
X7Y1206D01*
X3240Y1206D02*
X3247Y1206D01*
X0Y1205D02*
X7Y1205D01*
X3240Y1205D02*
X3247Y1205D01*
X0Y1204D02*
X7Y1204D01*
X3240Y1204D02*
X3247Y1204D01*
X0Y1203D02*
X7Y1203D01*
X3240Y1203D02*
X3247Y1203D01*
X0Y1202D02*
X7Y1202D01*
X3240Y1202D02*
X3247Y1202D01*
X0Y1201D02*
X7Y1201D01*
X3240Y1201D02*
X3247Y1201D01*
X0Y1200D02*
X7Y1200D01*
X3240Y1200D02*
X3247Y1200D01*
X0Y1199D02*
X7Y1199D01*
X3240Y1199D02*
X3247Y1199D01*
X0Y1198D02*
X7Y1198D01*
X3240Y1198D02*
X3247Y1198D01*
X0Y1197D02*
X7Y1197D01*
X3240Y1197D02*
X3247Y1197D01*
X0Y1196D02*
X7Y1196D01*
X3240Y1196D02*
X3247Y1196D01*
X0Y1195D02*
X7Y1195D01*
X3240Y1195D02*
X3247Y1195D01*
X0Y1194D02*
X7Y1194D01*
X3240Y1194D02*
X3247Y1194D01*
X0Y1193D02*
X7Y1193D01*
X3240Y1193D02*
X3247Y1193D01*
X0Y1192D02*
X7Y1192D01*
X3240Y1192D02*
X3247Y1192D01*
X0Y1191D02*
X7Y1191D01*
X3240Y1191D02*
X3247Y1191D01*
X0Y1190D02*
X7Y1190D01*
X3240Y1190D02*
X3247Y1190D01*
X0Y1189D02*
X7Y1189D01*
X3240Y1189D02*
X3247Y1189D01*
X0Y1188D02*
X7Y1188D01*
X3240Y1188D02*
X3247Y1188D01*
X0Y1187D02*
X7Y1187D01*
X3240Y1187D02*
X3247Y1187D01*
X0Y1186D02*
X7Y1186D01*
X3240Y1186D02*
X3247Y1186D01*
X0Y1185D02*
X7Y1185D01*
X3240Y1185D02*
X3247Y1185D01*
X0Y1184D02*
X7Y1184D01*
X3240Y1184D02*
X3247Y1184D01*
X0Y1183D02*
X7Y1183D01*
X3240Y1183D02*
X3247Y1183D01*
X0Y1182D02*
X7Y1182D01*
X3240Y1182D02*
X3247Y1182D01*
X0Y1181D02*
X7Y1181D01*
X3240Y1181D02*
X3247Y1181D01*
X0Y1180D02*
X7Y1180D01*
X3240Y1180D02*
X3247Y1180D01*
X0Y1179D02*
X7Y1179D01*
X3240Y1179D02*
X3247Y1179D01*
X0Y1178D02*
X7Y1178D01*
X3240Y1178D02*
X3247Y1178D01*
X0Y1177D02*
X7Y1177D01*
X3240Y1177D02*
X3247Y1177D01*
X0Y1176D02*
X7Y1176D01*
X3240Y1176D02*
X3247Y1176D01*
X0Y1175D02*
X7Y1175D01*
X3240Y1175D02*
X3247Y1175D01*
X0Y1174D02*
X7Y1174D01*
X3240Y1174D02*
X3247Y1174D01*
X0Y1173D02*
X7Y1173D01*
X3240Y1173D02*
X3247Y1173D01*
X0Y1172D02*
X7Y1172D01*
X3240Y1172D02*
X3247Y1172D01*
X0Y1171D02*
X7Y1171D01*
X3240Y1171D02*
X3247Y1171D01*
X0Y1170D02*
X7Y1170D01*
X3240Y1170D02*
X3247Y1170D01*
X0Y1169D02*
X7Y1169D01*
X3240Y1169D02*
X3247Y1169D01*
X0Y1168D02*
X7Y1168D01*
X3240Y1168D02*
X3247Y1168D01*
X0Y1167D02*
X7Y1167D01*
X3240Y1167D02*
X3247Y1167D01*
X0Y1166D02*
X7Y1166D01*
X3240Y1166D02*
X3247Y1166D01*
X0Y1165D02*
X7Y1165D01*
X3240Y1165D02*
X3247Y1165D01*
X0Y1164D02*
X7Y1164D01*
X3240Y1164D02*
X3247Y1164D01*
X0Y1163D02*
X7Y1163D01*
X3240Y1163D02*
X3247Y1163D01*
X0Y1162D02*
X7Y1162D01*
X3240Y1162D02*
X3247Y1162D01*
X0Y1161D02*
X7Y1161D01*
X3240Y1161D02*
X3247Y1161D01*
X0Y1160D02*
X7Y1160D01*
X3240Y1160D02*
X3247Y1160D01*
X0Y1159D02*
X7Y1159D01*
X3240Y1159D02*
X3247Y1159D01*
X0Y1158D02*
X7Y1158D01*
X3240Y1158D02*
X3247Y1158D01*
X0Y1157D02*
X7Y1157D01*
X3240Y1157D02*
X3247Y1157D01*
X0Y1156D02*
X7Y1156D01*
X3240Y1156D02*
X3247Y1156D01*
X0Y1155D02*
X7Y1155D01*
X3240Y1155D02*
X3247Y1155D01*
X0Y1154D02*
X7Y1154D01*
X3240Y1154D02*
X3247Y1154D01*
X0Y1153D02*
X7Y1153D01*
X3240Y1153D02*
X3247Y1153D01*
X0Y1152D02*
X7Y1152D01*
X3240Y1152D02*
X3247Y1152D01*
X0Y1151D02*
X7Y1151D01*
X3240Y1151D02*
X3247Y1151D01*
X0Y1150D02*
X7Y1150D01*
X3240Y1150D02*
X3247Y1150D01*
X0Y1149D02*
X7Y1149D01*
X3240Y1149D02*
X3247Y1149D01*
X0Y1148D02*
X7Y1148D01*
X3240Y1148D02*
X3247Y1148D01*
X0Y1147D02*
X7Y1147D01*
X3240Y1147D02*
X3247Y1147D01*
X0Y1146D02*
X7Y1146D01*
X3240Y1146D02*
X3247Y1146D01*
X0Y1145D02*
X7Y1145D01*
X3240Y1145D02*
X3247Y1145D01*
X0Y1144D02*
X7Y1144D01*
X3240Y1144D02*
X3247Y1144D01*
X0Y1143D02*
X7Y1143D01*
X3240Y1143D02*
X3247Y1143D01*
X0Y1142D02*
X7Y1142D01*
X3240Y1142D02*
X3247Y1142D01*
X0Y1141D02*
X7Y1141D01*
X3240Y1141D02*
X3247Y1141D01*
X0Y1140D02*
X7Y1140D01*
X3240Y1140D02*
X3247Y1140D01*
X0Y1139D02*
X7Y1139D01*
X3240Y1139D02*
X3247Y1139D01*
X0Y1138D02*
X7Y1138D01*
X3240Y1138D02*
X3247Y1138D01*
X0Y1137D02*
X7Y1137D01*
X3240Y1137D02*
X3247Y1137D01*
X0Y1136D02*
X7Y1136D01*
X3240Y1136D02*
X3247Y1136D01*
X0Y1135D02*
X7Y1135D01*
X3240Y1135D02*
X3247Y1135D01*
X0Y1134D02*
X7Y1134D01*
X3240Y1134D02*
X3247Y1134D01*
X0Y1133D02*
X7Y1133D01*
X3240Y1133D02*
X3247Y1133D01*
X0Y1132D02*
X7Y1132D01*
X3240Y1132D02*
X3247Y1132D01*
X0Y1131D02*
X7Y1131D01*
X3240Y1131D02*
X3247Y1131D01*
X0Y1130D02*
X7Y1130D01*
X3240Y1130D02*
X3247Y1130D01*
X0Y1129D02*
X7Y1129D01*
X3240Y1129D02*
X3247Y1129D01*
X0Y1128D02*
X7Y1128D01*
X3240Y1128D02*
X3247Y1128D01*
X0Y1127D02*
X7Y1127D01*
X3240Y1127D02*
X3247Y1127D01*
X0Y1126D02*
X7Y1126D01*
X3240Y1126D02*
X3247Y1126D01*
X0Y1125D02*
X7Y1125D01*
X3240Y1125D02*
X3247Y1125D01*
X0Y1124D02*
X7Y1124D01*
X3240Y1124D02*
X3247Y1124D01*
X0Y1123D02*
X7Y1123D01*
X3240Y1123D02*
X3247Y1123D01*
X0Y1122D02*
X7Y1122D01*
X3240Y1122D02*
X3247Y1122D01*
X0Y1121D02*
X7Y1121D01*
X3240Y1121D02*
X3247Y1121D01*
X0Y1120D02*
X7Y1120D01*
X3240Y1120D02*
X3247Y1120D01*
X0Y1119D02*
X7Y1119D01*
X3240Y1119D02*
X3247Y1119D01*
X0Y1118D02*
X7Y1118D01*
X3240Y1118D02*
X3247Y1118D01*
X0Y1117D02*
X7Y1117D01*
X3240Y1117D02*
X3247Y1117D01*
X0Y1116D02*
X7Y1116D01*
X3240Y1116D02*
X3247Y1116D01*
X0Y1115D02*
X7Y1115D01*
X3240Y1115D02*
X3247Y1115D01*
X0Y1114D02*
X7Y1114D01*
X3240Y1114D02*
X3247Y1114D01*
X0Y1113D02*
X7Y1113D01*
X3240Y1113D02*
X3247Y1113D01*
X0Y1112D02*
X7Y1112D01*
X3240Y1112D02*
X3247Y1112D01*
X0Y1111D02*
X7Y1111D01*
X3240Y1111D02*
X3247Y1111D01*
X0Y1110D02*
X7Y1110D01*
X3240Y1110D02*
X3247Y1110D01*
X0Y1109D02*
X7Y1109D01*
X3240Y1109D02*
X3247Y1109D01*
X0Y1108D02*
X7Y1108D01*
X3240Y1108D02*
X3247Y1108D01*
X0Y1107D02*
X7Y1107D01*
X3240Y1107D02*
X3247Y1107D01*
X0Y1106D02*
X7Y1106D01*
X3240Y1106D02*
X3247Y1106D01*
X0Y1105D02*
X7Y1105D01*
X3240Y1105D02*
X3247Y1105D01*
X0Y1104D02*
X7Y1104D01*
X3240Y1104D02*
X3247Y1104D01*
X0Y1103D02*
X7Y1103D01*
X3240Y1103D02*
X3247Y1103D01*
X0Y1102D02*
X7Y1102D01*
X3240Y1102D02*
X3247Y1102D01*
X0Y1101D02*
X7Y1101D01*
X3240Y1101D02*
X3247Y1101D01*
X0Y1100D02*
X7Y1100D01*
X3240Y1100D02*
X3247Y1100D01*
X0Y1099D02*
X7Y1099D01*
X3240Y1099D02*
X3247Y1099D01*
X0Y1098D02*
X7Y1098D01*
X3240Y1098D02*
X3247Y1098D01*
X0Y1097D02*
X7Y1097D01*
X3240Y1097D02*
X3247Y1097D01*
X0Y1096D02*
X7Y1096D01*
X3240Y1096D02*
X3247Y1096D01*
X0Y1095D02*
X7Y1095D01*
X3240Y1095D02*
X3247Y1095D01*
X0Y1094D02*
X7Y1094D01*
X3240Y1094D02*
X3247Y1094D01*
X0Y1093D02*
X7Y1093D01*
X3240Y1093D02*
X3247Y1093D01*
X0Y1092D02*
X7Y1092D01*
X3240Y1092D02*
X3247Y1092D01*
X0Y1091D02*
X7Y1091D01*
X3240Y1091D02*
X3247Y1091D01*
X0Y1090D02*
X7Y1090D01*
X3240Y1090D02*
X3247Y1090D01*
X0Y1089D02*
X7Y1089D01*
X3240Y1089D02*
X3247Y1089D01*
X0Y1088D02*
X7Y1088D01*
X3240Y1088D02*
X3247Y1088D01*
X0Y1087D02*
X7Y1087D01*
X3240Y1087D02*
X3247Y1087D01*
X0Y1086D02*
X7Y1086D01*
X3240Y1086D02*
X3247Y1086D01*
X0Y1085D02*
X7Y1085D01*
X3240Y1085D02*
X3247Y1085D01*
X0Y1084D02*
X7Y1084D01*
X3240Y1084D02*
X3247Y1084D01*
X0Y1083D02*
X7Y1083D01*
X3240Y1083D02*
X3247Y1083D01*
X0Y1082D02*
X7Y1082D01*
X3240Y1082D02*
X3247Y1082D01*
X0Y1081D02*
X7Y1081D01*
X3240Y1081D02*
X3247Y1081D01*
X0Y1080D02*
X7Y1080D01*
X3240Y1080D02*
X3247Y1080D01*
X0Y1079D02*
X7Y1079D01*
X3240Y1079D02*
X3247Y1079D01*
X0Y1078D02*
X7Y1078D01*
X3240Y1078D02*
X3247Y1078D01*
X0Y1077D02*
X7Y1077D01*
X3240Y1077D02*
X3247Y1077D01*
X0Y1076D02*
X7Y1076D01*
X3240Y1076D02*
X3247Y1076D01*
X0Y1075D02*
X7Y1075D01*
X3240Y1075D02*
X3247Y1075D01*
X0Y1074D02*
X7Y1074D01*
X3240Y1074D02*
X3247Y1074D01*
X0Y1073D02*
X7Y1073D01*
X3240Y1073D02*
X3247Y1073D01*
X0Y1072D02*
X7Y1072D01*
X3240Y1072D02*
X3247Y1072D01*
X0Y1071D02*
X7Y1071D01*
X3240Y1071D02*
X3247Y1071D01*
X0Y1070D02*
X7Y1070D01*
X3240Y1070D02*
X3247Y1070D01*
X0Y1069D02*
X7Y1069D01*
X3240Y1069D02*
X3247Y1069D01*
X0Y1068D02*
X7Y1068D01*
X3240Y1068D02*
X3247Y1068D01*
X0Y1067D02*
X7Y1067D01*
X3240Y1067D02*
X3247Y1067D01*
X0Y1066D02*
X7Y1066D01*
X3240Y1066D02*
X3247Y1066D01*
X0Y1065D02*
X7Y1065D01*
X3240Y1065D02*
X3247Y1065D01*
X0Y1064D02*
X7Y1064D01*
X3240Y1064D02*
X3247Y1064D01*
X0Y1063D02*
X7Y1063D01*
X3240Y1063D02*
X3247Y1063D01*
X0Y1062D02*
X7Y1062D01*
X3240Y1062D02*
X3247Y1062D01*
X0Y1061D02*
X7Y1061D01*
X3240Y1061D02*
X3247Y1061D01*
X0Y1060D02*
X7Y1060D01*
X3240Y1060D02*
X3247Y1060D01*
X0Y1059D02*
X7Y1059D01*
X3240Y1059D02*
X3247Y1059D01*
X0Y1058D02*
X7Y1058D01*
X3240Y1058D02*
X3247Y1058D01*
X0Y1057D02*
X7Y1057D01*
X3240Y1057D02*
X3247Y1057D01*
X0Y1056D02*
X7Y1056D01*
X3240Y1056D02*
X3247Y1056D01*
X0Y1055D02*
X7Y1055D01*
X3240Y1055D02*
X3247Y1055D01*
X0Y1054D02*
X7Y1054D01*
X3240Y1054D02*
X3247Y1054D01*
X0Y1053D02*
X7Y1053D01*
X3240Y1053D02*
X3247Y1053D01*
X0Y1052D02*
X7Y1052D01*
X3240Y1052D02*
X3247Y1052D01*
X0Y1051D02*
X7Y1051D01*
X3240Y1051D02*
X3247Y1051D01*
X0Y1050D02*
X7Y1050D01*
X3240Y1050D02*
X3247Y1050D01*
X0Y1049D02*
X7Y1049D01*
X3240Y1049D02*
X3247Y1049D01*
X0Y1048D02*
X7Y1048D01*
X3240Y1048D02*
X3247Y1048D01*
X0Y1047D02*
X7Y1047D01*
X3240Y1047D02*
X3247Y1047D01*
X0Y1046D02*
X7Y1046D01*
X3240Y1046D02*
X3247Y1046D01*
X0Y1045D02*
X7Y1045D01*
X3240Y1045D02*
X3247Y1045D01*
X0Y1044D02*
X7Y1044D01*
X3240Y1044D02*
X3247Y1044D01*
X0Y1043D02*
X7Y1043D01*
X3240Y1043D02*
X3247Y1043D01*
X0Y1042D02*
X7Y1042D01*
X3240Y1042D02*
X3247Y1042D01*
X0Y1041D02*
X7Y1041D01*
X3240Y1041D02*
X3247Y1041D01*
X0Y1040D02*
X7Y1040D01*
X3240Y1040D02*
X3247Y1040D01*
X0Y1039D02*
X7Y1039D01*
X3240Y1039D02*
X3247Y1039D01*
X0Y1038D02*
X7Y1038D01*
X3240Y1038D02*
X3247Y1038D01*
X0Y1037D02*
X7Y1037D01*
X3240Y1037D02*
X3247Y1037D01*
X0Y1036D02*
X7Y1036D01*
X3240Y1036D02*
X3247Y1036D01*
X0Y1035D02*
X7Y1035D01*
X3240Y1035D02*
X3247Y1035D01*
X0Y1034D02*
X7Y1034D01*
X3240Y1034D02*
X3247Y1034D01*
X0Y1033D02*
X7Y1033D01*
X3240Y1033D02*
X3247Y1033D01*
X0Y1032D02*
X7Y1032D01*
X3240Y1032D02*
X3247Y1032D01*
X0Y1031D02*
X7Y1031D01*
X3240Y1031D02*
X3247Y1031D01*
X0Y1030D02*
X7Y1030D01*
X3240Y1030D02*
X3247Y1030D01*
X0Y1029D02*
X7Y1029D01*
X3240Y1029D02*
X3247Y1029D01*
X0Y1028D02*
X7Y1028D01*
X3240Y1028D02*
X3247Y1028D01*
X0Y1027D02*
X7Y1027D01*
X3240Y1027D02*
X3247Y1027D01*
X0Y1026D02*
X7Y1026D01*
X3240Y1026D02*
X3247Y1026D01*
X0Y1025D02*
X7Y1025D01*
X3240Y1025D02*
X3247Y1025D01*
X0Y1024D02*
X7Y1024D01*
X3240Y1024D02*
X3247Y1024D01*
X0Y1023D02*
X7Y1023D01*
X3240Y1023D02*
X3247Y1023D01*
X0Y1022D02*
X7Y1022D01*
X3240Y1022D02*
X3247Y1022D01*
X0Y1021D02*
X7Y1021D01*
X3240Y1021D02*
X3247Y1021D01*
X0Y1020D02*
X7Y1020D01*
X3240Y1020D02*
X3247Y1020D01*
X0Y1019D02*
X7Y1019D01*
X3240Y1019D02*
X3247Y1019D01*
X0Y1018D02*
X7Y1018D01*
X3240Y1018D02*
X3247Y1018D01*
X0Y1017D02*
X7Y1017D01*
X3240Y1017D02*
X3247Y1017D01*
X0Y1016D02*
X7Y1016D01*
X3240Y1016D02*
X3247Y1016D01*
X0Y1015D02*
X7Y1015D01*
X3240Y1015D02*
X3247Y1015D01*
X0Y1014D02*
X7Y1014D01*
X3240Y1014D02*
X3247Y1014D01*
X0Y1013D02*
X7Y1013D01*
X3240Y1013D02*
X3247Y1013D01*
X0Y1012D02*
X7Y1012D01*
X3240Y1012D02*
X3247Y1012D01*
X0Y1011D02*
X7Y1011D01*
X3240Y1011D02*
X3247Y1011D01*
X0Y1010D02*
X7Y1010D01*
X3240Y1010D02*
X3247Y1010D01*
X0Y1009D02*
X7Y1009D01*
X3240Y1009D02*
X3247Y1009D01*
X0Y1008D02*
X7Y1008D01*
X3240Y1008D02*
X3247Y1008D01*
X0Y1007D02*
X7Y1007D01*
X3240Y1007D02*
X3247Y1007D01*
X0Y1006D02*
X7Y1006D01*
X3240Y1006D02*
X3247Y1006D01*
X0Y1005D02*
X7Y1005D01*
X3240Y1005D02*
X3247Y1005D01*
X0Y1004D02*
X7Y1004D01*
X3240Y1004D02*
X3247Y1004D01*
X0Y1003D02*
X7Y1003D01*
X3240Y1003D02*
X3247Y1003D01*
X0Y1002D02*
X7Y1002D01*
X3240Y1002D02*
X3247Y1002D01*
X0Y1001D02*
X7Y1001D01*
X3240Y1001D02*
X3247Y1001D01*
X0Y1000D02*
X7Y1000D01*
X3240Y1000D02*
X3247Y1000D01*
X0Y999D02*
X7Y999D01*
X3240Y999D02*
X3247Y999D01*
X0Y998D02*
X7Y998D01*
X3240Y998D02*
X3247Y998D01*
X0Y997D02*
X7Y997D01*
X3240Y997D02*
X3247Y997D01*
X0Y996D02*
X7Y996D01*
X3240Y996D02*
X3247Y996D01*
X0Y995D02*
X7Y995D01*
X3240Y995D02*
X3247Y995D01*
X0Y994D02*
X7Y994D01*
X3240Y994D02*
X3247Y994D01*
X0Y993D02*
X7Y993D01*
X3240Y993D02*
X3247Y993D01*
X0Y992D02*
X7Y992D01*
X3240Y992D02*
X3247Y992D01*
X0Y991D02*
X7Y991D01*
X3240Y991D02*
X3247Y991D01*
X0Y990D02*
X7Y990D01*
X3240Y990D02*
X3247Y990D01*
X0Y989D02*
X7Y989D01*
X3240Y989D02*
X3247Y989D01*
X0Y988D02*
X7Y988D01*
X3240Y988D02*
X3247Y988D01*
X0Y987D02*
X7Y987D01*
X3240Y987D02*
X3247Y987D01*
X0Y986D02*
X7Y986D01*
X3240Y986D02*
X3247Y986D01*
X0Y985D02*
X7Y985D01*
X3240Y985D02*
X3247Y985D01*
X0Y984D02*
X7Y984D01*
X3240Y984D02*
X3247Y984D01*
X0Y983D02*
X7Y983D01*
X3240Y983D02*
X3247Y983D01*
X0Y982D02*
X7Y982D01*
X3240Y982D02*
X3247Y982D01*
X0Y981D02*
X7Y981D01*
X3240Y981D02*
X3247Y981D01*
X0Y980D02*
X7Y980D01*
X3240Y980D02*
X3247Y980D01*
X0Y979D02*
X7Y979D01*
X3240Y979D02*
X3247Y979D01*
X0Y978D02*
X7Y978D01*
X3240Y978D02*
X3247Y978D01*
X0Y977D02*
X7Y977D01*
X3240Y977D02*
X3247Y977D01*
X0Y976D02*
X7Y976D01*
X3240Y976D02*
X3247Y976D01*
X0Y975D02*
X7Y975D01*
X3240Y975D02*
X3247Y975D01*
X0Y974D02*
X7Y974D01*
X3240Y974D02*
X3247Y974D01*
X0Y973D02*
X7Y973D01*
X3240Y973D02*
X3247Y973D01*
X0Y972D02*
X7Y972D01*
X3240Y972D02*
X3247Y972D01*
X0Y971D02*
X7Y971D01*
X3240Y971D02*
X3247Y971D01*
X0Y970D02*
X7Y970D01*
X3240Y970D02*
X3247Y970D01*
X0Y969D02*
X7Y969D01*
X3240Y969D02*
X3247Y969D01*
X0Y968D02*
X7Y968D01*
X3240Y968D02*
X3247Y968D01*
X0Y967D02*
X7Y967D01*
X3240Y967D02*
X3247Y967D01*
X0Y966D02*
X7Y966D01*
X3240Y966D02*
X3247Y966D01*
X0Y965D02*
X7Y965D01*
X3240Y965D02*
X3247Y965D01*
X0Y964D02*
X7Y964D01*
X3240Y964D02*
X3247Y964D01*
X0Y963D02*
X7Y963D01*
X3240Y963D02*
X3247Y963D01*
X0Y962D02*
X7Y962D01*
X3240Y962D02*
X3247Y962D01*
X0Y961D02*
X7Y961D01*
X3240Y961D02*
X3247Y961D01*
X0Y960D02*
X7Y960D01*
X3240Y960D02*
X3247Y960D01*
X0Y959D02*
X7Y959D01*
X3240Y959D02*
X3247Y959D01*
X0Y958D02*
X7Y958D01*
X3240Y958D02*
X3247Y958D01*
X0Y957D02*
X7Y957D01*
X3240Y957D02*
X3247Y957D01*
X0Y956D02*
X7Y956D01*
X3240Y956D02*
X3247Y956D01*
X0Y955D02*
X7Y955D01*
X3240Y955D02*
X3247Y955D01*
X0Y954D02*
X7Y954D01*
X3240Y954D02*
X3247Y954D01*
X0Y953D02*
X7Y953D01*
X3240Y953D02*
X3247Y953D01*
X0Y952D02*
X7Y952D01*
X3240Y952D02*
X3247Y952D01*
X0Y951D02*
X7Y951D01*
X3240Y951D02*
X3247Y951D01*
X0Y950D02*
X7Y950D01*
X3240Y950D02*
X3247Y950D01*
X0Y949D02*
X7Y949D01*
X3240Y949D02*
X3247Y949D01*
X0Y948D02*
X7Y948D01*
X3240Y948D02*
X3247Y948D01*
X0Y947D02*
X7Y947D01*
X3240Y947D02*
X3247Y947D01*
X0Y946D02*
X7Y946D01*
X3240Y946D02*
X3247Y946D01*
X0Y945D02*
X7Y945D01*
X3240Y945D02*
X3247Y945D01*
X0Y944D02*
X7Y944D01*
X3240Y944D02*
X3247Y944D01*
X0Y943D02*
X7Y943D01*
X3240Y943D02*
X3247Y943D01*
X0Y942D02*
X7Y942D01*
X3240Y942D02*
X3247Y942D01*
X0Y941D02*
X7Y941D01*
X3240Y941D02*
X3247Y941D01*
X0Y940D02*
X7Y940D01*
X3240Y940D02*
X3247Y940D01*
X0Y939D02*
X7Y939D01*
X3240Y939D02*
X3247Y939D01*
X0Y938D02*
X7Y938D01*
X3240Y938D02*
X3247Y938D01*
X0Y937D02*
X7Y937D01*
X3240Y937D02*
X3247Y937D01*
X0Y936D02*
X7Y936D01*
X3240Y936D02*
X3247Y936D01*
X0Y935D02*
X7Y935D01*
X3240Y935D02*
X3247Y935D01*
X0Y934D02*
X7Y934D01*
X3240Y934D02*
X3247Y934D01*
X0Y933D02*
X7Y933D01*
X3240Y933D02*
X3247Y933D01*
X0Y932D02*
X7Y932D01*
X3240Y932D02*
X3247Y932D01*
X0Y931D02*
X7Y931D01*
X3240Y931D02*
X3247Y931D01*
X0Y930D02*
X7Y930D01*
X3240Y930D02*
X3247Y930D01*
X0Y929D02*
X7Y929D01*
X3240Y929D02*
X3247Y929D01*
X0Y928D02*
X7Y928D01*
X3240Y928D02*
X3247Y928D01*
X0Y927D02*
X7Y927D01*
X3240Y927D02*
X3247Y927D01*
X0Y926D02*
X7Y926D01*
X3240Y926D02*
X3247Y926D01*
X0Y925D02*
X7Y925D01*
X3240Y925D02*
X3247Y925D01*
X0Y924D02*
X7Y924D01*
X3240Y924D02*
X3247Y924D01*
X0Y923D02*
X7Y923D01*
X3240Y923D02*
X3247Y923D01*
X0Y922D02*
X7Y922D01*
X3240Y922D02*
X3247Y922D01*
X0Y921D02*
X7Y921D01*
X3240Y921D02*
X3247Y921D01*
X0Y920D02*
X7Y920D01*
X3240Y920D02*
X3247Y920D01*
X0Y919D02*
X7Y919D01*
X3240Y919D02*
X3247Y919D01*
X0Y918D02*
X7Y918D01*
X3240Y918D02*
X3247Y918D01*
X0Y917D02*
X7Y917D01*
X3240Y917D02*
X3247Y917D01*
X0Y916D02*
X7Y916D01*
X3240Y916D02*
X3247Y916D01*
X0Y915D02*
X7Y915D01*
X3240Y915D02*
X3247Y915D01*
X0Y914D02*
X7Y914D01*
X3240Y914D02*
X3247Y914D01*
X0Y913D02*
X7Y913D01*
X3240Y913D02*
X3247Y913D01*
X0Y912D02*
X7Y912D01*
X3240Y912D02*
X3247Y912D01*
X0Y911D02*
X7Y911D01*
X3240Y911D02*
X3247Y911D01*
X0Y910D02*
X7Y910D01*
X3240Y910D02*
X3247Y910D01*
X0Y909D02*
X7Y909D01*
X3240Y909D02*
X3247Y909D01*
X0Y908D02*
X7Y908D01*
X3240Y908D02*
X3247Y908D01*
X0Y907D02*
X7Y907D01*
X3240Y907D02*
X3247Y907D01*
X0Y906D02*
X7Y906D01*
X3240Y906D02*
X3247Y906D01*
X0Y905D02*
X7Y905D01*
X3240Y905D02*
X3247Y905D01*
X0Y904D02*
X7Y904D01*
X3240Y904D02*
X3247Y904D01*
X0Y903D02*
X7Y903D01*
X3240Y903D02*
X3247Y903D01*
X0Y902D02*
X7Y902D01*
X3240Y902D02*
X3247Y902D01*
X0Y901D02*
X7Y901D01*
X3240Y901D02*
X3247Y901D01*
X0Y900D02*
X7Y900D01*
X3240Y900D02*
X3247Y900D01*
X0Y899D02*
X7Y899D01*
X3240Y899D02*
X3247Y899D01*
X0Y898D02*
X7Y898D01*
X3240Y898D02*
X3247Y898D01*
X0Y897D02*
X7Y897D01*
X3240Y897D02*
X3247Y897D01*
X0Y896D02*
X7Y896D01*
X3240Y896D02*
X3247Y896D01*
X0Y895D02*
X7Y895D01*
X3240Y895D02*
X3247Y895D01*
X0Y894D02*
X7Y894D01*
X3240Y894D02*
X3247Y894D01*
X0Y893D02*
X7Y893D01*
X3240Y893D02*
X3247Y893D01*
X0Y892D02*
X7Y892D01*
X3240Y892D02*
X3247Y892D01*
X0Y891D02*
X7Y891D01*
X3240Y891D02*
X3247Y891D01*
X0Y890D02*
X7Y890D01*
X3240Y890D02*
X3247Y890D01*
X0Y889D02*
X7Y889D01*
X3240Y889D02*
X3247Y889D01*
X0Y888D02*
X7Y888D01*
X3240Y888D02*
X3247Y888D01*
X0Y887D02*
X7Y887D01*
X3240Y887D02*
X3247Y887D01*
X0Y886D02*
X7Y886D01*
X3240Y886D02*
X3247Y886D01*
X0Y885D02*
X7Y885D01*
X3240Y885D02*
X3247Y885D01*
X0Y884D02*
X7Y884D01*
X3240Y884D02*
X3247Y884D01*
X0Y883D02*
X7Y883D01*
X3240Y883D02*
X3247Y883D01*
X0Y882D02*
X7Y882D01*
X3240Y882D02*
X3247Y882D01*
X0Y881D02*
X7Y881D01*
X3240Y881D02*
X3247Y881D01*
X0Y880D02*
X7Y880D01*
X3240Y880D02*
X3247Y880D01*
X0Y879D02*
X7Y879D01*
X3240Y879D02*
X3247Y879D01*
X0Y878D02*
X7Y878D01*
X3240Y878D02*
X3247Y878D01*
X0Y877D02*
X7Y877D01*
X3240Y877D02*
X3247Y877D01*
X0Y876D02*
X7Y876D01*
X3240Y876D02*
X3247Y876D01*
X0Y875D02*
X7Y875D01*
X3240Y875D02*
X3247Y875D01*
X0Y874D02*
X7Y874D01*
X3240Y874D02*
X3247Y874D01*
X0Y873D02*
X7Y873D01*
X3240Y873D02*
X3247Y873D01*
X0Y872D02*
X7Y872D01*
X3240Y872D02*
X3247Y872D01*
X0Y871D02*
X7Y871D01*
X3240Y871D02*
X3247Y871D01*
X0Y870D02*
X7Y870D01*
X3240Y870D02*
X3247Y870D01*
X0Y869D02*
X7Y869D01*
X3240Y869D02*
X3247Y869D01*
X0Y868D02*
X7Y868D01*
X3240Y868D02*
X3247Y868D01*
X0Y867D02*
X7Y867D01*
X3240Y867D02*
X3247Y867D01*
X0Y866D02*
X7Y866D01*
X3240Y866D02*
X3247Y866D01*
X0Y865D02*
X7Y865D01*
X3240Y865D02*
X3247Y865D01*
X0Y864D02*
X7Y864D01*
X3240Y864D02*
X3247Y864D01*
X0Y863D02*
X7Y863D01*
X3240Y863D02*
X3247Y863D01*
X0Y862D02*
X7Y862D01*
X3240Y862D02*
X3247Y862D01*
X0Y861D02*
X7Y861D01*
X3240Y861D02*
X3247Y861D01*
X0Y860D02*
X7Y860D01*
X3240Y860D02*
X3247Y860D01*
X0Y859D02*
X7Y859D01*
X3240Y859D02*
X3247Y859D01*
X0Y858D02*
X7Y858D01*
X3240Y858D02*
X3247Y858D01*
X0Y857D02*
X7Y857D01*
X3240Y857D02*
X3247Y857D01*
X0Y856D02*
X7Y856D01*
X3240Y856D02*
X3247Y856D01*
X0Y855D02*
X7Y855D01*
X3240Y855D02*
X3247Y855D01*
X0Y854D02*
X7Y854D01*
X3240Y854D02*
X3247Y854D01*
X0Y853D02*
X7Y853D01*
X3240Y853D02*
X3247Y853D01*
X0Y852D02*
X7Y852D01*
X3240Y852D02*
X3247Y852D01*
X0Y851D02*
X7Y851D01*
X3240Y851D02*
X3247Y851D01*
X0Y850D02*
X7Y850D01*
X3240Y850D02*
X3247Y850D01*
X0Y849D02*
X7Y849D01*
X3240Y849D02*
X3247Y849D01*
X0Y848D02*
X7Y848D01*
X3240Y848D02*
X3247Y848D01*
X0Y847D02*
X7Y847D01*
X3240Y847D02*
X3247Y847D01*
X0Y846D02*
X7Y846D01*
X3240Y846D02*
X3247Y846D01*
X0Y845D02*
X7Y845D01*
X3240Y845D02*
X3247Y845D01*
X0Y844D02*
X7Y844D01*
X3240Y844D02*
X3247Y844D01*
X0Y843D02*
X7Y843D01*
X3240Y843D02*
X3247Y843D01*
X0Y842D02*
X7Y842D01*
X3240Y842D02*
X3247Y842D01*
X0Y841D02*
X7Y841D01*
X3240Y841D02*
X3247Y841D01*
X0Y840D02*
X7Y840D01*
X3240Y840D02*
X3247Y840D01*
X0Y839D02*
X7Y839D01*
X3240Y839D02*
X3247Y839D01*
X0Y838D02*
X7Y838D01*
X3240Y838D02*
X3247Y838D01*
X0Y837D02*
X7Y837D01*
X3240Y837D02*
X3247Y837D01*
X0Y836D02*
X7Y836D01*
X3240Y836D02*
X3247Y836D01*
X0Y835D02*
X7Y835D01*
X3240Y835D02*
X3247Y835D01*
X0Y834D02*
X7Y834D01*
X3240Y834D02*
X3247Y834D01*
X0Y833D02*
X7Y833D01*
X3240Y833D02*
X3247Y833D01*
X0Y832D02*
X7Y832D01*
X3240Y832D02*
X3247Y832D01*
X0Y831D02*
X7Y831D01*
X3240Y831D02*
X3247Y831D01*
X0Y830D02*
X7Y830D01*
X3240Y830D02*
X3247Y830D01*
X0Y829D02*
X7Y829D01*
X3240Y829D02*
X3247Y829D01*
X0Y828D02*
X7Y828D01*
X3240Y828D02*
X3247Y828D01*
X0Y827D02*
X7Y827D01*
X3240Y827D02*
X3247Y827D01*
X0Y826D02*
X7Y826D01*
X3240Y826D02*
X3247Y826D01*
X0Y825D02*
X7Y825D01*
X3240Y825D02*
X3247Y825D01*
X0Y824D02*
X7Y824D01*
X3240Y824D02*
X3247Y824D01*
X0Y823D02*
X7Y823D01*
X3240Y823D02*
X3247Y823D01*
X0Y822D02*
X7Y822D01*
X3240Y822D02*
X3247Y822D01*
X0Y821D02*
X7Y821D01*
X3240Y821D02*
X3247Y821D01*
X0Y820D02*
X7Y820D01*
X3240Y820D02*
X3247Y820D01*
X0Y819D02*
X7Y819D01*
X3240Y819D02*
X3247Y819D01*
X0Y818D02*
X7Y818D01*
X3240Y818D02*
X3247Y818D01*
X0Y817D02*
X7Y817D01*
X3240Y817D02*
X3247Y817D01*
X0Y816D02*
X7Y816D01*
X3240Y816D02*
X3247Y816D01*
X0Y815D02*
X7Y815D01*
X3240Y815D02*
X3247Y815D01*
X0Y814D02*
X7Y814D01*
X3240Y814D02*
X3247Y814D01*
X0Y813D02*
X7Y813D01*
X3240Y813D02*
X3247Y813D01*
X0Y812D02*
X7Y812D01*
X3240Y812D02*
X3247Y812D01*
X0Y811D02*
X7Y811D01*
X3240Y811D02*
X3247Y811D01*
X0Y810D02*
X7Y810D01*
X3240Y810D02*
X3247Y810D01*
X0Y809D02*
X7Y809D01*
X3240Y809D02*
X3247Y809D01*
X0Y808D02*
X7Y808D01*
X3240Y808D02*
X3247Y808D01*
X0Y807D02*
X7Y807D01*
X3240Y807D02*
X3247Y807D01*
X0Y806D02*
X7Y806D01*
X3240Y806D02*
X3247Y806D01*
X0Y805D02*
X7Y805D01*
X3240Y805D02*
X3247Y805D01*
X0Y804D02*
X7Y804D01*
X3240Y804D02*
X3247Y804D01*
X0Y803D02*
X7Y803D01*
X3240Y803D02*
X3247Y803D01*
X0Y802D02*
X7Y802D01*
X3240Y802D02*
X3247Y802D01*
X0Y801D02*
X7Y801D01*
X3240Y801D02*
X3247Y801D01*
X0Y800D02*
X7Y800D01*
X3240Y800D02*
X3247Y800D01*
X0Y799D02*
X7Y799D01*
X3240Y799D02*
X3247Y799D01*
X0Y798D02*
X7Y798D01*
X3240Y798D02*
X3247Y798D01*
X0Y797D02*
X7Y797D01*
X3240Y797D02*
X3247Y797D01*
X0Y796D02*
X7Y796D01*
X3240Y796D02*
X3247Y796D01*
X0Y795D02*
X7Y795D01*
X3240Y795D02*
X3247Y795D01*
X0Y794D02*
X7Y794D01*
X3240Y794D02*
X3247Y794D01*
X0Y793D02*
X7Y793D01*
X3240Y793D02*
X3247Y793D01*
X0Y792D02*
X7Y792D01*
X3240Y792D02*
X3247Y792D01*
X0Y791D02*
X7Y791D01*
X3240Y791D02*
X3247Y791D01*
X0Y790D02*
X7Y790D01*
X3240Y790D02*
X3247Y790D01*
X0Y789D02*
X7Y789D01*
X3240Y789D02*
X3247Y789D01*
X0Y788D02*
X7Y788D01*
X3240Y788D02*
X3247Y788D01*
X0Y787D02*
X7Y787D01*
X3240Y787D02*
X3247Y787D01*
X0Y786D02*
X7Y786D01*
X3240Y786D02*
X3247Y786D01*
X0Y785D02*
X7Y785D01*
X3240Y785D02*
X3247Y785D01*
X0Y784D02*
X7Y784D01*
X3240Y784D02*
X3247Y784D01*
X0Y783D02*
X7Y783D01*
X3240Y783D02*
X3247Y783D01*
X0Y782D02*
X7Y782D01*
X3240Y782D02*
X3247Y782D01*
X0Y781D02*
X7Y781D01*
X3240Y781D02*
X3247Y781D01*
X0Y780D02*
X7Y780D01*
X3240Y780D02*
X3247Y780D01*
X0Y779D02*
X7Y779D01*
X3240Y779D02*
X3247Y779D01*
X0Y778D02*
X7Y778D01*
X3240Y778D02*
X3247Y778D01*
X0Y777D02*
X7Y777D01*
X3240Y777D02*
X3247Y777D01*
X0Y776D02*
X7Y776D01*
X3240Y776D02*
X3247Y776D01*
X0Y775D02*
X7Y775D01*
X3240Y775D02*
X3247Y775D01*
X0Y774D02*
X7Y774D01*
X3240Y774D02*
X3247Y774D01*
X0Y773D02*
X7Y773D01*
X3240Y773D02*
X3247Y773D01*
X0Y772D02*
X7Y772D01*
X3240Y772D02*
X3247Y772D01*
X0Y771D02*
X7Y771D01*
X3240Y771D02*
X3247Y771D01*
X0Y770D02*
X7Y770D01*
X3240Y770D02*
X3247Y770D01*
X0Y769D02*
X7Y769D01*
X3240Y769D02*
X3247Y769D01*
X0Y768D02*
X7Y768D01*
X3240Y768D02*
X3247Y768D01*
X0Y767D02*
X7Y767D01*
X3240Y767D02*
X3247Y767D01*
X0Y766D02*
X7Y766D01*
X3240Y766D02*
X3247Y766D01*
X0Y765D02*
X7Y765D01*
X3240Y765D02*
X3247Y765D01*
X0Y764D02*
X7Y764D01*
X3240Y764D02*
X3247Y764D01*
X0Y763D02*
X7Y763D01*
X3240Y763D02*
X3247Y763D01*
X0Y762D02*
X7Y762D01*
X3240Y762D02*
X3247Y762D01*
X0Y761D02*
X7Y761D01*
X3240Y761D02*
X3247Y761D01*
X0Y760D02*
X7Y760D01*
X3240Y760D02*
X3247Y760D01*
X0Y759D02*
X7Y759D01*
X3240Y759D02*
X3247Y759D01*
X0Y758D02*
X7Y758D01*
X3240Y758D02*
X3247Y758D01*
X0Y757D02*
X7Y757D01*
X3240Y757D02*
X3247Y757D01*
X0Y756D02*
X7Y756D01*
X3240Y756D02*
X3247Y756D01*
X0Y755D02*
X7Y755D01*
X3240Y755D02*
X3247Y755D01*
X0Y754D02*
X7Y754D01*
X3240Y754D02*
X3247Y754D01*
X0Y753D02*
X7Y753D01*
X3240Y753D02*
X3247Y753D01*
X0Y752D02*
X7Y752D01*
X3240Y752D02*
X3247Y752D01*
X0Y751D02*
X7Y751D01*
X3240Y751D02*
X3247Y751D01*
X0Y750D02*
X7Y750D01*
X3240Y750D02*
X3247Y750D01*
X0Y749D02*
X7Y749D01*
X3240Y749D02*
X3247Y749D01*
X0Y748D02*
X7Y748D01*
X3240Y748D02*
X3247Y748D01*
X0Y747D02*
X7Y747D01*
X3240Y747D02*
X3247Y747D01*
X0Y746D02*
X7Y746D01*
X3240Y746D02*
X3247Y746D01*
X0Y745D02*
X7Y745D01*
X3240Y745D02*
X3247Y745D01*
X0Y744D02*
X7Y744D01*
X3240Y744D02*
X3247Y744D01*
X0Y743D02*
X7Y743D01*
X3240Y743D02*
X3247Y743D01*
X0Y742D02*
X7Y742D01*
X3240Y742D02*
X3247Y742D01*
X0Y741D02*
X7Y741D01*
X3240Y741D02*
X3247Y741D01*
X0Y740D02*
X7Y740D01*
X3240Y740D02*
X3247Y740D01*
X0Y739D02*
X7Y739D01*
X3240Y739D02*
X3247Y739D01*
X0Y738D02*
X7Y738D01*
X3240Y738D02*
X3247Y738D01*
X0Y737D02*
X7Y737D01*
X3240Y737D02*
X3247Y737D01*
X0Y736D02*
X7Y736D01*
X3240Y736D02*
X3247Y736D01*
X0Y735D02*
X7Y735D01*
X3240Y735D02*
X3247Y735D01*
X0Y734D02*
X7Y734D01*
X3240Y734D02*
X3247Y734D01*
X0Y733D02*
X7Y733D01*
X3240Y733D02*
X3247Y733D01*
X0Y732D02*
X7Y732D01*
X3240Y732D02*
X3247Y732D01*
X0Y731D02*
X7Y731D01*
X3240Y731D02*
X3247Y731D01*
X0Y730D02*
X7Y730D01*
X3240Y730D02*
X3247Y730D01*
X0Y729D02*
X7Y729D01*
X3240Y729D02*
X3247Y729D01*
X0Y728D02*
X7Y728D01*
X3240Y728D02*
X3247Y728D01*
X0Y727D02*
X7Y727D01*
X3240Y727D02*
X3247Y727D01*
X0Y726D02*
X7Y726D01*
X3240Y726D02*
X3247Y726D01*
X0Y725D02*
X7Y725D01*
X3240Y725D02*
X3247Y725D01*
X0Y724D02*
X7Y724D01*
X3240Y724D02*
X3247Y724D01*
X0Y723D02*
X7Y723D01*
X3240Y723D02*
X3247Y723D01*
X0Y722D02*
X7Y722D01*
X3240Y722D02*
X3247Y722D01*
X0Y721D02*
X7Y721D01*
X3240Y721D02*
X3247Y721D01*
X0Y720D02*
X7Y720D01*
X3240Y720D02*
X3247Y720D01*
X0Y719D02*
X7Y719D01*
X3240Y719D02*
X3247Y719D01*
X0Y718D02*
X7Y718D01*
X3240Y718D02*
X3247Y718D01*
X0Y717D02*
X7Y717D01*
X3240Y717D02*
X3247Y717D01*
X0Y716D02*
X7Y716D01*
X3240Y716D02*
X3247Y716D01*
X0Y715D02*
X7Y715D01*
X3240Y715D02*
X3247Y715D01*
X0Y714D02*
X7Y714D01*
X3240Y714D02*
X3247Y714D01*
X0Y713D02*
X7Y713D01*
X3240Y713D02*
X3247Y713D01*
X0Y712D02*
X7Y712D01*
X3240Y712D02*
X3247Y712D01*
X0Y711D02*
X7Y711D01*
X3240Y711D02*
X3247Y711D01*
X0Y710D02*
X7Y710D01*
X3240Y710D02*
X3247Y710D01*
X0Y709D02*
X7Y709D01*
X3240Y709D02*
X3247Y709D01*
X0Y708D02*
X7Y708D01*
X3240Y708D02*
X3247Y708D01*
X0Y707D02*
X7Y707D01*
X3240Y707D02*
X3247Y707D01*
X0Y706D02*
X7Y706D01*
X3240Y706D02*
X3247Y706D01*
X0Y705D02*
X7Y705D01*
X3240Y705D02*
X3247Y705D01*
X0Y704D02*
X7Y704D01*
X3240Y704D02*
X3247Y704D01*
X0Y703D02*
X7Y703D01*
X3240Y703D02*
X3247Y703D01*
X0Y702D02*
X7Y702D01*
X3240Y702D02*
X3247Y702D01*
X0Y701D02*
X7Y701D01*
X3240Y701D02*
X3247Y701D01*
X0Y700D02*
X7Y700D01*
X3240Y700D02*
X3247Y700D01*
X0Y699D02*
X7Y699D01*
X3240Y699D02*
X3247Y699D01*
X0Y698D02*
X7Y698D01*
X3240Y698D02*
X3247Y698D01*
X0Y697D02*
X7Y697D01*
X3240Y697D02*
X3247Y697D01*
X0Y696D02*
X7Y696D01*
X3240Y696D02*
X3247Y696D01*
X0Y695D02*
X7Y695D01*
X3240Y695D02*
X3247Y695D01*
X0Y694D02*
X7Y694D01*
X3240Y694D02*
X3247Y694D01*
X0Y693D02*
X7Y693D01*
X3240Y693D02*
X3247Y693D01*
X0Y692D02*
X7Y692D01*
X3240Y692D02*
X3247Y692D01*
X0Y691D02*
X7Y691D01*
X3240Y691D02*
X3247Y691D01*
X0Y690D02*
X7Y690D01*
X3240Y690D02*
X3247Y690D01*
X0Y689D02*
X7Y689D01*
X3240Y689D02*
X3247Y689D01*
X0Y688D02*
X7Y688D01*
X3240Y688D02*
X3247Y688D01*
X0Y687D02*
X7Y687D01*
X3240Y687D02*
X3247Y687D01*
X0Y686D02*
X7Y686D01*
X3240Y686D02*
X3247Y686D01*
X0Y685D02*
X7Y685D01*
X3240Y685D02*
X3247Y685D01*
X0Y684D02*
X7Y684D01*
X3240Y684D02*
X3247Y684D01*
X0Y683D02*
X7Y683D01*
X3240Y683D02*
X3247Y683D01*
X0Y682D02*
X7Y682D01*
X3240Y682D02*
X3247Y682D01*
X0Y681D02*
X7Y681D01*
X3240Y681D02*
X3247Y681D01*
X0Y680D02*
X7Y680D01*
X3240Y680D02*
X3247Y680D01*
X0Y679D02*
X7Y679D01*
X3240Y679D02*
X3247Y679D01*
X0Y678D02*
X7Y678D01*
X3240Y678D02*
X3247Y678D01*
X0Y677D02*
X7Y677D01*
X3240Y677D02*
X3247Y677D01*
X0Y676D02*
X7Y676D01*
X3240Y676D02*
X3247Y676D01*
X0Y675D02*
X7Y675D01*
X3240Y675D02*
X3247Y675D01*
X0Y674D02*
X7Y674D01*
X3240Y674D02*
X3247Y674D01*
X0Y673D02*
X7Y673D01*
X3240Y673D02*
X3247Y673D01*
X0Y672D02*
X7Y672D01*
X3240Y672D02*
X3247Y672D01*
X0Y671D02*
X7Y671D01*
X3240Y671D02*
X3247Y671D01*
X0Y670D02*
X7Y670D01*
X3240Y670D02*
X3247Y670D01*
X0Y669D02*
X7Y669D01*
X3240Y669D02*
X3247Y669D01*
X0Y668D02*
X7Y668D01*
X3240Y668D02*
X3247Y668D01*
X0Y667D02*
X7Y667D01*
X3240Y667D02*
X3247Y667D01*
X0Y666D02*
X7Y666D01*
X3240Y666D02*
X3247Y666D01*
X0Y665D02*
X7Y665D01*
X3240Y665D02*
X3247Y665D01*
X0Y664D02*
X7Y664D01*
X3240Y664D02*
X3247Y664D01*
X0Y663D02*
X7Y663D01*
X3240Y663D02*
X3247Y663D01*
X0Y662D02*
X7Y662D01*
X3240Y662D02*
X3247Y662D01*
X0Y661D02*
X7Y661D01*
X3240Y661D02*
X3247Y661D01*
X0Y660D02*
X7Y660D01*
X3240Y660D02*
X3247Y660D01*
X0Y659D02*
X7Y659D01*
X3240Y659D02*
X3247Y659D01*
X0Y658D02*
X7Y658D01*
X3240Y658D02*
X3247Y658D01*
X0Y657D02*
X7Y657D01*
X3240Y657D02*
X3247Y657D01*
X0Y656D02*
X7Y656D01*
X3240Y656D02*
X3247Y656D01*
X0Y655D02*
X7Y655D01*
X3240Y655D02*
X3247Y655D01*
X0Y654D02*
X7Y654D01*
X3240Y654D02*
X3247Y654D01*
X0Y653D02*
X7Y653D01*
X3240Y653D02*
X3247Y653D01*
X0Y652D02*
X7Y652D01*
X3240Y652D02*
X3247Y652D01*
X0Y651D02*
X7Y651D01*
X3240Y651D02*
X3247Y651D01*
X0Y650D02*
X7Y650D01*
X3240Y650D02*
X3247Y650D01*
X0Y649D02*
X7Y649D01*
X3240Y649D02*
X3247Y649D01*
X0Y648D02*
X7Y648D01*
X3240Y648D02*
X3247Y648D01*
X0Y647D02*
X7Y647D01*
X3240Y647D02*
X3247Y647D01*
X0Y646D02*
X7Y646D01*
X3240Y646D02*
X3247Y646D01*
X0Y645D02*
X7Y645D01*
X3240Y645D02*
X3247Y645D01*
X0Y644D02*
X7Y644D01*
X3240Y644D02*
X3247Y644D01*
X0Y643D02*
X7Y643D01*
X3240Y643D02*
X3247Y643D01*
X0Y642D02*
X7Y642D01*
X3240Y642D02*
X3247Y642D01*
X0Y641D02*
X7Y641D01*
X3240Y641D02*
X3247Y641D01*
X0Y640D02*
X7Y640D01*
X3240Y640D02*
X3247Y640D01*
X0Y639D02*
X7Y639D01*
X3240Y639D02*
X3247Y639D01*
X0Y638D02*
X7Y638D01*
X3240Y638D02*
X3247Y638D01*
X0Y637D02*
X7Y637D01*
X3240Y637D02*
X3247Y637D01*
X0Y636D02*
X7Y636D01*
X3240Y636D02*
X3247Y636D01*
X0Y635D02*
X7Y635D01*
X3240Y635D02*
X3247Y635D01*
X0Y634D02*
X7Y634D01*
X3240Y634D02*
X3247Y634D01*
X0Y633D02*
X7Y633D01*
X3240Y633D02*
X3247Y633D01*
X0Y632D02*
X7Y632D01*
X3240Y632D02*
X3247Y632D01*
X0Y631D02*
X7Y631D01*
X3240Y631D02*
X3247Y631D01*
X0Y630D02*
X7Y630D01*
X3240Y630D02*
X3247Y630D01*
X0Y629D02*
X7Y629D01*
X3240Y629D02*
X3247Y629D01*
X0Y628D02*
X7Y628D01*
X3240Y628D02*
X3247Y628D01*
X0Y627D02*
X7Y627D01*
X3240Y627D02*
X3247Y627D01*
X0Y626D02*
X7Y626D01*
X3240Y626D02*
X3247Y626D01*
X0Y625D02*
X7Y625D01*
X3240Y625D02*
X3247Y625D01*
X0Y624D02*
X7Y624D01*
X3240Y624D02*
X3247Y624D01*
X0Y623D02*
X7Y623D01*
X3240Y623D02*
X3247Y623D01*
X0Y622D02*
X7Y622D01*
X3240Y622D02*
X3247Y622D01*
X0Y621D02*
X7Y621D01*
X3240Y621D02*
X3247Y621D01*
X0Y620D02*
X7Y620D01*
X3240Y620D02*
X3247Y620D01*
X0Y619D02*
X7Y619D01*
X3240Y619D02*
X3247Y619D01*
X0Y618D02*
X7Y618D01*
X3240Y618D02*
X3247Y618D01*
X0Y617D02*
X7Y617D01*
X3240Y617D02*
X3247Y617D01*
X0Y616D02*
X7Y616D01*
X3240Y616D02*
X3247Y616D01*
X0Y615D02*
X7Y615D01*
X3240Y615D02*
X3247Y615D01*
X0Y614D02*
X7Y614D01*
X3240Y614D02*
X3247Y614D01*
X0Y613D02*
X7Y613D01*
X3240Y613D02*
X3247Y613D01*
X0Y612D02*
X7Y612D01*
X3240Y612D02*
X3247Y612D01*
X0Y611D02*
X7Y611D01*
X3240Y611D02*
X3247Y611D01*
X0Y610D02*
X7Y610D01*
X3240Y610D02*
X3247Y610D01*
X0Y609D02*
X7Y609D01*
X3240Y609D02*
X3247Y609D01*
X0Y608D02*
X7Y608D01*
X3240Y608D02*
X3247Y608D01*
X0Y607D02*
X7Y607D01*
X3240Y607D02*
X3247Y607D01*
X0Y606D02*
X7Y606D01*
X3240Y606D02*
X3247Y606D01*
X0Y605D02*
X7Y605D01*
X3240Y605D02*
X3247Y605D01*
X0Y604D02*
X7Y604D01*
X3240Y604D02*
X3247Y604D01*
X0Y603D02*
X7Y603D01*
X3240Y603D02*
X3247Y603D01*
X0Y602D02*
X7Y602D01*
X3240Y602D02*
X3247Y602D01*
X0Y601D02*
X7Y601D01*
X3240Y601D02*
X3247Y601D01*
X0Y600D02*
X6Y600D01*
X3240Y600D02*
X3247Y600D01*
X0Y599D02*
X6Y599D01*
X3240Y599D02*
X3247Y599D01*
X0Y598D02*
X5Y598D01*
X3240Y598D02*
X3247Y598D01*
X0Y597D02*
X5Y597D01*
X3240Y597D02*
X3247Y597D01*
X0Y596D02*
X4Y596D01*
X3240Y596D02*
X3247Y596D01*
X0Y595D02*
X4Y595D01*
X3240Y595D02*
X3247Y595D01*
X0Y594D02*
X3Y594D01*
X3240Y594D02*
X3247Y594D01*
X0Y593D02*
X3Y593D01*
X3240Y593D02*
X3247Y593D01*
X0Y592D02*
X2Y592D01*
X3240Y592D02*
X3247Y592D01*
X0Y591D02*
X2Y591D01*
X3240Y591D02*
X3247Y591D01*
X0Y590D02*
X1Y590D01*
X3240Y590D02*
X3247Y590D01*
X0Y589D02*
X1Y589D01*
X3240Y589D02*
X3247Y589D01*
X0Y588D02*
X0Y588D01*
X3240Y588D02*
X3247Y588D01*
X0Y587D02*
X0Y587D01*
X3240Y587D02*
X3247Y587D01*
X0Y586D02*
X0Y586D01*
X3240Y586D02*
X3247Y586D01*
X3240Y585D02*
X3247Y585D01*
X3240Y584D02*
X3247Y584D01*
X3240Y583D02*
X3247Y583D01*
X3240Y582D02*
X3247Y582D01*
X3240Y581D02*
X3247Y581D01*
X3240Y580D02*
X3247Y580D01*
X3240Y579D02*
X3247Y579D01*
X3240Y578D02*
X3247Y578D01*
X3240Y577D02*
X3247Y577D01*
X3240Y576D02*
X3247Y576D01*
X3240Y575D02*
X3247Y575D01*
X3240Y574D02*
X3247Y574D01*
X3240Y573D02*
X3247Y573D01*
X3240Y572D02*
X3247Y572D01*
X3240Y571D02*
X3247Y571D01*
X3240Y570D02*
X3247Y570D01*
X3240Y569D02*
X3247Y569D01*
X3240Y568D02*
X3247Y568D01*
X3240Y567D02*
X3247Y567D01*
X3240Y566D02*
X3247Y566D01*
X3240Y565D02*
X3247Y565D01*
X3240Y564D02*
X3247Y564D01*
X3240Y563D02*
X3247Y563D01*
X3240Y562D02*
X3247Y562D01*
X3240Y561D02*
X3247Y561D01*
X3240Y560D02*
X3247Y560D01*
X3240Y559D02*
X3247Y559D01*
X3240Y558D02*
X3247Y558D01*
X3240Y557D02*
X3247Y557D01*
X3240Y556D02*
X3247Y556D01*
X3240Y555D02*
X3247Y555D01*
X3240Y554D02*
X3247Y554D01*
X3240Y553D02*
X3247Y553D01*
X3240Y552D02*
X3247Y552D01*
X3240Y551D02*
X3247Y551D01*
X3240Y550D02*
X3247Y550D01*
X3240Y549D02*
X3247Y549D01*
X3240Y548D02*
X3247Y548D01*
X3240Y547D02*
X3247Y547D01*
X3240Y546D02*
X3247Y546D01*
X3240Y545D02*
X3247Y545D01*
X3240Y544D02*
X3247Y544D01*
X3240Y543D02*
X3247Y543D01*
X3240Y542D02*
X3247Y542D01*
X3240Y541D02*
X3247Y541D01*
X3240Y540D02*
X3247Y540D01*
X3240Y539D02*
X3247Y539D01*
X3240Y538D02*
X3247Y538D01*
X3240Y537D02*
X3247Y537D01*
X3240Y536D02*
X3247Y536D01*
X3240Y535D02*
X3247Y535D01*
X3240Y534D02*
X3247Y534D01*
X3240Y533D02*
X3247Y533D01*
X3240Y532D02*
X3247Y532D01*
X3240Y531D02*
X3247Y531D01*
X3240Y530D02*
X3247Y530D01*
X3240Y529D02*
X3247Y529D01*
X3240Y528D02*
X3247Y528D01*
X3240Y527D02*
X3247Y527D01*
X3240Y526D02*
X3247Y526D01*
X3240Y525D02*
X3247Y525D01*
X3240Y524D02*
X3247Y524D01*
X3240Y523D02*
X3247Y523D01*
X3240Y522D02*
X3247Y522D01*
X3240Y521D02*
X3247Y521D01*
X3240Y520D02*
X3247Y520D01*
X3240Y519D02*
X3247Y519D01*
X3240Y518D02*
X3247Y518D01*
X3240Y517D02*
X3247Y517D01*
X3240Y516D02*
X3247Y516D01*
X3240Y515D02*
X3247Y515D01*
X3240Y514D02*
X3247Y514D01*
X3240Y513D02*
X3247Y513D01*
X3240Y512D02*
X3247Y512D01*
X3240Y511D02*
X3247Y511D01*
X3240Y510D02*
X3247Y510D01*
X3240Y509D02*
X3247Y509D01*
X3240Y508D02*
X3247Y508D01*
X3240Y507D02*
X3247Y507D01*
X3240Y506D02*
X3247Y506D01*
X3240Y505D02*
X3247Y505D01*
X3240Y504D02*
X3247Y504D01*
X3240Y503D02*
X3247Y503D01*
X3240Y502D02*
X3247Y502D01*
X3240Y501D02*
X3247Y501D01*
X3240Y500D02*
X3247Y500D01*
X3240Y499D02*
X3247Y499D01*
X3240Y498D02*
X3247Y498D01*
X3240Y497D02*
X3247Y497D01*
X3240Y496D02*
X3247Y496D01*
X3240Y495D02*
X3247Y495D01*
X3240Y494D02*
X3247Y494D01*
X3240Y493D02*
X3247Y493D01*
X3240Y492D02*
X3247Y492D01*
X3240Y491D02*
X3247Y491D01*
X3240Y490D02*
X3247Y490D01*
X3240Y489D02*
X3247Y489D01*
X3240Y488D02*
X3247Y488D01*
X3240Y487D02*
X3247Y487D01*
X3240Y486D02*
X3247Y486D01*
X3240Y485D02*
X3247Y485D01*
X3240Y484D02*
X3247Y484D01*
X3240Y483D02*
X3247Y483D01*
X3240Y482D02*
X3247Y482D01*
X3240Y481D02*
X3247Y481D01*
X3240Y480D02*
X3247Y480D01*
X3240Y479D02*
X3247Y479D01*
X3240Y478D02*
X3247Y478D01*
X3240Y477D02*
X3247Y477D01*
X3240Y476D02*
X3247Y476D01*
X3240Y475D02*
X3247Y475D01*
X3240Y474D02*
X3247Y474D01*
X3240Y473D02*
X3247Y473D01*
X3240Y472D02*
X3247Y472D01*
X3240Y471D02*
X3247Y471D01*
X0Y470D02*
X0Y470D01*
X3240Y470D02*
X3247Y470D01*
X0Y469D02*
X0Y469D01*
X3240Y469D02*
X3247Y469D01*
X0Y468D02*
X1Y468D01*
X3240Y468D02*
X3247Y468D01*
X0Y467D02*
X1Y467D01*
X3240Y467D02*
X3247Y467D01*
X0Y466D02*
X2Y466D01*
X3240Y466D02*
X3247Y466D01*
X0Y465D02*
X2Y465D01*
X3240Y465D02*
X3247Y465D01*
X0Y464D02*
X2Y464D01*
X3240Y464D02*
X3247Y464D01*
X0Y463D02*
X3Y463D01*
X3240Y463D02*
X3247Y463D01*
X0Y462D02*
X3Y462D01*
X3240Y462D02*
X3247Y462D01*
X0Y461D02*
X4Y461D01*
X3240Y461D02*
X3247Y461D01*
X0Y460D02*
X4Y460D01*
X3240Y460D02*
X3247Y460D01*
X0Y459D02*
X5Y459D01*
X3240Y459D02*
X3247Y459D01*
X0Y458D02*
X5Y458D01*
X3240Y458D02*
X3247Y458D01*
X0Y457D02*
X6Y457D01*
X3240Y457D02*
X3247Y457D01*
X0Y456D02*
X6Y456D01*
X3240Y456D02*
X3247Y456D01*
X0Y455D02*
X7Y455D01*
X3240Y455D02*
X3247Y455D01*
X0Y454D02*
X7Y454D01*
X3240Y454D02*
X3247Y454D01*
X0Y453D02*
X7Y453D01*
X3240Y453D02*
X3247Y453D01*
X0Y452D02*
X7Y452D01*
X3240Y452D02*
X3247Y452D01*
X0Y451D02*
X7Y451D01*
X3240Y451D02*
X3247Y451D01*
X0Y450D02*
X7Y450D01*
X3240Y450D02*
X3247Y450D01*
X0Y449D02*
X7Y449D01*
X3240Y449D02*
X3247Y449D01*
X0Y448D02*
X7Y448D01*
X3240Y448D02*
X3247Y448D01*
X0Y447D02*
X7Y447D01*
X3240Y447D02*
X3247Y447D01*
X0Y446D02*
X7Y446D01*
X3240Y446D02*
X3247Y446D01*
X0Y445D02*
X7Y445D01*
X3240Y445D02*
X3247Y445D01*
X0Y444D02*
X7Y444D01*
X3240Y444D02*
X3247Y444D01*
X0Y443D02*
X7Y443D01*
X3240Y443D02*
X3247Y443D01*
X0Y442D02*
X7Y442D01*
X3240Y442D02*
X3247Y442D01*
X0Y441D02*
X7Y441D01*
X3240Y441D02*
X3247Y441D01*
X0Y440D02*
X7Y440D01*
X3240Y440D02*
X3247Y440D01*
X0Y439D02*
X7Y439D01*
X3240Y439D02*
X3247Y439D01*
X0Y438D02*
X7Y438D01*
X3240Y438D02*
X3247Y438D01*
X0Y437D02*
X7Y437D01*
X3240Y437D02*
X3247Y437D01*
X0Y436D02*
X7Y436D01*
X3240Y436D02*
X3247Y436D01*
X0Y435D02*
X7Y435D01*
X3240Y435D02*
X3247Y435D01*
X0Y434D02*
X7Y434D01*
X3240Y434D02*
X3247Y434D01*
X0Y433D02*
X7Y433D01*
X3240Y433D02*
X3247Y433D01*
X0Y432D02*
X7Y432D01*
X3240Y432D02*
X3247Y432D01*
X0Y431D02*
X7Y431D01*
X3240Y431D02*
X3247Y431D01*
X0Y430D02*
X7Y430D01*
X3240Y430D02*
X3247Y430D01*
X0Y429D02*
X7Y429D01*
X3240Y429D02*
X3247Y429D01*
X0Y428D02*
X7Y428D01*
X3240Y428D02*
X3247Y428D01*
X0Y427D02*
X7Y427D01*
X3240Y427D02*
X3247Y427D01*
X0Y426D02*
X7Y426D01*
X3240Y426D02*
X3247Y426D01*
X0Y425D02*
X7Y425D01*
X3240Y425D02*
X3247Y425D01*
X0Y424D02*
X7Y424D01*
X3240Y424D02*
X3247Y424D01*
X0Y423D02*
X7Y423D01*
X3240Y423D02*
X3247Y423D01*
X0Y422D02*
X7Y422D01*
X3240Y422D02*
X3247Y422D01*
X0Y421D02*
X7Y421D01*
X3240Y421D02*
X3247Y421D01*
X0Y420D02*
X7Y420D01*
X3240Y420D02*
X3247Y420D01*
X0Y419D02*
X7Y419D01*
X3240Y419D02*
X3247Y419D01*
X0Y418D02*
X7Y418D01*
X3240Y418D02*
X3247Y418D01*
X0Y417D02*
X7Y417D01*
X3240Y417D02*
X3247Y417D01*
X0Y416D02*
X7Y416D01*
X3240Y416D02*
X3247Y416D01*
X0Y415D02*
X7Y415D01*
X3240Y415D02*
X3247Y415D01*
X0Y414D02*
X7Y414D01*
X3240Y414D02*
X3247Y414D01*
X0Y413D02*
X7Y413D01*
X3240Y413D02*
X3247Y413D01*
X0Y412D02*
X7Y412D01*
X3240Y412D02*
X3247Y412D01*
X0Y411D02*
X7Y411D01*
X3240Y411D02*
X3247Y411D01*
X0Y410D02*
X7Y410D01*
X3240Y410D02*
X3247Y410D01*
X0Y409D02*
X7Y409D01*
X3240Y409D02*
X3247Y409D01*
X0Y408D02*
X7Y408D01*
X3240Y408D02*
X3247Y408D01*
X0Y407D02*
X7Y407D01*
X3240Y407D02*
X3247Y407D01*
X0Y406D02*
X7Y406D01*
X3240Y406D02*
X3247Y406D01*
X0Y405D02*
X7Y405D01*
X3240Y405D02*
X3247Y405D01*
X0Y404D02*
X7Y404D01*
X3240Y404D02*
X3247Y404D01*
X0Y403D02*
X7Y403D01*
X3240Y403D02*
X3247Y403D01*
X0Y402D02*
X7Y402D01*
X3240Y402D02*
X3247Y402D01*
X0Y401D02*
X7Y401D01*
X3240Y401D02*
X3247Y401D01*
X0Y400D02*
X7Y400D01*
X3240Y400D02*
X3247Y400D01*
X0Y399D02*
X7Y399D01*
X3240Y399D02*
X3247Y399D01*
X0Y398D02*
X7Y398D01*
X3240Y398D02*
X3247Y398D01*
X0Y397D02*
X7Y397D01*
X3240Y397D02*
X3247Y397D01*
X0Y396D02*
X7Y396D01*
X3240Y396D02*
X3247Y396D01*
X0Y395D02*
X7Y395D01*
X3240Y395D02*
X3247Y395D01*
X0Y394D02*
X7Y394D01*
X3240Y394D02*
X3247Y394D01*
X0Y393D02*
X7Y393D01*
X3240Y393D02*
X3247Y393D01*
X0Y392D02*
X7Y392D01*
X3240Y392D02*
X3247Y392D01*
X0Y391D02*
X7Y391D01*
X3240Y391D02*
X3247Y391D01*
X0Y390D02*
X7Y390D01*
X3240Y390D02*
X3247Y390D01*
X0Y389D02*
X7Y389D01*
X3240Y389D02*
X3247Y389D01*
X0Y388D02*
X7Y388D01*
X3240Y388D02*
X3247Y388D01*
X0Y387D02*
X7Y387D01*
X3240Y387D02*
X3247Y387D01*
X0Y386D02*
X7Y386D01*
X3240Y386D02*
X3247Y386D01*
X0Y385D02*
X7Y385D01*
X3240Y385D02*
X3247Y385D01*
X0Y384D02*
X7Y384D01*
X3240Y384D02*
X3247Y384D01*
X0Y383D02*
X7Y383D01*
X3240Y383D02*
X3247Y383D01*
X0Y382D02*
X7Y382D01*
X3240Y382D02*
X3247Y382D01*
X0Y381D02*
X7Y381D01*
X3240Y381D02*
X3247Y381D01*
X0Y380D02*
X7Y380D01*
X3240Y380D02*
X3247Y380D01*
X0Y379D02*
X7Y379D01*
X3240Y379D02*
X3247Y379D01*
X0Y378D02*
X7Y378D01*
X3240Y378D02*
X3247Y378D01*
X0Y377D02*
X7Y377D01*
X3240Y377D02*
X3247Y377D01*
X0Y376D02*
X7Y376D01*
X3240Y376D02*
X3247Y376D01*
X0Y375D02*
X7Y375D01*
X3240Y375D02*
X3247Y375D01*
X0Y374D02*
X7Y374D01*
X3240Y374D02*
X3247Y374D01*
X0Y373D02*
X7Y373D01*
X3240Y373D02*
X3247Y373D01*
X0Y372D02*
X7Y372D01*
X3240Y372D02*
X3247Y372D01*
X0Y371D02*
X7Y371D01*
X3240Y371D02*
X3247Y371D01*
X0Y370D02*
X7Y370D01*
X3240Y370D02*
X3247Y370D01*
X0Y369D02*
X7Y369D01*
X3240Y369D02*
X3247Y369D01*
X0Y368D02*
X7Y368D01*
X3240Y368D02*
X3247Y368D01*
X0Y367D02*
X7Y367D01*
X3240Y367D02*
X3247Y367D01*
X0Y366D02*
X7Y366D01*
X3240Y366D02*
X3247Y366D01*
X0Y365D02*
X7Y365D01*
X3240Y365D02*
X3247Y365D01*
X0Y364D02*
X7Y364D01*
X3240Y364D02*
X3247Y364D01*
X0Y363D02*
X7Y363D01*
X3240Y363D02*
X3247Y363D01*
X0Y362D02*
X7Y362D01*
X3240Y362D02*
X3247Y362D01*
X0Y361D02*
X7Y361D01*
X3240Y361D02*
X3247Y361D01*
X0Y360D02*
X7Y360D01*
X3240Y360D02*
X3247Y360D01*
X0Y359D02*
X7Y359D01*
X3240Y359D02*
X3247Y359D01*
X0Y358D02*
X7Y358D01*
X3240Y358D02*
X3247Y358D01*
X0Y357D02*
X7Y357D01*
X3240Y357D02*
X3247Y357D01*
X0Y356D02*
X7Y356D01*
X3240Y356D02*
X3247Y356D01*
X0Y355D02*
X7Y355D01*
X3240Y355D02*
X3247Y355D01*
X0Y354D02*
X7Y354D01*
X3240Y354D02*
X3247Y354D01*
X0Y353D02*
X7Y353D01*
X3240Y353D02*
X3247Y353D01*
X0Y352D02*
X7Y352D01*
X3240Y352D02*
X3247Y352D01*
X0Y351D02*
X7Y351D01*
X3240Y351D02*
X3247Y351D01*
X0Y350D02*
X7Y350D01*
X3240Y350D02*
X3247Y350D01*
X0Y349D02*
X7Y349D01*
X3240Y349D02*
X3247Y349D01*
X0Y348D02*
X7Y348D01*
X3240Y348D02*
X3247Y348D01*
X0Y347D02*
X7Y347D01*
X3240Y347D02*
X3247Y347D01*
X0Y346D02*
X7Y346D01*
X3240Y346D02*
X3247Y346D01*
X0Y345D02*
X7Y345D01*
X3240Y345D02*
X3247Y345D01*
X0Y344D02*
X7Y344D01*
X3240Y344D02*
X3247Y344D01*
X0Y343D02*
X7Y343D01*
X3240Y343D02*
X3247Y343D01*
X0Y342D02*
X7Y342D01*
X3240Y342D02*
X3247Y342D01*
X0Y341D02*
X7Y341D01*
X3240Y341D02*
X3247Y341D01*
X0Y340D02*
X7Y340D01*
X3240Y340D02*
X3247Y340D01*
X0Y339D02*
X7Y339D01*
X3240Y339D02*
X3247Y339D01*
X0Y338D02*
X7Y338D01*
X3240Y338D02*
X3247Y338D01*
X0Y337D02*
X7Y337D01*
X3240Y337D02*
X3247Y337D01*
X0Y336D02*
X7Y336D01*
X3240Y336D02*
X3247Y336D01*
X0Y335D02*
X7Y335D01*
X3240Y335D02*
X3247Y335D01*
X0Y334D02*
X7Y334D01*
X3240Y334D02*
X3247Y334D01*
X0Y333D02*
X7Y333D01*
X3240Y333D02*
X3247Y333D01*
X0Y332D02*
X7Y332D01*
X3240Y332D02*
X3247Y332D01*
X0Y331D02*
X7Y331D01*
X3240Y331D02*
X3247Y331D01*
X0Y330D02*
X7Y330D01*
X3240Y330D02*
X3247Y330D01*
X0Y329D02*
X7Y329D01*
X3240Y329D02*
X3247Y329D01*
X0Y328D02*
X7Y328D01*
X3240Y328D02*
X3247Y328D01*
X0Y327D02*
X7Y327D01*
X3240Y327D02*
X3247Y327D01*
X0Y326D02*
X7Y326D01*
X3240Y326D02*
X3247Y326D01*
X0Y325D02*
X7Y325D01*
X3240Y325D02*
X3247Y325D01*
X0Y324D02*
X7Y324D01*
X3240Y324D02*
X3247Y324D01*
X0Y323D02*
X7Y323D01*
X3240Y323D02*
X3247Y323D01*
X0Y322D02*
X7Y322D01*
X3240Y322D02*
X3247Y322D01*
X0Y321D02*
X7Y321D01*
X3240Y321D02*
X3247Y321D01*
X0Y320D02*
X7Y320D01*
X3240Y320D02*
X3247Y320D01*
X0Y319D02*
X7Y319D01*
X3240Y319D02*
X3247Y319D01*
X0Y318D02*
X7Y318D01*
X3240Y318D02*
X3247Y318D01*
X0Y317D02*
X6Y317D01*
X3240Y317D02*
X3247Y317D01*
X0Y316D02*
X6Y316D01*
X3240Y316D02*
X3247Y316D01*
X0Y315D02*
X5Y315D01*
X3240Y315D02*
X3247Y315D01*
X0Y314D02*
X5Y314D01*
X3240Y314D02*
X3247Y314D01*
X0Y313D02*
X4Y313D01*
X3240Y313D02*
X3247Y313D01*
X0Y312D02*
X4Y312D01*
X3240Y312D02*
X3247Y312D01*
X0Y311D02*
X3Y311D01*
X3240Y311D02*
X3247Y311D01*
X0Y310D02*
X3Y310D01*
X3240Y310D02*
X3247Y310D01*
X0Y309D02*
X2Y309D01*
X3240Y309D02*
X3247Y309D01*
X0Y308D02*
X2Y308D01*
X3240Y308D02*
X3247Y308D01*
X0Y307D02*
X1Y307D01*
X3240Y307D02*
X3247Y307D01*
X0Y306D02*
X1Y306D01*
X3240Y306D02*
X3247Y306D01*
X0Y305D02*
X1Y305D01*
X3240Y305D02*
X3247Y305D01*
X0Y304D02*
X0Y304D01*
X3240Y304D02*
X3247Y304D01*
X0Y303D02*
X0Y303D01*
X3240Y303D02*
X3247Y303D01*
X3240Y302D02*
X3247Y302D01*
X3240Y301D02*
X3247Y301D01*
X3240Y300D02*
X3247Y300D01*
X3240Y299D02*
X3247Y299D01*
X3240Y298D02*
X3247Y298D01*
X3240Y297D02*
X3247Y297D01*
X3240Y296D02*
X3247Y296D01*
X3240Y295D02*
X3247Y295D01*
X3240Y294D02*
X3247Y294D01*
X3240Y293D02*
X3247Y293D01*
X3240Y292D02*
X3247Y292D01*
X3240Y291D02*
X3247Y291D01*
X3240Y290D02*
X3247Y290D01*
X3240Y289D02*
X3247Y289D01*
X3240Y288D02*
X3247Y288D01*
X3240Y287D02*
X3247Y287D01*
X3240Y286D02*
X3247Y286D01*
X3240Y285D02*
X3247Y285D01*
X3240Y284D02*
X3247Y284D01*
X3240Y283D02*
X3247Y283D01*
X3240Y282D02*
X3247Y282D01*
X3240Y281D02*
X3247Y281D01*
X3240Y280D02*
X3247Y280D01*
X3240Y279D02*
X3247Y279D01*
X3240Y278D02*
X3247Y278D01*
X3240Y277D02*
X3247Y277D01*
X3240Y276D02*
X3247Y276D01*
X3240Y275D02*
X3247Y275D01*
X3240Y274D02*
X3247Y274D01*
X3240Y273D02*
X3247Y273D01*
X3240Y272D02*
X3247Y272D01*
X3240Y271D02*
X3247Y271D01*
X3240Y270D02*
X3247Y270D01*
X3240Y269D02*
X3247Y269D01*
X3240Y268D02*
X3247Y268D01*
X3240Y267D02*
X3247Y267D01*
X3240Y266D02*
X3247Y266D01*
X3240Y265D02*
X3247Y265D01*
X3240Y264D02*
X3247Y264D01*
X3240Y263D02*
X3247Y263D01*
X3240Y262D02*
X3247Y262D01*
X3240Y261D02*
X3247Y261D01*
X3240Y260D02*
X3247Y260D01*
X3240Y259D02*
X3247Y259D01*
X3240Y258D02*
X3247Y258D01*
X3240Y257D02*
X3247Y257D01*
X3240Y256D02*
X3247Y256D01*
X3240Y255D02*
X3247Y255D01*
X3240Y254D02*
X3247Y254D01*
X3240Y253D02*
X3247Y253D01*
X3240Y252D02*
X3247Y252D01*
X3240Y251D02*
X3247Y251D01*
X3240Y250D02*
X3247Y250D01*
X3240Y249D02*
X3247Y249D01*
X3240Y248D02*
X3247Y248D01*
X3240Y247D02*
X3247Y247D01*
X3240Y246D02*
X3247Y246D01*
X3240Y245D02*
X3247Y245D01*
X3240Y244D02*
X3247Y244D01*
X3240Y243D02*
X3247Y243D01*
X3240Y242D02*
X3247Y242D01*
X3240Y241D02*
X3247Y241D01*
X3240Y240D02*
X3247Y240D01*
X3240Y239D02*
X3247Y239D01*
X3240Y238D02*
X3247Y238D01*
X3240Y237D02*
X3247Y237D01*
X3240Y236D02*
X3247Y236D01*
X3240Y235D02*
X3247Y235D01*
X3240Y234D02*
X3247Y234D01*
X3240Y233D02*
X3247Y233D01*
X3240Y232D02*
X3247Y232D01*
X3240Y231D02*
X3247Y231D01*
X3240Y230D02*
X3247Y230D01*
X3240Y229D02*
X3247Y229D01*
X3240Y228D02*
X3247Y228D01*
X3240Y227D02*
X3247Y227D01*
X3240Y226D02*
X3247Y226D01*
X3240Y225D02*
X3247Y225D01*
X3240Y224D02*
X3247Y224D01*
X3240Y223D02*
X3247Y223D01*
X3240Y222D02*
X3247Y222D01*
X3240Y221D02*
X3247Y221D01*
X3240Y220D02*
X3247Y220D01*
X3240Y219D02*
X3247Y219D01*
X3240Y218D02*
X3247Y218D01*
X3240Y217D02*
X3247Y217D01*
X3240Y216D02*
X3247Y216D01*
X3240Y215D02*
X3247Y215D01*
X3240Y214D02*
X3247Y214D01*
X3240Y213D02*
X3247Y213D01*
X3240Y212D02*
X3247Y212D01*
X3240Y211D02*
X3247Y211D01*
X3240Y210D02*
X3247Y210D01*
X3240Y209D02*
X3247Y209D01*
X3240Y208D02*
X3247Y208D01*
X3240Y207D02*
X3247Y207D01*
X3240Y206D02*
X3247Y206D01*
X3240Y205D02*
X3247Y205D01*
X3240Y204D02*
X3247Y204D01*
X3240Y203D02*
X3247Y203D01*
X3240Y202D02*
X3247Y202D01*
X3240Y201D02*
X3247Y201D01*
X3240Y200D02*
X3247Y200D01*
X3240Y199D02*
X3247Y199D01*
X3240Y198D02*
X3247Y198D01*
X3240Y197D02*
X3247Y197D01*
X3240Y196D02*
X3247Y196D01*
X3240Y195D02*
X3247Y195D01*
X3240Y194D02*
X3247Y194D01*
X3240Y193D02*
X3247Y193D01*
X3240Y192D02*
X3247Y192D01*
X3240Y191D02*
X3247Y191D01*
X0Y190D02*
X0Y190D01*
X3240Y190D02*
X3247Y190D01*
X0Y189D02*
X0Y189D01*
X3240Y189D02*
X3247Y189D01*
X0Y188D02*
X1Y188D01*
X3240Y188D02*
X3247Y188D01*
X0Y187D02*
X1Y187D01*
X3240Y187D02*
X3247Y187D01*
X0Y186D02*
X1Y186D01*
X3240Y186D02*
X3247Y186D01*
X0Y185D02*
X2Y185D01*
X3240Y185D02*
X3247Y185D01*
X0Y184D02*
X2Y184D01*
X3240Y184D02*
X3247Y184D01*
X0Y183D02*
X3Y183D01*
X3240Y183D02*
X3247Y183D01*
X0Y182D02*
X3Y182D01*
X3240Y182D02*
X3247Y182D01*
X0Y181D02*
X4Y181D01*
X3240Y181D02*
X3247Y181D01*
X0Y180D02*
X4Y180D01*
X3240Y180D02*
X3247Y180D01*
X0Y179D02*
X5Y179D01*
X3240Y179D02*
X3247Y179D01*
X0Y178D02*
X5Y178D01*
X3240Y178D02*
X3247Y178D01*
X0Y177D02*
X6Y177D01*
X3240Y177D02*
X3247Y177D01*
X0Y176D02*
X6Y176D01*
X3240Y176D02*
X3247Y176D01*
X0Y175D02*
X7Y175D01*
X3240Y175D02*
X3247Y175D01*
X0Y174D02*
X7Y174D01*
X3240Y174D02*
X3247Y174D01*
X0Y173D02*
X7Y173D01*
X3240Y173D02*
X3247Y173D01*
X0Y172D02*
X7Y172D01*
X3240Y172D02*
X3247Y172D01*
X0Y171D02*
X7Y171D01*
X3240Y171D02*
X3247Y171D01*
X0Y170D02*
X7Y170D01*
X3240Y170D02*
X3247Y170D01*
X0Y169D02*
X7Y169D01*
X3240Y169D02*
X3247Y169D01*
X0Y168D02*
X7Y168D01*
X3240Y168D02*
X3247Y168D01*
X0Y167D02*
X7Y167D01*
X3240Y167D02*
X3247Y167D01*
X0Y166D02*
X7Y166D01*
X3240Y166D02*
X3247Y166D01*
X0Y165D02*
X7Y165D01*
X3240Y165D02*
X3247Y165D01*
X0Y164D02*
X7Y164D01*
X3240Y164D02*
X3247Y164D01*
X0Y163D02*
X7Y163D01*
X3240Y163D02*
X3247Y163D01*
X0Y162D02*
X7Y162D01*
X3240Y162D02*
X3247Y162D01*
X0Y161D02*
X7Y161D01*
X3240Y161D02*
X3247Y161D01*
X0Y160D02*
X7Y160D01*
X3240Y160D02*
X3247Y160D01*
X0Y159D02*
X7Y159D01*
X3240Y159D02*
X3247Y159D01*
X0Y158D02*
X7Y158D01*
X3240Y158D02*
X3247Y158D01*
X0Y157D02*
X7Y157D01*
X3240Y157D02*
X3247Y157D01*
X0Y156D02*
X7Y156D01*
X3240Y156D02*
X3247Y156D01*
X0Y155D02*
X7Y155D01*
X3240Y155D02*
X3247Y155D01*
X0Y154D02*
X7Y154D01*
X3240Y154D02*
X3247Y154D01*
X0Y153D02*
X7Y153D01*
X3240Y153D02*
X3247Y153D01*
X0Y152D02*
X7Y152D01*
X3240Y152D02*
X3247Y152D01*
X0Y151D02*
X7Y151D01*
X3240Y151D02*
X3247Y151D01*
X0Y150D02*
X7Y150D01*
X3240Y150D02*
X3247Y150D01*
X0Y149D02*
X7Y149D01*
X3240Y149D02*
X3247Y149D01*
X0Y148D02*
X7Y148D01*
X3240Y148D02*
X3247Y148D01*
X0Y147D02*
X7Y147D01*
X3240Y147D02*
X3247Y147D01*
X0Y146D02*
X7Y146D01*
X3240Y146D02*
X3247Y146D01*
X0Y145D02*
X7Y145D01*
X3240Y145D02*
X3247Y145D01*
X0Y144D02*
X7Y144D01*
X3240Y144D02*
X3247Y144D01*
X0Y143D02*
X7Y143D01*
X3240Y143D02*
X3247Y143D01*
X0Y142D02*
X7Y142D01*
X3240Y142D02*
X3247Y142D01*
X0Y141D02*
X7Y141D01*
X3240Y141D02*
X3247Y141D01*
X0Y140D02*
X7Y140D01*
X3240Y140D02*
X3247Y140D01*
X0Y139D02*
X7Y139D01*
X3240Y139D02*
X3247Y139D01*
X0Y138D02*
X7Y138D01*
X3240Y138D02*
X3247Y138D01*
X0Y137D02*
X7Y137D01*
X3240Y137D02*
X3247Y137D01*
X0Y136D02*
X7Y136D01*
X3240Y136D02*
X3247Y136D01*
X0Y135D02*
X7Y135D01*
X3240Y135D02*
X3247Y135D01*
X0Y134D02*
X7Y134D01*
X3240Y134D02*
X3247Y134D01*
X0Y133D02*
X7Y133D01*
X3240Y133D02*
X3247Y133D01*
X0Y132D02*
X7Y132D01*
X3240Y132D02*
X3247Y132D01*
X0Y131D02*
X7Y131D01*
X3240Y131D02*
X3247Y131D01*
X0Y130D02*
X7Y130D01*
X3240Y130D02*
X3247Y130D01*
X0Y129D02*
X7Y129D01*
X3240Y129D02*
X3247Y129D01*
X0Y128D02*
X7Y128D01*
X3240Y128D02*
X3247Y128D01*
X0Y127D02*
X7Y127D01*
X3240Y127D02*
X3247Y127D01*
X0Y126D02*
X7Y126D01*
X3240Y126D02*
X3247Y126D01*
X0Y125D02*
X7Y125D01*
X3240Y125D02*
X3247Y125D01*
X0Y124D02*
X7Y124D01*
X3240Y124D02*
X3247Y124D01*
X0Y123D02*
X7Y123D01*
X3240Y123D02*
X3247Y123D01*
X0Y122D02*
X7Y122D01*
X3240Y122D02*
X3247Y122D01*
X0Y121D02*
X7Y121D01*
X3240Y121D02*
X3247Y121D01*
X0Y120D02*
X7Y120D01*
X3240Y120D02*
X3247Y120D01*
X0Y119D02*
X7Y119D01*
X3240Y119D02*
X3247Y119D01*
X0Y118D02*
X7Y118D01*
X3240Y118D02*
X3247Y118D01*
X0Y117D02*
X7Y117D01*
X3240Y117D02*
X3247Y117D01*
X0Y116D02*
X7Y116D01*
X3240Y116D02*
X3247Y116D01*
X0Y115D02*
X7Y115D01*
X3240Y115D02*
X3247Y115D01*
X0Y114D02*
X7Y114D01*
X3240Y114D02*
X3247Y114D01*
X0Y113D02*
X7Y113D01*
X3240Y113D02*
X3247Y113D01*
X0Y112D02*
X7Y112D01*
X3240Y112D02*
X3247Y112D01*
X0Y111D02*
X7Y111D01*
X3240Y111D02*
X3247Y111D01*
X0Y110D02*
X7Y110D01*
X3240Y110D02*
X3247Y110D01*
X0Y109D02*
X7Y109D01*
X3240Y109D02*
X3247Y109D01*
X0Y108D02*
X7Y108D01*
X3240Y108D02*
X3247Y108D01*
X0Y107D02*
X7Y107D01*
X3240Y107D02*
X3247Y107D01*
X0Y106D02*
X7Y106D01*
X3240Y106D02*
X3247Y106D01*
X0Y105D02*
X7Y105D01*
X3240Y105D02*
X3247Y105D01*
X0Y104D02*
X7Y104D01*
X3240Y104D02*
X3247Y104D01*
X0Y103D02*
X7Y103D01*
X3240Y103D02*
X3247Y103D01*
X0Y102D02*
X7Y102D01*
X3240Y102D02*
X3247Y102D01*
X0Y101D02*
X7Y101D01*
X3240Y101D02*
X3247Y101D01*
X0Y100D02*
X7Y100D01*
X3240Y100D02*
X3247Y100D01*
X0Y99D02*
X7Y99D01*
X3240Y99D02*
X3247Y99D01*
X0Y98D02*
X7Y98D01*
X3240Y98D02*
X3247Y98D01*
X0Y97D02*
X7Y97D01*
X3240Y97D02*
X3247Y97D01*
X0Y96D02*
X7Y96D01*
X3240Y96D02*
X3247Y96D01*
X0Y95D02*
X7Y95D01*
X3240Y95D02*
X3247Y95D01*
X0Y94D02*
X7Y94D01*
X3240Y94D02*
X3247Y94D01*
X0Y93D02*
X7Y93D01*
X3240Y93D02*
X3247Y93D01*
X0Y92D02*
X7Y92D01*
X3240Y92D02*
X3247Y92D01*
X0Y91D02*
X7Y91D01*
X3240Y91D02*
X3247Y91D01*
X0Y90D02*
X7Y90D01*
X3240Y90D02*
X3247Y90D01*
X0Y89D02*
X7Y89D01*
X3240Y89D02*
X3247Y89D01*
X0Y88D02*
X7Y88D01*
X3240Y88D02*
X3247Y88D01*
X0Y87D02*
X7Y87D01*
X3240Y87D02*
X3247Y87D01*
X0Y86D02*
X7Y86D01*
X3240Y86D02*
X3247Y86D01*
X0Y85D02*
X7Y85D01*
X3240Y85D02*
X3247Y85D01*
X0Y84D02*
X7Y84D01*
X3240Y84D02*
X3247Y84D01*
X0Y83D02*
X7Y83D01*
X3240Y83D02*
X3247Y83D01*
X0Y82D02*
X7Y82D01*
X3240Y82D02*
X3247Y82D01*
X0Y81D02*
X7Y81D01*
X3240Y81D02*
X3247Y81D01*
X0Y80D02*
X7Y80D01*
X3240Y80D02*
X3247Y80D01*
X0Y79D02*
X7Y79D01*
X3240Y79D02*
X3247Y79D01*
X0Y78D02*
X7Y78D01*
X3240Y78D02*
X3247Y78D01*
X0Y77D02*
X7Y77D01*
X3240Y77D02*
X3247Y77D01*
X0Y76D02*
X7Y76D01*
X3240Y76D02*
X3247Y76D01*
X0Y75D02*
X7Y75D01*
X3240Y75D02*
X3247Y75D01*
X0Y74D02*
X7Y74D01*
X3240Y74D02*
X3247Y74D01*
X0Y73D02*
X7Y73D01*
X3240Y73D02*
X3247Y73D01*
X0Y72D02*
X7Y72D01*
X3240Y72D02*
X3247Y72D01*
X0Y71D02*
X7Y71D01*
X3240Y71D02*
X3247Y71D01*
X0Y70D02*
X7Y70D01*
X3240Y70D02*
X3247Y70D01*
X0Y69D02*
X7Y69D01*
X3240Y69D02*
X3247Y69D01*
X0Y68D02*
X7Y68D01*
X3240Y68D02*
X3247Y68D01*
X0Y67D02*
X7Y67D01*
X3240Y67D02*
X3247Y67D01*
X0Y66D02*
X7Y66D01*
X3240Y66D02*
X3247Y66D01*
X0Y65D02*
X7Y65D01*
X3240Y65D02*
X3247Y65D01*
X0Y64D02*
X7Y64D01*
X3240Y64D02*
X3247Y64D01*
X0Y63D02*
X7Y63D01*
X3240Y63D02*
X3247Y63D01*
X0Y62D02*
X7Y62D01*
X3240Y62D02*
X3247Y62D01*
X0Y61D02*
X7Y61D01*
X3240Y61D02*
X3247Y61D01*
X0Y60D02*
X7Y60D01*
X3240Y60D02*
X3247Y60D01*
X0Y59D02*
X7Y59D01*
X3240Y59D02*
X3247Y59D01*
X0Y58D02*
X7Y58D01*
X3240Y58D02*
X3247Y58D01*
X0Y57D02*
X7Y57D01*
X3240Y57D02*
X3247Y57D01*
X0Y56D02*
X7Y56D01*
X3240Y56D02*
X3247Y56D01*
X0Y55D02*
X7Y55D01*
X3240Y55D02*
X3247Y55D01*
X0Y54D02*
X7Y54D01*
X3240Y54D02*
X3247Y54D01*
X0Y53D02*
X7Y53D01*
X3240Y53D02*
X3247Y53D01*
X0Y52D02*
X7Y52D01*
X3240Y52D02*
X3247Y52D01*
X0Y51D02*
X7Y51D01*
X3240Y51D02*
X3247Y51D01*
X0Y50D02*
X7Y50D01*
X3240Y50D02*
X3247Y50D01*
X0Y49D02*
X7Y49D01*
X3240Y49D02*
X3247Y49D01*
X0Y48D02*
X7Y48D01*
X3240Y48D02*
X3247Y48D01*
X0Y47D02*
X7Y47D01*
X3240Y47D02*
X3247Y47D01*
X0Y46D02*
X7Y46D01*
X3240Y46D02*
X3247Y46D01*
X0Y45D02*
X7Y45D01*
X3240Y45D02*
X3247Y45D01*
X0Y44D02*
X7Y44D01*
X3240Y44D02*
X3247Y44D01*
X0Y43D02*
X7Y43D01*
X3240Y43D02*
X3247Y43D01*
X0Y42D02*
X7Y42D01*
X3240Y42D02*
X3247Y42D01*
X0Y41D02*
X7Y41D01*
X3240Y41D02*
X3247Y41D01*
X0Y40D02*
X7Y40D01*
X3240Y40D02*
X3247Y40D01*
X0Y39D02*
X7Y39D01*
X3240Y39D02*
X3247Y39D01*
X0Y38D02*
X7Y38D01*
X3240Y38D02*
X3247Y38D01*
X0Y37D02*
X7Y37D01*
X3240Y37D02*
X3247Y37D01*
X0Y36D02*
X7Y36D01*
X3240Y36D02*
X3247Y36D01*
X0Y35D02*
X7Y35D01*
X3240Y35D02*
X3247Y35D01*
X0Y34D02*
X7Y34D01*
X3240Y34D02*
X3247Y34D01*
X0Y33D02*
X7Y33D01*
X3240Y33D02*
X3247Y33D01*
X0Y32D02*
X7Y32D01*
X3240Y32D02*
X3247Y32D01*
X0Y31D02*
X7Y31D01*
X3240Y31D02*
X3247Y31D01*
X0Y30D02*
X7Y30D01*
X3240Y30D02*
X3247Y30D01*
X0Y29D02*
X7Y29D01*
X3240Y29D02*
X3247Y29D01*
X0Y28D02*
X7Y28D01*
X3240Y28D02*
X3247Y28D01*
X0Y27D02*
X7Y27D01*
X3240Y27D02*
X3247Y27D01*
X0Y26D02*
X7Y26D01*
X3240Y26D02*
X3247Y26D01*
X0Y25D02*
X7Y25D01*
X3240Y25D02*
X3247Y25D01*
X0Y24D02*
X7Y24D01*
X3240Y24D02*
X3247Y24D01*
X0Y23D02*
X7Y23D01*
X3240Y23D02*
X3247Y23D01*
X0Y22D02*
X7Y22D01*
X3240Y22D02*
X3247Y22D01*
X0Y21D02*
X7Y21D01*
X3240Y21D02*
X3247Y21D01*
X0Y20D02*
X7Y20D01*
X3240Y20D02*
X3247Y20D01*
X0Y19D02*
X7Y19D01*
X3240Y19D02*
X3247Y19D01*
X0Y18D02*
X7Y18D01*
X3240Y18D02*
X3247Y18D01*
X0Y17D02*
X7Y17D01*
X3240Y17D02*
X3247Y17D01*
X0Y16D02*
X7Y16D01*
X3240Y16D02*
X3247Y16D01*
X0Y15D02*
X7Y15D01*
X3240Y15D02*
X3247Y15D01*
X0Y14D02*
X7Y14D01*
X3240Y14D02*
X3247Y14D01*
X0Y13D02*
X7Y13D01*
X3240Y13D02*
X3247Y13D01*
X0Y12D02*
X7Y12D01*
X3240Y12D02*
X3247Y12D01*
X0Y11D02*
X7Y11D01*
X3240Y11D02*
X3247Y11D01*
X0Y10D02*
X7Y10D01*
X3240Y10D02*
X3247Y10D01*
X0Y9D02*
X7Y9D01*
X3240Y9D02*
X3247Y9D01*
X0Y8D02*
X3247Y8D01*
X0Y7D02*
X3247Y7D01*
X0Y6D02*
X3247Y6D01*
X0Y5D02*
X3247Y5D01*
X0Y4D02*
X3247Y4D01*
X0Y3D02*
X3247Y3D01*
X0Y2D02*
X3247Y2D01*
X0Y1D02*
X3247Y1D01*
D02*
G04 End of Silk0*
M02*